<svg id="obturateur1" class="obturateur" xmlns="http://www.w3.org/2000/svg" x="0px" y="0px" viewBox="0 0 200 200"
    enable-background="new 0 0 200 200">
    <path d="M10,100A90,90 0,1,1 190,100A90,90 0,1,1 10,100">
    </path>
    <path d="M14.260000000000005,100A85.74,85.74 0,1,1 185.74,100A85.74,85.74 0,1,1 14.260000000000005,100"></path>
    <path d="M60.26,100A39.74,39.74 0,1,1 139.74,100A39.74,39.74 0,1,1 60.26,100"></path>
    <path d="M34.042,131.189L67.047,77.781"></path>
    <path d="M31.306,75.416L92.41,60.987"></path>
    <path d="M68.81,34.042L122.219,67.046"></path>
    <path d="M124.584,31.305L139.013,92.409"></path>
    <path d="M165.957,68.809L132.953,122.219"></path>
    <path d="M168.693,124.584L107.59,139.012"></path>
    <path d="M131.19,165.957L77.781,132.953"></path>
    <path d="M75.417,168.693L60.987,107.59"></path>
</svg>
