<svg viewBox="0 0 28 28" fill="none" xmlns="http://www.w3.org/2000/svg">
    <path pathLength="1"
        d="M2.36383 12.2502H16.3831C16.6093 12.2502 16.7926 12.0669 16.7926 11.8407C16.7926 11.6145 16.6093 11.431 16.3831 11.431H2.36383C2.1376 11.431 1.9541 11.6145 1.9541 11.8407C1.9541 12.0669 2.1376 12.2502 2.36383 12.2502Z"
        fill="currentColor" />
    <path pathLength="1"
        d="M2.36383 13.8359H9.58044C9.80667 13.8359 9.99017 13.6524 9.99017 13.4262C9.99017 13.2 9.80688 13.0165 9.58044 13.0165H2.36383C2.1376 13.0165 1.9541 13.2 1.9541 13.4262C1.9541 13.6524 2.1376 13.8359 2.36383 13.8359Z"
        fill="currentColor" />
    <path pathLength="1"
        d="M25.8539 6.75433H24.9358V6.16025C25.6239 5.70459 26.0787 4.9238 26.0787 4.03854V1.57632C26.0787 0.737427 25.3961 0.0549011 24.5573 0.0549011H22.5133C21.6742 0.0549011 20.9919 0.737427 20.9919 1.57632V4.03854C20.9919 4.90179 21.4243 5.66528 22.0835 6.12521V6.75433H18.7463V1.69702C18.7463 0.791473 18.0095 0.0546875 17.1039 0.0546875H4.26028C4.03406 0.0546875 3.85077 0.23819 3.85077 0.464417C3.85077 0.690643 4.03406 0.873932 4.26028 0.873932H17.1039C17.5577 0.873932 17.927 1.24329 17.927 1.69702V6.75433H14.2143C14.3234 6.57745 14.3877 6.37003 14.3877 6.14743C14.3877 5.93317 14.3283 5.73322 14.2269 5.56082L15.6947 3.74054C15.8109 3.77963 15.9346 3.80164 16.0638 3.80164C16.7034 3.80164 17.2238 3.28125 17.2238 2.64166C17.2238 2.00186 16.7034 1.48148 16.0638 1.48148C15.424 1.48148 14.9036 2.00186 14.9036 2.64166C14.9036 2.85315 14.9613 3.05075 15.0606 3.22186L13.5896 5.04578C13.4756 5.00818 13.354 4.98724 13.2275 4.98724C13.0684 4.98724 12.9165 5.0195 12.7783 5.07782L11.9962 4.25174C12.0706 4.09879 12.1135 3.92789 12.1135 3.74673C12.1135 3.10693 11.5929 2.58655 10.9533 2.58655C10.3137 2.58655 9.79312 3.10693 9.79312 3.74673C9.79312 3.95822 9.85101 4.15604 9.95035 4.32693L8.99139 5.50208C8.8754 5.46298 8.75171 5.44098 8.62289 5.44098C8.33173 5.44098 8.06598 5.5495 7.86197 5.72745L6.78445 5.14874C6.79086 5.09875 6.79556 5.04834 6.79556 4.99664C6.79556 4.35684 6.27496 3.83646 5.63538 3.83646C4.99579 3.83646 4.47519 4.35684 4.47519 4.99664C4.47519 5.15302 4.50681 5.30191 4.56299 5.4382L3.39767 6.52832C3.24301 6.45184 3.06955 6.40762 2.88562 6.40762C2.24582 6.40762 1.72543 6.92801 1.72543 7.56781C1.72543 8.2074 2.24582 8.72778 2.88562 8.72778C3.52521 8.72778 4.04559 8.2074 4.04559 7.56781C4.04559 7.41144 4.01419 7.26254 3.95779 7.12625L5.12332 6.03592C5.27798 6.11261 5.45145 6.15662 5.63538 6.15662C5.92654 6.15662 6.19229 6.0481 6.3963 5.87036L7.47382 6.44907C7.46719 6.49884 7.46271 6.54947 7.46271 6.60117C7.46271 7.24075 7.98309 7.76135 8.62289 7.76135C9.26248 7.76135 9.78287 7.24075 9.78287 6.60117C9.78287 6.38947 9.72498 6.19165 9.62564 6.02054L10.5844 4.84561C10.7004 4.8847 10.8243 4.90692 10.9531 4.90692C11.1122 4.90692 11.2641 4.87445 11.4023 4.81635L12.1846 5.64264C12.1103 5.79538 12.0674 5.96628 12.0674 6.14743C12.0674 6.60907 12.3391 7.00748 12.7302 7.19418V8.21167C12.7302 8.9993 13.3713 9.63995 14.1591 9.63995H20.4301V15.1495C19.6174 15.4347 19.0505 16.2153 19.0505 17.0941V19.2729C19.0505 20.191 19.5036 21.0291 20.2476 21.517V22.2121H19.9413C18.8969 22.2121 17.9813 22.7729 17.4786 23.609C16.9762 22.7729 16.0606 22.2121 15.0162 22.2121H14.7099V21.5142C15.4539 21.016 15.907 20.1786 15.907 19.2731V17.0941C15.907 16.6284 15.7515 16.1986 15.49 15.8532H17.1037C18.0095 15.8532 18.7461 15.1164 18.7461 14.2108V11.2846C18.7461 11.0584 18.5628 10.8751 18.3365 10.8751C18.1103 10.8751 17.9268 11.0584 17.9268 11.2846V14.2108C17.9268 14.6646 17.5577 15.0339 17.1037 15.0339H13.8485C13.8479 15.0339 13.847 15.0339 13.8464 15.0339H12.5753C12.5747 15.0339 12.5739 15.0339 12.5732 15.0339H5.31473C5.31387 15.0339 5.31323 15.0339 5.31259 15.0339H4.04132C4.04068 15.0339 4.04004 15.0339 4.03918 15.0339H1.64233C1.1886 15.0339 0.819244 14.6646 0.819244 14.2108V1.69702C0.819244 1.24329 1.1886 0.873932 1.64233 0.873932H2.51199C2.73822 0.873932 2.92172 0.690643 2.92172 0.464417C2.92172 0.23819 2.73822 0.0546875 2.51199 0.0546875H1.64233C0.736786 0.0546875 0 0.791473 0 1.69702V14.2106C0 15.1164 0.736786 15.8532 1.64233 15.8532H2.39792C2.13644 16.1986 1.98093 16.6286 1.98093 17.0943V17.5643C1.98093 17.5671 1.98114 17.5699 1.98114 17.5726V19.2729C1.98114 20.1784 2.43423 21.016 3.17828 21.5142V22.2119H2.87195C1.28836 22.2119 0 23.5002 0 25.0838V26.6437C0 27.2013 0.453735 27.6548 1.01151 27.6548H8.34219C8.56778 27.6548 8.77563 27.5798 8.94397 27.4546C9.1123 27.5798 9.32016 27.6548 9.54553 27.6548H16.8766C17.1024 27.6548 17.3103 27.5796 17.4789 27.454C17.6472 27.5796 17.8553 27.6548 18.0808 27.6548H25.4122C25.9695 27.6548 26.423 27.2013 26.423 26.6437V25.0838C26.423 24.4622 26.2201 23.8566 25.849 23.3616V18.9535C25.849 18.7273 25.6657 18.544 25.4393 18.544C25.2131 18.544 25.0298 18.7273 25.0298 18.9535V22.6214C24.5887 22.3563 24.0796 22.2119 23.5517 22.2119H23.2454V21.5131C23.2631 21.5014 23.2811 21.4901 23.2984 21.4779C24.0149 20.9727 24.4425 20.1483 24.4425 19.2729V17.5664C24.4425 17.5656 24.4425 17.5649 24.4425 17.5643V17.0941C24.4425 16.6248 24.2845 16.1918 24.0191 15.8448H25.0298V17.0418C25.0298 17.268 25.2131 17.4515 25.4395 17.4515C25.6657 17.4515 25.849 17.2682 25.849 17.0418V15.8448H25.9048C27.0601 15.8448 28 14.9049 28 13.7496V8.90039C28 7.71713 27.0374 6.75433 25.8539 6.75433ZM21.8111 1.57632C21.8111 1.18903 22.1262 0.874146 22.5133 0.874146H24.5575C24.9445 0.874146 25.2596 1.18924 25.2596 1.57632V2.21976C25.0494 2.10995 24.8104 2.04779 24.5575 2.04779H23.33V2.01682C23.33 1.79059 23.1467 1.6073 22.9203 1.6073C22.694 1.6073 22.5107 1.79059 22.5107 2.01682V2.04779C22.2587 2.04822 22.0207 2.11038 21.8111 2.21976V1.57632ZM21.8111 3.56921C21.8111 3.18213 22.1262 2.86703 22.5133 2.86703H24.5575C24.9445 2.86703 25.2596 3.18213 25.2596 3.56921V4.03854C25.2596 4.98938 24.4861 5.76291 23.5353 5.76291C22.5847 5.76291 21.8111 4.98938 21.8111 4.03854V3.56921ZM23.5353 6.58215C23.7352 6.58215 23.9296 6.55823 24.1165 6.51422V7.14313C24.1163 7.14825 24.1161 7.15338 24.1161 7.15829C24.1114 7.4877 23.8395 7.75558 23.5096 7.75558C23.1798 7.75558 22.9079 7.4877 22.9034 7.15851C22.9034 7.15338 22.9032 7.14825 22.903 7.14313V6.50247C23.105 6.55438 23.317 6.58215 23.5353 6.58215ZM16.0636 2.30072C16.2516 2.30072 16.4045 2.45367 16.4045 2.64166C16.4045 2.82965 16.2516 2.98239 16.0636 2.98239C15.9824 2.98239 15.9079 2.95377 15.8491 2.90613C15.8476 2.90485 15.8463 2.90335 15.8446 2.90207C15.8442 2.90186 15.8436 2.90143 15.8431 2.901C15.7697 2.83841 15.7229 2.74548 15.7229 2.64166C15.7229 2.45367 15.8758 2.30072 16.0636 2.30072ZM13.4384 5.87997L13.4409 5.88254C13.4422 5.88361 13.4435 5.88403 13.4448 5.8851C13.5202 5.94769 13.5683 6.0419 13.5683 6.14743C13.5683 6.33542 13.4153 6.48816 13.2273 6.48816C13.0396 6.48816 12.8866 6.33542 12.8866 6.14743C12.8866 5.95944 13.0396 5.80649 13.2273 5.80649C13.307 5.80649 13.3803 5.83426 13.4384 5.87997ZM2.88541 7.90854C2.69763 7.90854 2.54468 7.75558 2.54468 7.5676C2.54468 7.37961 2.69742 7.22687 2.88541 7.22687C3.07339 7.22687 3.22635 7.37961 3.22635 7.5676C3.22635 7.75558 3.07339 7.90854 2.88541 7.90854ZM5.63538 5.33737C5.44739 5.33737 5.29443 5.18442 5.29443 4.99643C5.29443 4.80865 5.44739 4.6557 5.63538 4.6557C5.82315 4.6557 5.9761 4.80865 5.9761 4.99643C5.9761 5.18442 5.82315 5.33737 5.63538 5.33737ZM8.62289 6.94189C8.43491 6.94189 8.28195 6.78894 8.28195 6.60095C8.28195 6.41318 8.43491 6.26022 8.62289 6.26022C8.81067 6.26022 8.96362 6.41318 8.96362 6.60095C8.96362 6.78894 8.81067 6.94189 8.62289 6.94189ZM10.6124 3.74652C10.6124 3.55853 10.7653 3.40579 10.9533 3.40579C11.1413 3.40579 11.294 3.55853 11.294 3.74652C11.294 3.93451 11.1413 4.08746 10.9533 4.08746C10.7653 4.08746 10.6124 3.93451 10.6124 3.74652ZM19.8697 17.0939C19.8697 16.5126 20.2812 16.0025 20.8496 15.8807C20.9338 15.8624 21.0216 15.853 21.1107 15.853H22.3817C23.0664 15.853 23.6233 16.4097 23.6233 17.0939V17.5664C23.622 18.6002 22.7808 19.441 21.7466 19.441C20.7116 19.441 19.8697 18.5991 19.8697 17.5643V17.0939ZM11.4058 22.2119C10.362 22.2119 9.44684 22.772 8.94397 23.6075C8.44131 22.772 7.52573 22.2119 6.48175 22.2119H6.17584V21.514C6.9201 21.0158 7.3732 20.1784 7.3732 19.2729V17.0939C7.3732 16.6284 7.21768 16.1984 6.95621 15.853H10.9319C10.7924 16.0373 10.6831 16.2456 10.6115 16.4708C10.5489 16.6675 10.515 16.8769 10.515 17.0941V17.5643V17.5664V19.2729C10.515 20.1784 10.968 21.016 11.7123 21.5142V22.2119H11.4058ZM3.99774 21.2856C3.99774 21.2833 3.99753 21.2809 3.99753 21.2786C3.99731 21.2647 3.99667 21.2527 3.99561 21.2425C3.98215 21.1124 3.90717 20.991 3.78369 20.924C3.24835 20.6332 2.89246 20.106 2.81619 19.5125C3.30048 19.9753 3.95587 20.2604 4.67706 20.2604C5.39847 20.2604 6.05386 19.975 6.53815 19.5121C6.4621 20.1058 6.1062 20.633 5.57086 20.924C5.43372 20.9985 5.35617 21.1397 5.3566 21.2856V22.6216C5.3566 22.7447 5.25641 22.8451 5.13336 22.8451H4.22119C4.09793 22.8451 3.99774 22.7447 3.99774 22.6216V21.2856ZM2.80038 17.0939C2.80038 16.4097 3.35709 15.853 4.04132 15.853H5.31238C5.5401 15.853 5.75351 15.9149 5.93723 16.0222C6.30551 16.2377 6.55374 16.6374 6.55374 17.0941V17.5643C6.55374 18.5991 5.71185 19.441 4.67706 19.441C3.64505 19.441 2.80508 18.6036 2.8006 17.5726V17.0939H2.80038ZM11.3344 17.0939C11.3344 16.9657 11.3539 16.8418 11.3902 16.7254C11.394 16.7132 11.3983 16.7013 11.4023 16.6893C11.4049 16.6823 11.407 16.675 11.4098 16.6679C11.5352 16.3259 11.8072 16.054 12.1492 15.9284C12.1562 15.9258 12.1635 15.9237 12.1707 15.9211C12.1827 15.9171 12.1945 15.9128 12.2066 15.9089C12.3233 15.8726 12.447 15.8532 12.5753 15.8532H13.8468C13.9325 15.8532 14.0158 15.8617 14.0966 15.8784C14.1066 15.8805 14.1166 15.8829 14.1265 15.8852C14.1365 15.8876 14.1465 15.8897 14.1564 15.8923C14.6915 16.0301 15.0878 16.5169 15.0878 17.0943V17.5643C15.0878 18.5991 14.2459 19.441 13.2111 19.441C12.1769 19.441 11.3355 18.6004 11.3344 17.5664V17.0939ZM12.5316 21.2856C12.5316 21.2845 12.5316 21.2835 12.5316 21.2826C12.5316 21.2536 12.5298 21.2339 12.5264 21.2215C12.5074 21.0995 12.4344 20.9874 12.3175 20.924C11.7822 20.6332 11.4263 20.106 11.35 19.5123C11.8343 19.9753 12.4899 20.2604 13.2111 20.2604C13.9323 20.2604 14.5877 19.9753 15.072 19.5123C14.9959 20.106 14.64 20.6332 14.1047 20.924C13.9791 20.9921 13.9037 21.1164 13.8921 21.2487C13.8911 21.2581 13.8906 21.2692 13.8904 21.2822V21.2856V22.6216C13.8904 22.7449 13.7902 22.8451 13.667 22.8451H12.7548C12.6317 22.8451 12.5316 22.7449 12.5316 22.6216V21.2856ZM8.34219 26.8355H7.07861V25.9274C7.07861 25.7012 6.89532 25.5179 6.66888 25.5179C6.44266 25.5179 6.25937 25.7012 6.25937 25.9274V26.8355H3.12424V25.9274C3.12424 25.7012 2.94095 25.5179 2.71451 25.5179C2.48828 25.5179 2.30499 25.7012 2.30499 25.9274V26.8355H1.01151C0.905548 26.8355 0.819244 26.7497 0.819244 26.6439V25.084C0.819244 23.9521 1.74017 23.0313 2.87195 23.0313H3.26245C3.42203 23.403 3.79138 23.6643 4.22098 23.6643H5.13315C5.56274 23.6643 5.93231 23.4033 6.09189 23.0313H6.48175C7.61353 23.0313 8.53445 23.9521 8.53445 25.084V26.6439C8.53445 26.7495 8.44815 26.8355 8.34219 26.8355ZM17.0683 26.6437C17.0683 26.7495 16.9824 26.8355 16.8766 26.8355H15.6126V25.9274C15.6126 25.7012 15.4294 25.5177 15.2029 25.5177C14.9767 25.5177 14.7934 25.7012 14.7934 25.9274V26.8355H11.6583V25.9274C11.6583 25.7012 11.475 25.5177 11.2485 25.5177C11.0223 25.5177 10.839 25.7012 10.839 25.9274V26.8355H9.54553C9.43979 26.8355 9.3537 26.7495 9.3537 26.6437V25.0838C9.3537 23.9521 10.2742 23.0313 11.4058 23.0313H11.7963C11.9558 23.403 12.3254 23.6643 12.755 23.6643H13.6672C14.0968 23.6643 14.4661 23.403 14.6257 23.0313H15.0162C16.1478 23.0313 17.0683 23.9521 17.0683 25.0838V26.6437ZM25.1255 23.7662C25.434 24.1345 25.6038 24.6023 25.6038 25.0838V26.6437C25.6038 26.7495 25.5179 26.8353 25.4122 26.8353H24.1482V25.9274C24.1482 25.7012 23.9649 25.5177 23.7384 25.5177C23.5122 25.5177 23.3289 25.7012 23.3289 25.9274V26.8353H20.1938V25.9274C20.1938 25.7012 20.0103 25.5177 19.7841 25.5177C19.5578 25.5177 19.3743 25.7012 19.3743 25.9274V26.8353H18.0808C17.9753 26.8353 17.8892 26.7495 17.8892 26.6437V25.0838C17.8892 23.9521 18.8097 23.0311 19.9413 23.0311H20.3322C20.3455 23.0619 20.3596 23.0924 20.3756 23.1219C20.5587 23.4565 20.9094 23.6643 21.2903 23.6643H22.2025C22.6321 23.6643 23.0016 23.403 23.1612 23.0311H23.5517C24.1603 23.0313 24.7341 23.299 25.1255 23.7662ZM22.8271 20.8075C22.7741 20.8449 22.7184 20.8799 22.662 20.9118C22.5511 20.9742 22.4699 21.0825 22.4396 21.2004C22.4306 21.2106 22.4259 21.232 22.4259 21.2685V22.6216C22.4259 22.7447 22.3257 22.8451 22.2025 22.8451H21.2903C21.2087 22.8451 21.1335 22.8004 21.0946 22.7293C21.0904 22.7214 21.0865 22.7133 21.0833 22.7051C21.0889 22.6782 21.0919 22.6502 21.0919 22.6216C21.0919 22.5725 21.0829 22.5257 21.0671 22.4821V21.2835C21.0671 21.2828 21.0671 21.2824 21.0671 21.2818C21.0671 21.2769 21.0667 21.2719 21.0664 21.2668C21.0662 21.2572 21.0656 21.2478 21.0647 21.2399C21.0643 21.2356 21.0634 21.2311 21.0628 21.2269C21.0622 21.2237 21.062 21.2196 21.0611 21.2168C21.0408 21.0944 20.966 20.9827 20.8479 20.9207C20.3051 20.6358 19.9569 20.1192 19.8845 19.5113C20.369 19.9748 21.0248 20.2604 21.7466 20.2604C22.4678 20.2604 23.1232 19.9753 23.6075 19.5123C23.5406 20.0302 23.2595 20.5027 22.8271 20.8075ZM27.1808 13.7496C27.1808 14.4531 26.6082 15.0256 25.9048 15.0256H25.8488V10.2494C25.8488 10.0232 25.6655 9.83969 25.4393 9.83969C25.2129 9.83969 25.0296 10.0232 25.0296 10.2494V15.0256H21.2495V9.38873C21.2495 9.07556 20.9947 8.82071 20.6815 8.82071H14.1591C13.8231 8.82071 13.5497 8.54749 13.5497 8.21167V7.57358H22.1493C22.3313 8.15207 22.8748 8.57483 23.5096 8.57483C24.1445 8.57483 24.688 8.15207 24.87 7.57358H25.8542C26.5856 7.57358 27.1808 8.16873 27.1808 8.90039V13.7496Z"
        fill="currentColor" />
    <defs>
        <clipPath id="clip0_238_1269">
            <rect width="28" height="28" fill="currentColor" />
        </clipPath>
    </defs>
</svg>
