<svg width="200" height="200" viewBox="0 0 200 200" xmlns="http://www.w3.org/2000/svg">
    <g clip-path="url(#clip0_258_1840)">
        <path
            d="M122.301 110.178H11.998C7.14111 110.178 3.20435 106.239 3.20435 101.382V12.1109C3.20435 7.25403 7.14111 3.31573 11.998 3.31573H122.301C127.158 3.31573 131.096 7.25403 131.096 12.1109V101.382C131.096 106.239 127.158 110.178 122.301 110.178Z"
            data-stroke="white" stroke="white" fill="none" data-fill="#D9E0ED" />
        <path
            d="M122.301 3.31573H113.499V28.1647C113.499 66.4368 82.4753 97.4609 44.2032 97.4609H3.20435V101.382C3.20435 106.239 7.14111 110.176 11.9995 110.176H122.302C127.159 110.176 131.096 106.239 131.096 101.382V12.1109C131.096 7.25403 127.158 3.31573 122.301 3.31573Z"
            data-stroke="white" stroke="white" fill="none" data-fill="#CFD6E5" />
        <path
            d="M26.2193 53.9917C26.2193 56.9473 23.8221 59.3445 20.865 59.3445C17.9094 59.3445 15.5122 56.9473 15.5122 53.9917C15.5122 51.0345 17.9094 48.6374 20.865 48.6374C23.8221 48.6374 26.2193 51.0345 26.2193 53.9917Z"
            data-stroke="white" stroke="white" fill="none" data-fill="#FFA91E" />
        <path
            d="M45.836 35.6476C45.836 38.6047 43.4388 41.0019 40.4832 41.0019C37.5261 41.0019 35.1289 38.6047 35.1289 35.6476C35.1289 32.6904 37.5261 30.2948 40.4832 30.2948C43.4388 30.2948 45.836 32.6904 45.836 35.6476Z"
            data-stroke="white" stroke="white" fill="none" data-fill="#FFA91E" />
        <path
            d="M67.1495 47.0947C67.1495 50.0519 64.7523 52.449 61.7952 52.449C58.8395 52.449 56.4424 50.0519 56.4424 47.0947C56.4424 44.1376 58.8395 41.7404 61.7952 41.7404C64.7523 41.7404 67.1495 44.1376 67.1495 47.0947Z"
            data-stroke="white" stroke="white" fill="none" data-fill="#FFA91E" />
        <path
            d="M83.7755 26.7319C83.7755 29.6875 81.3783 32.0847 78.4211 32.0847C75.464 32.0847 73.0684 29.6875 73.0684 26.7319C73.0684 23.7747 75.464 21.3776 78.4211 21.3776C81.3783 21.3776 83.7755 23.7747 83.7755 26.7319Z"
            data-stroke="white" stroke="white" fill="none" data-fill="#FFA91E" />
        <path
            d="M100 43.8583C100 46.8155 97.6029 49.2126 94.6458 49.2126C91.6886 49.2126 89.293 46.8155 89.293 43.8583C89.293 40.9012 91.6886 38.504 94.6458 38.504C97.6029 38.504 100 40.9012 100 43.8583Z"
            data-stroke="white" stroke="white" fill="none" data-fill="#FFA91E" />
        <path
            d="M120.235 18.8477C120.235 21.8048 117.838 24.202 114.88 24.202C111.923 24.202 109.526 21.8048 109.526 18.8477C109.526 15.8905 111.923 13.4949 114.88 13.4949C117.838 13.4949 120.235 15.8905 120.235 18.8477Z"
            data-stroke="white" stroke="white" fill="none" data-fill="#FFA91E" />
        <path
            d="M64.1663 179.002V190.08C64.1663 192.448 62.2421 194.373 59.8679 194.373H7.50275C5.12848 194.373 3.20435 192.448 3.20435 190.08V179.002C3.20435 169.292 11.0779 161.427 20.7886 161.427H46.582C56.2927 161.427 64.1663 169.292 64.1663 179.002Z"
            data-stroke="white" stroke="white" fill="none" data-fill="#7885ED" />
        <path
            d="M36.9445 165.944H30.4259C27.9296 165.944 25.9062 163.921 25.9062 161.424V150.638H41.4656V161.424C41.4641 163.921 39.4408 165.944 36.9445 165.944Z"
            data-stroke="white" stroke="white" fill="none" data-fill="#FCC1B9" />
        <path
            d="M50.0182 121.964V137.517C50.0182 146.532 42.7047 153.841 33.6852 153.841C24.6658 153.841 17.3538 146.532 17.3538 137.517V121.964C17.3538 115.451 22.6348 110.178 29.1458 110.178H38.2247C44.7402 110.178 50.0182 115.451 50.0182 121.964Z"
            data-stroke="white" stroke="white" fill="none" data-fill="#FCC1B9" />
        <path
            d="M50.0182 121.964V125.319C50.0182 134.332 42.7047 141.641 33.6852 141.641C24.6658 141.641 17.3538 134.332 17.3538 125.319V121.964C17.3538 115.451 22.6348 110.178 29.1458 110.178H38.2247C44.7402 110.178 50.0182 115.451 50.0182 121.964Z"
            data-stroke="white" stroke="white" fill="none" data-fill="#354968" />
        <path
            d="M125.127 179.002V190.08C125.127 192.448 123.203 194.373 120.828 194.373H68.4647C66.0904 194.373 64.1663 192.448 64.1663 190.08V179.002C64.1663 169.293 72.0413 161.427 81.7505 161.427H107.542C117.253 161.427 125.127 169.293 125.127 179.002Z"
            data-stroke="white" stroke="white" fill="none" data-fill="#48BBED" />
        <path
            d="M97.9064 165.944H91.3878C88.8915 165.944 86.8682 163.921 86.8682 161.424V150.638H102.426V161.424C102.426 163.921 100.403 165.944 97.9064 165.944Z"
            data-stroke="white" stroke="white" fill="none" data-fill="#FCC1B9" />
        <path
            d="M110.979 121.964V137.518C110.979 146.532 103.667 153.841 94.6472 153.841C85.6277 153.841 78.3142 146.532 78.3142 137.518V121.964C78.3142 115.453 83.5968 110.178 90.1077 110.178H99.1867C105.702 110.178 110.979 115.453 110.979 121.964Z"
            data-stroke="white" stroke="white" fill="none" data-fill="#FCC1B9" />
        <path
            d="M110.979 121.964V125.319C110.979 134.334 103.667 141.643 94.6472 141.643C85.6277 141.643 78.3142 134.334 78.3142 125.319V121.964C78.3142 115.453 83.5968 110.178 90.1077 110.178H99.1867C105.702 110.178 110.979 115.453 110.979 121.964Z"
            data-stroke="white" stroke="white" fill="none" data-fill="#354968" />
        <path
            d="M94.0232 51.1063V58.5754C94.0232 62.5916 97.2779 65.8463 101.291 65.8463H147.813C148.439 65.8463 148.941 66.3498 148.941 66.9739V110.101H185.071C191.708 110.101 197.093 104.718 197.093 98.0804V63.4888C197.093 56.6483 191.547 51.1063 184.706 51.1063H94.0232Z"
            data-stroke="white" stroke="white" fill="none" data-fill="#48BBED" />
        <path
            d="M175.236 41.0461V50.9979C175.236 55.0003 171.991 58.2458 167.984 58.2458C163.983 58.2458 160.738 55.0003 160.738 50.9979V41.0461H175.236Z"
            data-stroke="white" stroke="white" fill="none" data-fill="#FCC1B9" />
        <path
            d="M175.236 41.0461V46.1899C173.125 47.3007 170.72 47.9279 168.169 47.9279C165.468 47.9279 162.935 47.226 160.738 45.9946V41.0461H175.236Z"
            data-stroke="white" stroke="white" fill="none" data-fill="#F9AFA7" />
        <path
            d="M168.169 44.0323C176.575 44.0323 183.389 37.2177 183.389 28.8116V11.2488C183.389 6.86951 179.839 3.31879 175.459 3.31879H160.879C156.499 3.31879 152.949 6.86951 152.949 11.2488V28.8116C152.948 37.2177 159.763 44.0323 168.169 44.0323Z"
            data-stroke="white" stroke="white" fill="none" data-fill="#FCC1B9" />
        <path
            d="M152.947 11.2488V25.4654C152.947 21.1273 156.427 17.6056 160.741 17.5369C160.785 17.5339 160.834 17.5339 160.878 17.5339H175.459C179.837 17.5339 183.388 21.0831 183.388 25.4654V11.2488C183.388 6.86646 179.837 3.31726 175.459 3.31726H160.878C156.5 3.31574 152.947 6.86646 152.947 11.2488Z"
            data-stroke="white" stroke="white" fill="none" data-fill="#354968" />
        <path d="M148.946 110.1H181.747V192.981H148.946V110.1Z" data-stroke="white" stroke="white" fill="none"
            data-fill="#354968" />
        <path
            d="M175.58 120.273V135.829C175.548 142.067 173.816 146.002 172.154 148.489C170.383 151.141 168.826 151.941 168.063 154.82C166.948 159.026 169.228 161.227 167.77 163.588C166.252 166.048 161.986 166.563 159.245 165.944C153.719 164.696 149.481 157.727 148.946 148.492V110.1H169.739C173.233 112.144 175.58 115.932 175.58 120.273Z"
            data-stroke="white" stroke="white" fill="none" data-fill="#2A3A51" />
        <path
            d="M186.09 179.002V190.08C186.09 192.448 184.164 194.373 181.79 194.373H129.427C127.052 194.373 125.127 192.448 125.127 190.08V179.002C125.127 169.292 133.002 161.427 142.712 161.427H168.504C178.215 161.427 186.09 169.292 186.09 179.002Z"
            data-stroke="white" stroke="white" fill="none" data-fill="#7885ED" />
        <path
            d="M158.868 165.944H152.35C149.852 165.944 147.829 163.921 147.829 161.424V150.638H163.388V161.424C163.388 163.921 161.365 165.944 158.868 165.944Z"
            data-stroke="white" stroke="white" fill="none" data-fill="#FCC1B9" />
        <path
            d="M171.941 121.964V137.517C171.941 146.532 164.629 153.841 155.609 153.841C146.59 153.841 139.276 146.532 139.276 137.517V121.964C139.276 115.451 144.559 112.152 151.068 112.152H160.149C166.664 112.152 171.941 115.451 171.941 121.964Z"
            data-stroke="white" stroke="white" fill="none" data-fill="#FCC1B9" />
        <path
            d="M171.941 121.964V125.319C171.941 134.332 164.629 141.641 155.609 141.641C146.59 141.641 139.276 134.332 139.276 125.319V121.964C139.276 115.451 144.559 110.178 151.068 110.178H160.149C166.664 110.178 171.941 115.451 171.941 121.964Z"
            data-stroke="white" stroke="white" fill="none" data-fill="#354968" />
        <path
            d="M16.8839 87.5015H117.021C118.637 87.5015 119.946 86.1923 119.946 84.5764C119.946 82.9605 118.637 81.6498 117.021 81.6498H16.8839C15.268 81.6498 13.9573 82.9605 13.9573 84.5764C13.9573 86.1923 15.268 87.5015 16.8839 87.5015Z"
            data-stroke="white" stroke="white" fill="none" data-fill="black" />
        <path
            d="M16.8839 98.8281H68.4312C70.0471 98.8281 71.3578 97.5174 71.3578 95.9015C71.3578 94.2856 70.0486 92.9749 68.4312 92.9749H16.8839C15.268 92.9749 13.9573 94.2856 13.9573 95.9015C13.9573 97.5174 15.268 98.8281 16.8839 98.8281Z"
            data-stroke="white" stroke="white" fill="none" data-fill="black" />
        <path
            d="M184.671 48.2452H178.113V44.0018C183.028 40.7471 186.276 35.17 186.276 28.8467V11.2595C186.276 5.26733 181.401 0.392151 175.409 0.392151H160.809C154.816 0.392151 149.942 5.26733 149.942 11.2595V28.8467C149.942 35.0128 153.03 40.4663 157.739 43.7515V48.2452H133.902V12.1216C133.902 5.65338 128.639 0.390625 122.171 0.390625H30.4306C28.8147 0.390625 27.5055 1.70135 27.5055 3.31726C27.5055 4.93317 28.8147 6.24237 30.4306 6.24237H122.171C125.412 6.24237 128.05 8.88062 128.05 12.1216V48.2452H101.53C102.31 46.9818 102.769 45.5002 102.769 43.9102C102.769 42.3798 102.345 40.9515 101.62 39.7202L112.105 26.7181C112.935 26.9974 113.818 27.1545 114.742 27.1545C119.31 27.1545 123.027 23.4375 123.027 18.869C123.027 14.299 119.31 10.582 114.742 10.582C110.172 10.582 106.454 14.299 106.454 18.869C106.454 20.3796 106.866 21.7911 107.576 23.0133L97.0688 36.0413C96.254 35.7727 95.3857 35.6232 94.4824 35.6232C93.3456 35.6232 92.2607 35.8536 91.2735 36.2701L85.6873 30.3696C86.2183 29.277 86.525 28.0563 86.525 26.7624C86.525 22.1924 82.8064 18.4753 78.2379 18.4753C73.6694 18.4753 69.9509 22.1924 69.9509 26.7624C69.9509 28.273 70.3644 29.686 71.0739 30.9067L64.2242 39.3005C63.3957 39.0213 62.5122 38.8641 61.5921 38.8641C59.5123 38.8641 57.6141 39.6393 56.1569 40.9103L48.4604 36.7767C48.5062 36.4197 48.5397 36.0596 48.5397 35.6903C48.5397 31.1203 44.8212 27.4033 40.2527 27.4033C35.6842 27.4033 31.9656 31.1203 31.9656 35.6903C31.9656 36.8073 32.1915 37.8708 32.5928 38.8443L24.2691 46.6309C23.1644 46.0846 21.9254 45.7687 20.6116 45.7687C16.0416 45.7687 12.3245 49.4858 12.3245 54.0558C12.3245 58.6243 16.0416 62.3413 20.6116 62.3413C25.1801 62.3413 28.8971 58.6243 28.8971 54.0558C28.8971 52.9388 28.6728 51.8753 28.27 50.9018L36.5952 43.1137C37.6999 43.6615 38.9389 43.9758 40.2527 43.9758C42.3325 43.9758 44.2307 43.2007 45.6879 41.9312L53.3844 46.0648C53.3371 46.4203 53.3051 46.7819 53.3051 47.1512C53.3051 51.7197 57.0221 55.4382 61.5921 55.4382C66.1606 55.4382 69.8776 51.7197 69.8776 47.1512C69.8776 45.639 69.4641 44.2261 68.7546 43.0038L75.6027 34.6115C76.4313 34.8907 77.3163 35.0494 78.2364 35.0494C79.3732 35.0494 80.4581 34.8175 81.4453 34.4025L87.0331 40.3046C86.5021 41.3956 86.1954 42.6163 86.1954 43.9102C86.1954 47.2076 88.1363 50.0534 90.9302 51.387V58.6548C90.9302 64.2807 95.5093 68.8568 101.137 68.8568H145.929V108.211C140.125 110.248 136.075 115.823 136.075 122.101V137.663C136.075 144.221 139.311 150.208 144.626 153.693V158.658H142.438C134.978 158.658 128.438 162.663 124.847 168.636C121.259 162.663 114.719 158.658 107.259 158.658H105.07V153.673C110.385 150.114 113.622 144.133 113.622 137.665V122.101C113.622 118.774 112.511 115.704 110.643 113.237H122.169C128.639 113.237 133.9 107.974 133.9 101.506V80.6046C133.9 78.9886 132.591 77.6794 130.975 77.6794C129.359 77.6794 128.049 78.9886 128.049 80.6046V101.506C128.049 104.747 125.412 107.385 122.169 107.385H98.9182C98.9136 107.385 98.9075 107.385 98.9029 107.385H89.8239C89.8193 107.385 89.8132 107.385 89.8087 107.385H37.9623C37.9562 107.385 37.9517 107.385 37.9471 107.385H28.8666C28.862 107.385 28.8574 107.385 28.8513 107.385H11.731C8.48999 107.385 5.85175 104.747 5.85175 101.506V12.1216C5.85175 8.88062 8.48999 6.24237 11.731 6.24237H17.9428C19.5587 6.24237 20.8694 4.93317 20.8694 3.31726C20.8694 1.70135 19.5587 0.390625 17.9428 0.390625H11.731C5.26276 0.390625 0 5.65338 0 12.1216V101.505C0 107.974 5.26276 113.237 11.731 113.237H17.128C15.2603 115.704 14.1495 118.776 14.1495 122.102V125.459C14.1495 125.479 14.151 125.499 14.151 125.519V137.663C14.151 144.131 17.3874 150.114 22.702 153.673V158.656H20.5139C9.20258 158.656 0 167.859 0 179.17V190.312C0 194.295 3.24097 197.534 7.22504 197.534H59.5871C61.1984 197.534 62.6831 196.999 63.8855 196.104C65.0879 196.999 66.5726 197.534 68.1824 197.534H120.547C122.16 197.534 123.645 196.997 124.849 196.1C126.051 196.997 127.538 197.534 129.149 197.534H181.516C185.497 197.534 188.736 194.295 188.736 190.312V179.17C188.736 174.73 187.286 170.404 184.636 166.869V135.382C184.636 133.766 183.327 132.457 181.709 132.457C180.093 132.457 178.784 133.766 178.784 135.382V161.581C175.633 159.688 171.997 158.656 168.227 158.656H166.039V153.665C166.165 153.581 166.293 153.5 166.417 153.413C171.535 149.805 174.59 143.916 174.59 137.663V125.475C174.59 125.468 174.59 125.464 174.59 125.459V122.101C174.59 118.748 173.46 115.656 171.565 113.177H178.784V121.727C178.784 123.343 180.093 124.654 181.711 124.654C183.327 124.654 184.636 123.344 184.636 121.727V113.177H185.034C193.286 113.177 200 106.464 200 98.2117V63.5742C200 55.1224 193.124 48.2452 184.671 48.2452ZM155.794 11.2595C155.794 8.49304 158.044 6.2439 160.809 6.2439H175.41C178.175 6.2439 180.426 8.49457 180.426 11.2595V15.8554C178.925 15.0711 177.217 14.6271 175.41 14.6271H166.643V14.4058C166.643 12.7899 165.334 11.4807 163.716 11.4807C162.1 11.4807 160.791 12.7899 160.791 14.4058V14.6271C158.99 14.6301 157.291 15.0742 155.794 15.8554V11.2595ZM155.794 25.4944C155.794 22.7295 158.044 20.4788 160.809 20.4788H175.41C178.175 20.4788 180.426 22.7295 180.426 25.4944V28.8467C180.426 35.6384 174.901 41.1636 168.109 41.1636C161.319 41.1636 155.794 35.6384 155.794 28.8467V25.4944ZM168.109 47.0154C169.537 47.0154 170.926 46.8445 172.261 46.5302V51.0223C172.26 51.059 172.258 51.0956 172.258 51.1307C172.224 53.4836 170.282 55.397 167.926 55.397C165.57 55.397 163.628 53.4836 163.596 51.1322C163.596 51.0956 163.594 51.059 163.593 51.0223V46.4462C165.036 46.817 166.55 47.0154 168.109 47.0154ZM114.74 16.4337C116.083 16.4337 117.175 17.5262 117.175 18.869C117.175 20.2118 116.083 21.3028 114.74 21.3028C114.16 21.3028 113.628 21.0983 113.208 20.7581C113.197 20.7489 113.188 20.7382 113.176 20.7291C113.173 20.7275 113.168 20.7245 113.165 20.7214C112.64 20.2744 112.306 19.6106 112.306 18.869C112.306 17.5262 113.399 16.4337 114.74 16.4337ZM95.9885 41.9998L96.0068 42.0181C96.0159 42.0258 96.0251 42.0288 96.0342 42.0364C96.5729 42.4835 96.9162 43.1564 96.9162 43.9102C96.9162 45.253 95.8237 46.344 94.4809 46.344C93.1396 46.344 92.0471 45.253 92.0471 43.9102C92.0471 42.5674 93.1396 41.4749 94.4809 41.4749C95.05 41.4749 95.5734 41.6733 95.9885 41.9998ZM20.61 56.4896C19.2688 56.4896 18.1763 55.397 18.1763 54.0543C18.1763 52.7115 19.2673 51.6205 20.61 51.6205C21.9528 51.6205 23.0453 52.7115 23.0453 54.0543C23.0453 55.397 21.9528 56.4896 20.61 56.4896ZM40.2527 38.1241C38.9099 38.1241 37.8174 37.0316 37.8174 35.6888C37.8174 34.3475 38.9099 33.255 40.2527 33.255C41.5939 33.255 42.6865 34.3475 42.6865 35.6888C42.6865 37.0316 41.5939 38.1241 40.2527 38.1241ZM61.5921 49.585C60.2493 49.585 59.1568 48.4924 59.1568 47.1497C59.1568 45.8084 60.2493 44.7159 61.5921 44.7159C62.9333 44.7159 64.0259 45.8084 64.0259 47.1497C64.0259 48.4924 62.9333 49.585 61.5921 49.585ZM75.8026 26.7609C75.8026 25.4181 76.8951 24.3271 78.2379 24.3271C79.5807 24.3271 80.6717 25.4181 80.6717 26.7609C80.6717 28.1036 79.5807 29.1962 78.2379 29.1962C76.8951 29.1962 75.8026 28.1036 75.8026 26.7609ZM141.927 122.099C141.927 117.947 144.865 114.304 148.926 113.434C149.527 113.303 150.154 113.235 150.79 113.235H159.869C164.76 113.235 168.738 117.212 168.738 122.099V125.475C168.729 132.858 162.72 138.864 155.333 138.864C147.94 138.864 141.927 132.851 141.927 125.459V122.099ZM81.4697 158.656C74.0143 158.656 67.4774 162.657 63.8855 168.625C60.2951 162.657 53.7552 158.656 46.2982 158.656H44.1132V153.671C49.4293 150.113 52.6657 144.131 52.6657 137.663V122.099C52.6657 118.774 51.5549 115.703 49.6872 113.235H78.0853C77.0889 114.552 76.3077 116.04 75.7965 117.648C75.3494 119.054 75.1068 120.549 75.1068 122.101V125.459V125.475V137.663C75.1068 144.131 78.3432 150.114 83.6594 153.673V158.656H81.4697ZM28.5553 152.04C28.5553 152.023 28.5538 152.007 28.5538 151.99C28.5522 151.891 28.5477 151.805 28.54 151.732C28.4439 150.803 27.9083 149.936 27.0264 149.457C23.2025 147.38 20.6604 143.614 20.1157 139.375C23.5748 142.68 28.2562 144.717 33.4076 144.717C38.5605 144.717 43.2419 142.679 46.701 139.372C46.1578 143.613 43.6157 147.379 39.7919 149.457C38.8123 149.989 38.2584 150.998 38.2614 152.04V161.583C38.2614 162.462 37.5458 163.179 36.6669 163.179H30.1514C29.2709 163.179 28.5553 162.462 28.5553 161.583V152.04ZM20.0027 122.099C20.0027 117.212 23.9792 113.235 28.8666 113.235H37.9456C39.5721 113.235 41.0965 113.678 42.4088 114.444C45.0394 115.984 46.8124 118.839 46.8124 122.101V125.459C46.8124 132.851 40.799 138.864 33.4076 138.864C26.0361 138.864 20.0363 132.883 20.0043 125.519V122.099H20.0027ZM80.9601 122.099C80.9601 121.184 81.0989 120.299 81.3583 119.467C81.3858 119.38 81.4163 119.295 81.4453 119.209C81.4636 119.159 81.4789 119.107 81.4987 119.057C82.3944 116.614 84.3369 114.671 86.7798 113.774C86.8301 113.756 86.882 113.741 86.9339 113.722C87.0193 113.693 87.1033 113.663 87.1902 113.635C88.0234 113.376 88.9069 113.237 89.8239 113.237H98.9059C99.5178 113.237 100.113 113.298 100.69 113.417C100.761 113.432 100.833 113.449 100.903 113.466C100.975 113.483 101.047 113.498 101.117 113.516C104.939 114.5 107.77 117.978 107.77 122.102V125.459C107.77 132.851 101.756 138.864 94.3649 138.864C86.9781 138.864 80.9677 132.86 80.9601 125.475V122.099ZM89.5111 152.04C89.5111 152.032 89.5111 152.025 89.5111 152.019C89.5111 151.811 89.4989 151.671 89.4745 151.582C89.3387 150.711 88.8168 149.91 87.9822 149.457C84.1583 147.38 81.6162 143.614 81.0715 139.374C84.5306 142.68 89.2136 144.717 94.3649 144.717C99.5163 144.717 104.198 142.68 107.657 139.374C107.114 143.614 104.572 147.38 100.748 149.457C99.8505 149.944 99.3118 150.832 99.2294 151.776C99.2218 151.843 99.2188 151.923 99.2172 152.016V152.04V161.583C99.2172 162.463 98.5016 163.179 97.6212 163.179H91.1057C90.2267 163.179 89.5111 162.463 89.5111 161.583V152.04ZM59.5871 191.682H50.5615V185.196C50.5615 183.58 49.2523 182.271 47.6349 182.271C46.019 182.271 44.7098 183.58 44.7098 185.196V191.682H22.316V185.196C22.316 183.58 21.0068 182.271 19.3893 182.271C17.7734 182.271 16.4642 183.58 16.4642 185.196V191.682H7.22504C6.4682 191.682 5.85175 191.069 5.85175 190.314V179.172C5.85175 171.086 12.4298 164.51 20.5139 164.51H23.3032C24.4431 167.165 27.0813 169.031 30.1498 169.031H36.6653C39.7339 169.031 42.3737 167.166 43.5135 164.51H46.2982C54.3823 164.51 60.9604 171.086 60.9604 179.172V190.314C60.9604 191.068 60.3439 191.682 59.5871 191.682ZM121.916 190.312C121.916 191.068 121.303 191.682 120.547 191.682H111.519V185.196C111.519 183.58 110.21 182.269 108.592 182.269C106.976 182.269 105.667 183.58 105.667 185.196V191.682H83.2733V185.196C83.2733 183.58 81.9641 182.269 80.3467 182.269C78.7308 182.269 77.4216 183.58 77.4216 185.196V191.682H68.1824C67.4271 191.682 66.8121 191.068 66.8121 190.312V179.17C66.8121 171.086 73.3871 164.51 81.4697 164.51H84.259C85.3989 167.165 88.0386 169.031 91.1072 169.031H97.6227C100.691 169.031 103.329 167.165 104.469 164.51H107.259C115.341 164.51 121.916 171.086 121.916 179.17V190.312ZM179.468 169.759C181.671 172.389 182.884 175.731 182.884 179.17V190.312C182.884 191.068 182.271 191.681 181.516 191.681H172.487V185.196C172.487 183.58 171.178 182.269 169.56 182.269C167.944 182.269 166.635 183.58 166.635 185.196V191.681H144.241V185.196C144.241 183.58 142.931 182.269 141.315 182.269C139.699 182.269 138.388 183.58 138.388 185.196V191.681H129.149C128.395 191.681 127.78 191.068 127.78 190.312V179.17C127.78 171.086 134.355 164.508 142.438 164.508H145.23C145.325 164.728 145.425 164.946 145.54 165.157C146.848 167.546 149.353 169.031 152.074 169.031H158.589C161.658 169.031 164.297 167.165 165.437 164.508H168.227C172.574 164.51 176.672 166.422 179.468 169.759ZM163.051 148.625C162.672 148.892 162.274 149.142 161.871 149.37C161.079 149.815 160.5 150.589 160.283 151.431C160.219 151.505 160.185 151.657 160.185 151.918V161.583C160.185 162.462 159.47 163.179 158.589 163.179H152.074C151.491 163.179 150.954 162.86 150.676 162.352C150.645 162.296 150.618 162.238 150.595 162.18C150.635 161.987 150.656 161.787 150.656 161.583C150.656 161.232 150.592 160.898 150.479 160.587V152.025C150.479 152.02 150.479 152.017 150.479 152.013C150.479 151.978 150.476 151.942 150.475 151.906C150.473 151.837 150.468 151.77 150.462 151.714C150.459 151.683 150.453 151.651 150.449 151.62C150.444 151.598 150.443 151.569 150.436 151.549C150.291 150.674 149.757 149.876 148.914 149.434C145.036 147.398 142.549 143.709 142.032 139.366C145.493 142.677 150.177 144.717 155.333 144.717C160.484 144.717 165.166 142.68 168.625 139.374C168.147 143.073 166.139 146.448 163.051 148.625ZM194.148 98.2117C194.148 103.236 190.059 107.326 185.034 107.326H184.634V73.2101C184.634 71.5942 183.325 70.2835 181.709 70.2835C180.092 70.2835 178.783 71.5942 178.783 73.2101V107.326H151.782V67.0624C151.782 64.8254 149.962 63.0051 147.725 63.0051H101.137C98.7366 63.0051 96.7834 61.0535 96.7834 58.6548V54.097H158.209C159.509 58.2291 163.391 61.2488 167.926 61.2488C172.461 61.2488 176.343 58.2291 177.643 54.097H184.673C189.897 54.097 194.148 58.3481 194.148 63.5742V98.2117Z"
            data-stroke="white" stroke="white" fill="none" data-fill="black" />
    </g>
    <defs>
        <clipPath id="clip0_258_1840">
            <rect width="200" height="200" data-stroke="white" stroke="white" fill="none" data-fill="white" />
        </clipPath>
    </defs>
</svg>
