<svg width="200" height="200" viewBox="0 0 200 200" data-stroke="white" stroke="white" fill="none" data-fill="none"
    xmlns="http://www.w3.org/2000/svg">
    <path
        d="M137.5 178.125V184.375H56.25V178.125C56.2549 176.469 56.915 174.882 58.086 173.711C59.2571 172.54 60.8439 171.88 62.5 171.875H131.25C132.906 171.88 134.493 172.54 135.664 173.711C136.835 174.882 137.495 176.469 137.5 178.125Z"
        data-stroke="white" stroke="white" fill="none" data-fill="#DEDEDE" />
    <path d="M128.125 159.375L131.25 171.875H62.5L65.625 159.375H128.125Z" data-stroke="white" stroke="white"
        fill="none" data-fill="#969696" />
    <path
        d="M15.625 159.375C12.3098 159.375 9.13037 158.058 6.78617 155.714C4.44196 153.37 3.125 150.19 3.125 146.875V134.375H196.875V146.875C196.875 150.19 195.558 153.37 193.214 155.714C190.87 158.058 187.69 159.375 184.375 159.375H15.625Z"
        data-stroke="white" stroke="white" fill="none" data-fill="#B5B5B5" />
    <path
        d="M196.875 15.625V134.375H3.125V15.625C3.125 12.3098 4.44196 9.13037 6.78617 6.78617C9.13037 4.44196 12.3098 3.125 15.625 3.125H184.375C187.69 3.125 190.87 4.44196 193.214 6.78617C195.558 9.13037 196.875 12.3098 196.875 15.625Z"
        data-stroke="white" stroke="white" fill="none" data-fill="#F2F2F2" />
    <path
        d="M81.6344 162.5H128.906L128.125 159.375H65.625L62.5 171.875H69.5406C70.233 169.193 71.7964 166.818 73.9854 165.121C76.1743 163.424 78.8648 162.502 81.6344 162.5Z"
        data-stroke="white" stroke="white" fill="none" data-fill="#808080" />
    <path
        d="M66.2 171.875H62.5C60.8439 171.88 59.2571 172.54 58.086 173.711C56.915 174.882 56.2549 176.469 56.25 178.125V184.375H137.5V178.125H75C73.0668 178.122 71.1824 177.519 69.6063 176.399C68.0302 175.28 66.8401 173.699 66.2 171.875Z"
        data-stroke="white" stroke="white" fill="none" data-fill="#B5B5B5" />
    <path
        d="M190.625 134.375V146.875C190.625 148.533 189.967 150.122 188.794 151.294C187.622 152.467 186.033 153.125 184.375 153.125H15.625C13.9674 153.125 12.3777 152.467 11.2056 151.294C10.0335 150.122 9.375 148.533 9.375 146.875V134.375H3.125V146.875C3.125 150.19 4.44196 153.37 6.78617 155.714C9.13037 158.058 12.3098 159.375 15.625 159.375H184.375C187.69 159.375 190.87 158.058 193.214 155.714C195.558 153.37 196.875 150.19 196.875 146.875V134.375H190.625Z"
        data-stroke="white" stroke="white" fill="none" data-fill="#A3A3A3" />
    <path
        d="M184.375 3.125H15.625C12.3098 3.125 9.13037 4.44196 6.78617 6.78617C4.44196 9.13037 3.125 12.3098 3.125 15.625V134.375H9.375V15.625C9.375 13.9674 10.0335 12.3777 11.2056 11.2056C12.3777 10.0335 13.9674 9.375 15.625 9.375H184.375C186.033 9.375 187.622 10.0335 188.794 11.2056C189.967 12.3777 190.625 13.9674 190.625 15.625V134.375H196.875V15.625C196.875 12.3098 195.558 9.13037 193.214 6.78617C190.87 4.44196 187.69 3.125 184.375 3.125Z"
        data-stroke="white" stroke="white" fill="none" data-fill="#DEDEDE" />
    <path
        d="M184.375 9.375H21.875C21.875 71.5625 97.35 121.875 190.625 121.875V15.625C190.625 13.9674 189.967 12.3777 188.794 11.2056C187.622 10.0335 186.033 9.375 184.375 9.375Z"
        data-stroke="white" stroke="white" fill="none" data-fill="white" />
    <path
        d="M15.625 150C17.3509 150 18.75 148.601 18.75 146.875C18.75 145.149 17.3509 143.75 15.625 143.75C13.8991 143.75 12.5 145.149 12.5 146.875C12.5 148.601 13.8991 150 15.625 150Z"
        data-stroke="white" stroke="white" fill="none" data-fill="#808080" />
    <path
        d="M15.625 146.875C15.0856 146.869 14.5571 146.722 14.0926 146.448C13.628 146.174 13.2437 145.782 12.9781 145.312C12.6797 145.78 12.5145 146.32 12.5 146.875C12.5 147.704 12.8292 148.499 13.4153 149.085C14.0013 149.671 14.7962 150 15.625 150C16.4538 150 17.2487 149.671 17.8347 149.085C18.4208 148.499 18.75 147.704 18.75 146.875C18.7355 146.32 18.5703 145.78 18.2719 145.312C18.0063 145.782 17.622 146.174 17.1574 146.448C16.6929 146.722 16.1644 146.869 15.625 146.875Z"
        data-stroke="white" stroke="white" fill="none" data-fill="#696969" />
    <path
        d="M15.625 150C15.0856 149.994 14.5571 149.847 14.0926 149.573C13.628 149.299 13.2437 148.907 12.9781 148.438C12.6797 148.905 12.5145 149.445 12.5 150C12.5 150.829 12.8292 151.624 13.4153 152.21C14.0013 152.796 14.7962 153.125 15.625 153.125C16.4538 153.125 17.2487 152.796 17.8347 152.21C18.4208 151.624 18.75 150.829 18.75 150C18.7355 149.445 18.5703 148.905 18.2719 148.438C18.0063 148.907 17.622 149.299 17.1574 149.573C16.6929 149.847 16.1644 149.994 15.625 150Z"
        data-stroke="white" stroke="white" fill="none" data-fill="#A3A3A3" />
    <path
        d="M40.625 143.75H28.125C26.3991 143.75 25 145.149 25 146.875C25 148.601 26.3991 150 28.125 150H40.625C42.3509 150 43.75 148.601 43.75 146.875C43.75 145.149 42.3509 143.75 40.625 143.75Z"
        data-stroke="white" stroke="white" fill="none" data-fill="#808080" />
    <path
        d="M40.625 146.875H28.125C27.5856 146.869 27.0573 146.722 26.5928 146.447C26.1283 146.173 25.744 145.782 25.4781 145.312C25.1797 145.78 25.0145 146.32 25 146.875C25 147.704 25.3292 148.499 25.9153 149.085C26.5013 149.671 27.2962 150 28.125 150H40.625C41.4538 150 42.2487 149.671 42.8347 149.085C43.4208 148.499 43.75 147.704 43.75 146.875C43.7355 146.32 43.5703 145.78 43.2719 145.312C43.006 145.782 42.6217 146.173 42.1572 146.447C41.6927 146.722 41.1644 146.869 40.625 146.875Z"
        data-stroke="white" stroke="white" fill="none" data-fill="#696969" />
    <path
        d="M40.625 150H28.125C27.5856 149.994 27.0573 149.847 26.5928 149.572C26.1283 149.298 25.744 148.907 25.4781 148.438C25.1797 148.905 25.0145 149.445 25 150C25 150.829 25.3292 151.624 25.9153 152.21C26.5013 152.796 27.2962 153.125 28.125 153.125H40.625C41.4538 153.125 42.2487 152.796 42.8347 152.21C43.4208 151.624 43.75 150.829 43.75 150C43.7355 149.445 43.5703 148.905 43.2719 148.438C43.006 148.907 42.6217 149.298 42.1572 149.572C41.6927 149.847 41.1644 149.994 40.625 150Z"
        data-stroke="white" stroke="white" fill="none" data-fill="#A3A3A3" />
    <path
        d="M96.875 178.125H184.375V184.375C184.375 187.69 183.058 190.87 180.714 193.214C178.37 195.558 175.19 196.875 171.875 196.875H109.375C106.06 196.875 102.88 195.558 100.536 193.214C98.192 190.87 96.875 187.69 96.875 184.375V178.125Z"
        data-stroke="white" stroke="white" fill="none" data-fill="#5ACAFA" />
    <path
        d="M184.375 59.375V62.5H162.5C162.5 62.5 162.5 71.875 156.25 71.875H125C118.75 71.875 118.75 62.5 118.75 62.5H96.875V59.375C96.875 56.0598 98.192 52.8804 100.536 50.5362C102.88 48.192 106.06 46.875 109.375 46.875H171.875C175.19 46.875 178.37 48.192 180.714 50.5362C183.058 52.8804 184.375 56.0598 184.375 59.375Z"
        data-stroke="white" stroke="white" fill="none" data-fill="#5ACAFA" />
    <path
        d="M184.375 62.5V178.125H96.875V62.5H118.75C118.75 62.5 118.75 71.875 125 71.875H156.25C162.5 71.875 162.5 62.5 162.5 62.5H184.375Z"
        data-stroke="white" stroke="white" fill="none" data-fill="#DEDEDE" />
    <path d="M125 71.875H156.25C162.5 71.875 162.5 62.5 162.5 62.5H118.75C118.75 62.5 118.75 71.875 125 71.875Z"
        data-stroke="white" stroke="white" fill="none" data-fill="#5ACAFA" />
    <path
        d="M171.875 190.625H109.375C106.06 190.625 102.88 189.308 100.536 186.964C98.192 184.62 96.875 181.44 96.875 178.125V184.375C96.875 187.69 98.192 190.87 100.536 193.214C102.88 195.558 106.06 196.875 109.375 196.875H171.875C175.19 196.875 178.37 195.558 180.714 193.214C183.058 190.87 184.375 187.69 184.375 184.375V178.125C184.375 181.44 183.058 184.62 180.714 186.964C178.37 189.308 175.19 190.625 171.875 190.625Z"
        data-stroke="white" stroke="white" fill="none" data-fill="#1C99EB" />
    <path
        d="M162.5 62.5C162.5 62.5 162.5 71.875 156.25 71.875H125C118.75 71.875 118.75 62.5 118.75 62.5H109.375C109.375 114.319 142.919 156.25 184.375 156.25V62.5H162.5Z"
        data-stroke="white" stroke="white" fill="none" data-fill="#F2F2F2" />
    <path
        d="M109.375 53.125H171.875C174.64 53.1288 177.326 54.0519 179.509 55.7491C181.692 57.4462 183.249 59.8211 183.934 62.5H184.375V59.375C184.375 56.0598 183.058 52.8804 180.714 50.5362C178.37 48.192 175.19 46.875 171.875 46.875H109.375C106.06 46.875 102.88 48.192 100.536 50.5362C98.192 52.8804 96.875 56.0598 96.875 59.375V62.5H97.3156C98.0012 59.8211 99.5581 57.4462 101.741 55.7491C103.924 54.0519 106.61 53.1288 109.375 53.125Z"
        data-stroke="white" stroke="white" fill="none" data-fill="#1C99EB" />
    <path
        d="M140.625 153.125C157.884 153.125 171.875 139.134 171.875 121.875C171.875 104.616 157.884 90.625 140.625 90.625C123.366 90.625 109.375 104.616 109.375 121.875C109.375 139.134 123.366 153.125 140.625 153.125Z"
        data-stroke="white" stroke="white" fill="none" data-fill="#00AAFF" />
    <path d="M118.75 125L134.375 140.625L162.5 112.5L153.125 103.125L134.375 121.875L128.125 115.625L118.75 125Z"
        data-stroke="white" stroke="white" fill="none" data-fill="#F2F2F2" />
    <path
        d="M84.375 56.25V43.75H77.4031C76.7002 40.6654 75.4787 37.7225 73.7906 35.0469L78.725 30.1125L69.8875 21.275L64.9531 26.2094C62.2775 24.5213 59.3346 23.2998 56.25 22.5969V15.625H43.75V22.5969C40.6654 23.2998 37.7225 24.5213 35.0469 26.2094L30.1125 21.275L21.275 30.1125L26.2094 35.0469C24.5213 37.7225 23.2998 40.6654 22.5969 43.75H15.625V56.25H22.5969C23.2998 59.3346 24.5213 62.2775 26.2094 64.9531L21.275 69.8875L30.1125 78.725L35.0469 73.7906C37.7225 75.4787 40.6654 76.7002 43.75 77.4031V84.375H56.25V77.4031C59.3346 76.7002 62.2775 75.4787 64.9531 73.7906L69.8875 78.725L78.725 69.8875L73.7906 64.9531C75.4787 62.2775 76.7002 59.3346 77.4031 56.25H84.375Z"
        data-stroke="white" stroke="white" fill="none" data-fill="#939393" />
    <path
        d="M50 62.5C56.9036 62.5 62.5 56.9036 62.5 50C62.5 43.0964 56.9036 37.5 50 37.5C43.0964 37.5 37.5 43.0964 37.5 50C37.5 56.9036 43.0964 62.5 50 62.5Z"
        data-stroke="white" stroke="white" fill="none" data-fill="white" />
    <path
        d="M50 34.375C46.9097 34.375 43.8887 35.2914 41.3192 37.0083C38.7497 38.7252 36.747 41.1655 35.5644 44.0206C34.3818 46.8757 34.0723 50.0173 34.6752 53.0483C35.2781 56.0792 36.7663 58.8633 38.9515 61.0485C41.1367 63.2337 43.9208 64.7219 46.9517 65.3248C49.9827 65.9277 53.1243 65.6182 55.9794 64.4356C58.8345 63.253 61.2748 61.2503 62.9917 58.6808C64.7086 56.1113 65.625 53.0903 65.625 50C65.625 45.856 63.9788 41.8817 61.0485 38.9515C58.1183 36.0212 54.144 34.375 50 34.375ZM50 62.5C47.5277 62.5 45.111 61.7669 43.0554 60.3934C40.9998 59.0198 39.3976 57.0676 38.4515 54.7835C37.5054 52.4995 37.2579 49.9861 37.7402 47.5614C38.2225 45.1366 39.413 42.9093 41.1612 41.1612C42.9093 39.413 45.1366 38.2225 47.5614 37.7402C49.9861 37.2579 52.4995 37.5054 54.7835 38.4515C57.0676 39.3976 59.0199 40.9998 60.3934 43.0554C61.7669 45.111 62.5 47.5277 62.5 50C62.5 53.3152 61.183 56.4946 58.8388 58.8388C56.4946 61.183 53.3152 62.5 50 62.5Z"
        data-stroke="white" stroke="white" fill="none" data-fill="#696969" />
    <path
        d="M84.375 56.25V43.75H77.4031C76.7002 40.6654 75.4787 37.7225 73.7906 35.0469L78.725 30.1125L69.8875 21.275L64.9531 26.2094C62.2775 24.5213 59.3346 23.2998 56.25 22.5969V15.625H43.75V22.5969C40.6654 23.2998 37.7225 24.5213 35.0469 26.2094L30.1125 21.275L21.275 30.1125L26.2094 35.0469C24.5213 37.7225 23.2998 40.6654 22.5969 43.75H15.625V56.25H22.5969C23.2998 59.3346 24.5213 62.2775 26.2094 64.9531L21.275 69.8875L30.1125 78.725L35.0469 73.7906C37.7225 75.4787 40.6654 76.7002 43.75 77.4031V84.375H56.25V77.4031C59.3346 76.7002 62.2775 75.4787 64.9531 73.7906L69.8875 78.725L78.725 69.8875L73.7906 64.9531C75.4787 62.2775 76.7002 59.3346 77.4031 56.25H84.375ZM73.5031 66.2719L66.2719 73.5031L62.2344 69.4656C60.0446 70.8465 57.6365 71.846 55.1125 72.4219V78.125H44.8875V72.4219C42.3635 71.846 39.9554 70.8465 37.7656 69.4656L33.7281 73.5031L26.4969 66.2719L30.5344 62.2344C29.1535 60.0446 28.154 57.6365 27.5781 55.1125H21.875V44.8875H27.5781C28.154 42.3635 29.1535 39.9554 30.5344 37.7656L26.4969 33.7281L33.7281 26.4969L37.7656 30.5344C39.9554 29.1535 42.3635 28.154 44.8875 27.5781V21.875H55.1125V27.5781C57.6365 28.154 60.0446 29.1535 62.2344 30.5344L66.2719 26.4969L73.5031 33.7281L69.4656 37.7656C70.8465 39.9554 71.846 42.3635 72.4219 44.8875H78.125V55.1125H72.4219C71.846 57.6365 70.8465 60.0446 69.4656 62.2344L73.5031 66.2719Z"
        data-stroke="white" stroke="white" fill="none" data-fill="#B5B5B5" />
    <path
        d="M71.875 121.875C71.875 118.56 73.192 115.38 75.5362 113.036C77.8804 110.692 81.0598 109.375 84.375 109.375C87.6902 109.375 90.8696 110.692 93.2138 113.036C95.558 115.38 96.875 118.56 96.875 121.875V96.7219C94.8891 95.7247 92.7908 94.9693 90.625 94.4719V87.5H78.125V94.4719C75.0404 95.1748 72.0975 96.3963 69.4219 98.0844L64.4875 93.15L55.65 101.988L60.5844 106.922C58.8963 109.598 57.6748 112.54 56.9719 115.625H50V128.125H56.9719C57.4693 130.291 58.2247 132.389 59.2219 134.375H84.375C81.0598 134.375 77.8804 133.058 75.5362 130.714C73.192 128.37 71.875 125.19 71.875 121.875Z"
        data-stroke="white" stroke="white" fill="none" data-fill="#8E8D92" />
    <path
        d="M84.375 134.375H96.875V121.875C96.875 125.19 95.558 128.37 93.2138 130.714C90.8696 133.058 87.6902 134.375 84.375 134.375Z"
        data-stroke="white" stroke="white" fill="none" data-fill="#8E8D92" />
    <path
        d="M168.75 12.5H134.375C132.649 12.5 131.25 13.8991 131.25 15.625C131.25 17.3509 132.649 18.75 134.375 18.75H168.75C170.476 18.75 171.875 17.3509 171.875 15.625C171.875 13.8991 170.476 12.5 168.75 12.5Z"
        data-stroke="white" stroke="white" fill="none" data-fill="#939393" />
    <path
        d="M181.25 12.5H178.125C176.399 12.5 175 13.8991 175 15.625C175 17.3509 176.399 18.75 178.125 18.75H181.25C182.976 18.75 184.375 17.3509 184.375 15.625C184.375 13.8991 182.976 12.5 181.25 12.5Z"
        data-stroke="white" stroke="white" fill="none" data-fill="#939393" />
    <path
        d="M141.759 133.241L134.375 140.625L118.75 125L123.75 120.016C119.764 113.909 118.086 106.582 119.016 99.35C115.403 102.814 112.676 107.095 111.063 111.834C109.451 116.572 109.001 121.629 109.751 126.577C110.502 131.526 112.43 136.221 115.374 140.269C118.319 144.317 122.193 147.597 126.67 149.835C131.147 152.072 136.096 153.201 141.101 153.126C146.105 153.051 151.018 151.775 155.427 149.404C159.835 147.033 163.609 143.638 166.43 139.504C169.252 135.37 171.039 130.619 171.641 125.65C167.757 129.41 162.957 132.088 157.718 133.42C152.479 134.751 146.983 134.69 141.775 133.241H141.759Z"
        data-stroke="white" stroke="white" fill="none" data-fill="#007AFF" />
    <path d="M134.375 140.625L141.759 133.241C134.333 131.2 127.92 126.491 123.75 120.016L118.75 125L134.375 140.625Z"
        data-stroke="white" stroke="white" fill="none" data-fill="#DEDEDE" />
    <path
        d="M150 184.375H131.25C129.524 184.375 128.125 185.774 128.125 187.5C128.125 189.226 129.524 190.625 131.25 190.625H150C151.726 190.625 153.125 189.226 153.125 187.5C153.125 185.774 151.726 184.375 150 184.375Z"
        data-stroke="white" stroke="white" fill="none" data-fill="#454545" />
    <path
        d="M150 190.625H131.25C130.711 190.619 130.182 190.472 129.718 190.197C129.253 189.923 128.869 189.532 128.603 189.062C128.305 189.53 128.139 190.07 128.125 190.625C128.125 191.454 128.454 192.249 129.04 192.835C129.626 193.421 130.421 193.75 131.25 193.75H150C150.829 193.75 151.624 193.421 152.21 192.835C152.796 192.249 153.125 191.454 153.125 190.625C153.111 190.07 152.945 189.53 152.647 189.062C152.381 189.532 151.997 189.923 151.532 190.197C151.068 190.472 150.539 190.619 150 190.625Z"
        data-stroke="white" stroke="white" fill="none" data-fill="#177BBD" />
    <path
        d="M150 56.25H131.25C129.524 56.25 128.125 57.6491 128.125 59.375C128.125 61.1009 129.524 62.5 131.25 62.5H150C151.726 62.5 153.125 61.1009 153.125 59.375C153.125 57.6491 151.726 56.25 150 56.25Z"
        data-stroke="white" stroke="white" fill="none" data-fill="#454545" />
    <path
        d="M150 62.5H131.25C130.711 62.494 130.182 62.3466 129.718 62.0724C129.253 61.7982 128.869 61.4068 128.603 60.9375C128.305 61.4052 128.139 61.9454 128.125 62.5C128.125 63.3288 128.454 64.1237 129.04 64.7097C129.626 65.2958 130.421 65.625 131.25 65.625H150C150.829 65.625 151.624 65.2958 152.21 64.7097C152.796 64.1237 153.125 63.3288 153.125 62.5C153.111 61.9454 152.945 61.4052 152.647 60.9375C152.381 61.4068 151.997 61.7982 151.532 62.0724C151.068 62.3466 150.539 62.494 150 62.5Z"
        data-stroke="white" stroke="white" fill="none" data-fill="#1A8FDB" />
    <path
        d="M150 59.375H131.25C130.711 59.369 130.182 59.2216 129.718 58.9474C129.253 58.6732 128.869 58.2818 128.603 57.8125C128.305 58.2802 128.139 58.8204 128.125 59.375C128.125 60.2038 128.454 60.9987 129.04 61.5847C129.626 62.1708 130.421 62.5 131.25 62.5H150C150.829 62.5 151.624 62.1708 152.21 61.5847C152.796 60.9987 153.125 60.2038 153.125 59.375C153.111 58.8204 152.945 58.2802 152.647 57.8125C152.381 58.2818 151.997 58.6732 151.532 58.9474C151.068 59.2216 150.539 59.369 150 59.375Z"
        data-stroke="white" stroke="white" fill="none" data-fill="#333333" />
    <path
        d="M150 187.5H131.25C130.711 187.494 130.182 187.347 129.718 187.072C129.253 186.798 128.869 186.407 128.603 185.938C128.305 186.405 128.139 186.945 128.125 187.5C128.125 188.329 128.454 189.124 129.04 189.71C129.626 190.296 130.421 190.625 131.25 190.625H150C150.829 190.625 151.624 190.296 152.21 189.71C152.796 189.124 153.125 188.329 153.125 187.5C153.111 186.945 152.945 186.405 152.647 185.938C152.381 186.407 151.997 186.798 151.532 187.072C151.068 187.347 150.539 187.494 150 187.5Z"
        data-stroke="white" stroke="white" fill="none" data-fill="#333333" />
    <path d="M84.375 171.875H96.875V178.125H84.375V171.875Z" data-stroke="white" stroke="white" fill="none"
        data-fill="#B5B5B5" />
    <path d="M84.375 162.5H96.875V171.875H84.375V162.5Z" data-stroke="white" stroke="white" fill="none"
        data-fill="#706F73" />
    <path d="M84.375 134.375H96.875V153.125H84.375V134.375Z" data-stroke="white" stroke="white" fill="none"
        data-fill="#706F73" />
    <path d="M84.375 159.375H96.875V162.5H84.375V159.375Z" data-stroke="white" stroke="white" fill="none"
        data-fill="#454547" />
    <path d="M84.375 178.125H96.875V184.375H84.375V178.125Z" data-stroke="white" stroke="white" fill="none"
        data-fill="#808080" />
    <path d="M84.375 153.125H96.875V159.375H84.375V153.125Z" data-stroke="white" stroke="white" fill="none"
        data-fill="#5C5B5E" />
    <path
        d="M90.625 94.4719C92.7908 94.9693 94.8891 95.7247 96.875 96.7219V59.375C96.8868 57.1749 97.4844 55.0176 98.6063 53.125H96.875C93.5598 53.125 90.3804 54.442 88.0362 56.7862C85.692 59.1304 84.375 62.3098 84.375 65.625V87.5H90.625V94.4719Z"
        data-stroke="white" stroke="white" fill="none" data-fill="#F2F2F2" />
    <path
        d="M96.875 121.875C96.875 118.56 95.558 115.38 93.2138 113.036C90.8696 110.692 87.6902 109.375 84.375 109.375V134.375C87.6902 134.375 90.8696 133.058 93.2138 130.714C95.558 128.37 96.875 125.19 96.875 121.875Z"
        data-stroke="white" stroke="white" fill="none" data-fill="#CFCFCF" />
    <path
        d="M84.375 96.7906V109.375C87.6902 109.375 90.8696 110.692 93.2138 113.036C95.558 115.38 96.875 118.56 96.875 121.875V102.947C92.5604 101.022 88.3938 98.9698 84.375 96.7906Z"
        data-stroke="white" stroke="white" fill="none" data-fill="#5C5B5E" />
    <path
        d="M96.875 102.947V96.7219C94.8891 95.7247 92.7908 94.9693 90.625 94.4719V87.5H84.375V96.7906C88.3979 98.9635 92.5646 101.016 96.875 102.947Z"
        data-stroke="white" stroke="white" fill="none" data-fill="#706F73" />
    <path
        d="M96.875 121.875C96.875 125.19 95.558 128.37 93.2138 130.714C90.8696 133.058 87.6902 134.375 84.375 134.375H96.875V121.875Z"
        data-stroke="white" stroke="white" fill="none" data-fill="#666569" />
</svg>
