<svg viewBox="0 0 28 28" fill="none" xmlns="http://www.w3.org/2000/svg">
    <path
        d="M12.25 22.75H2.1875C1.60755 22.7493 1.05156 22.5186 0.641471 22.1085C0.231386 21.6984 0.000694688 21.1424 0 20.5625L0 2.1875C0.000694688 1.60755 0.231386 1.05156 0.641471 0.641471C1.05156 0.231386 1.60755 0.000694688 2.1875 0L3.0625 0V0.875H2.1875C1.8394 0.875 1.50556 1.01328 1.25942 1.25942C1.01328 1.50556 0.875 1.8394 0.875 2.1875V20.5625C0.875 20.9106 1.01328 21.2444 1.25942 21.4906C1.50556 21.7367 1.8394 21.875 2.1875 21.875H12.25V22.75Z"
        fill="currentColor" />
    <path d="M3.9375 0H4.81294V0.875H3.9375V0Z" fill="currentColor" />
    <path
        d="M25.8125 22.75V21.875C26.1606 21.875 26.4944 21.7367 26.7406 21.4906C26.9867 21.2444 27.125 20.9106 27.125 20.5625V2.1875C27.125 1.8394 26.9867 1.50556 26.7406 1.25942C26.4944 1.01328 26.1606 0.875 25.8125 0.875H5.6875V0H25.8125C26.3924 0.000694688 26.9484 0.231386 27.3585 0.641471C27.7686 1.05156 27.9993 1.60755 28 2.1875V20.5625C27.9993 21.1424 27.7686 21.6984 27.3585 22.1085C26.9484 22.5186 26.3924 22.7493 25.8125 22.75Z"
        fill="currentColor" />
    <path d="M8.32593 23.9654L8.76426 22.2157L9.61301 22.4284L9.17468 24.1781L8.32593 23.9654Z" fill="currentColor" />
    <path
        d="M12.25 26.25H7.875C7.75897 26.25 7.64769 26.2039 7.56564 26.1219C7.48359 26.0398 7.4375 25.9285 7.4375 25.8125V24.9375C7.4375 24.5894 7.57578 24.2556 7.82192 24.0094C8.06806 23.7633 8.4019 23.625 8.75 23.625H12.25V24.5H8.75C8.63397 24.5 8.52269 24.5461 8.44064 24.6281C8.35859 24.7102 8.3125 24.8215 8.3125 24.9375V25.375H12.25V26.25Z"
        fill="currentColor" />
    <path d="M0.4375 18.375H12.25V19.25H0.4375V18.375Z" fill="currentColor" />
    <path d="M1.75 20.125H2.625V21H1.75V20.125Z" fill="currentColor" />
    <path d="M3.5 20.125H6.125V21H3.5V20.125Z" fill="currentColor" />
    <path
        d="M24.0625 28H15.3125C14.7326 27.9993 14.1766 27.7686 13.7665 27.3585C13.3564 26.9484 13.1257 26.3924 13.125 25.8125V8.3125C13.1257 7.73255 13.3564 7.17656 13.7665 6.76647C14.1766 6.35639 14.7326 6.12569 15.3125 6.125H24.0625C24.6424 6.12569 25.1984 6.35639 25.6085 6.76647C26.0186 7.17656 26.2493 7.73255 26.25 8.3125V25.8125C26.2493 26.3924 26.0186 26.9484 25.6085 27.3585C25.1984 27.7686 24.6424 27.9993 24.0625 28ZM15.3125 7C14.9644 7 14.6306 7.13828 14.3844 7.38442C14.1383 7.63056 14 7.9644 14 8.3125V25.8125C14 26.1606 14.1383 26.4944 14.3844 26.7406C14.6306 26.9867 14.9644 27.125 15.3125 27.125H24.0625C24.4106 27.125 24.7444 26.9867 24.9906 26.7406C25.2367 26.4944 25.375 26.1606 25.375 25.8125V8.3125C25.375 7.9644 25.2367 7.63056 24.9906 7.38442C24.7444 7.13828 24.4106 7 24.0625 7H15.3125Z"
        fill="currentColor" />
    <path
        d="M21.875 10.5H17.5C16.6801 10.5 16.3367 9.786 16.2282 9.1875H13.5625V8.3125H16.625C16.741 8.3125 16.8523 8.35859 16.9344 8.44064C17.0164 8.52269 17.0625 8.63397 17.0625 8.75C17.0625 8.75744 17.087 9.625 17.5 9.625H21.875C22.288 9.625 22.3125 8.75744 22.3125 8.75C22.3125 8.63397 22.3586 8.52269 22.4406 8.44064C22.5227 8.35859 22.634 8.3125 22.75 8.3125H25.8125V9.1875H23.1468C23.0383 9.786 22.6949 10.5 21.875 10.5Z"
        fill="currentColor" />
    <path d="M17.9375 7.875H21.4375V8.75H17.9375V7.875Z" fill="currentColor" />
    <path d="M17.9375 25.8125H21.4375V26.6875H17.9375V25.8125Z" fill="currentColor" />
    <path d="M13.5625 24.5H25.8125V25.375H13.5625V24.5Z" fill="currentColor" />
    <path
        d="M7.875 12.25H6.125C6.00897 12.25 5.89769 12.2039 5.81564 12.1219C5.73359 12.0398 5.6875 11.9285 5.6875 11.8125V11.1711C5.4432 11.0942 5.20617 10.9958 4.97919 10.8771L4.52506 11.3313C4.44302 11.4133 4.33176 11.4593 4.21575 11.4593C4.09974 11.4593 3.98848 11.4133 3.90644 11.3313L2.66875 10.0936C2.58673 10.0115 2.54066 9.90026 2.54066 9.78425C2.54066 9.66824 2.58673 9.55698 2.66875 9.47494L3.12244 9.02081C3.00392 8.79381 2.90569 8.55679 2.82888 8.3125H2.1875C2.07147 8.3125 1.96019 8.26641 1.87814 8.18436C1.79609 8.10231 1.75 7.99103 1.75 7.875V6.125C1.75 6.00897 1.79609 5.89769 1.87814 5.81564C1.96019 5.73359 2.07147 5.6875 2.1875 5.6875H2.82888C2.90583 5.4432 3.00421 5.20617 3.12287 4.97919L2.66875 4.52506C2.58673 4.44302 2.54066 4.33176 2.54066 4.21575C2.54066 4.09974 2.58673 3.98848 2.66875 3.90644L3.90644 2.66875C3.98848 2.58673 4.09974 2.54066 4.21575 2.54066C4.33176 2.54066 4.44302 2.58673 4.52506 2.66875L4.97919 3.12244C5.20619 3.00392 5.44321 2.90569 5.6875 2.82888V2.1875C5.6875 2.07147 5.73359 1.96019 5.81564 1.87814C5.89769 1.79609 6.00897 1.75 6.125 1.75H7.875C7.99103 1.75 8.10231 1.79609 8.18436 1.87814C8.26641 1.96019 8.3125 2.07147 8.3125 2.1875V2.82888C8.5568 2.90583 8.79383 3.00421 9.02081 3.12287L9.47494 2.66875C9.55698 2.58673 9.66824 2.54066 9.78425 2.54066C9.90026 2.54066 10.0115 2.58673 10.0936 2.66875L11.3313 3.90644C11.4133 3.98848 11.4593 4.09974 11.4593 4.21575C11.4593 4.33176 11.4133 4.44302 11.3313 4.52506L10.8776 4.97919C10.9961 5.20619 11.0943 5.44321 11.1711 5.6875H11.8125C11.9285 5.6875 12.0398 5.73359 12.1219 5.81564C12.2039 5.89769 12.25 6.00897 12.25 6.125V7.875C12.25 7.99103 12.2039 8.10231 12.1219 8.18436C12.0398 8.26641 11.9285 8.3125 11.8125 8.3125H11.1711C11.0942 8.5568 10.9958 8.79383 10.8771 9.02081L11.3313 9.47494C11.4133 9.55698 11.4593 9.66824 11.4593 9.78425C11.4593 9.90026 11.4133 10.0115 11.3313 10.0936L10.0936 11.3313C10.0115 11.4133 9.90026 11.4593 9.78425 11.4593C9.66824 11.4593 9.55698 11.4133 9.47494 11.3313L9.02081 10.8776C8.79381 10.9961 8.55679 11.0943 8.3125 11.1711V11.8125C8.3125 11.9285 8.26641 12.0398 8.18436 12.1219C8.10231 12.2039 7.99103 12.25 7.875 12.25ZM6.5625 11.375H7.4375V10.8369C7.43741 10.7377 7.47104 10.6413 7.53289 10.5638C7.59474 10.4862 7.68113 10.4319 7.77787 10.4099C8.16142 10.3226 8.52729 10.1707 8.85981 9.96056C8.94378 9.90759 9.04327 9.88475 9.14194 9.8958C9.24061 9.90686 9.33258 9.95114 9.40275 10.0214L9.78425 10.4029L10.4029 9.78425L10.0214 9.40275C9.95114 9.33258 9.90686 9.24061 9.8958 9.14194C9.88475 9.04327 9.90759 8.94378 9.96056 8.85981C10.1707 8.52729 10.3226 8.16142 10.4099 7.77787C10.4319 7.68113 10.4862 7.59474 10.5638 7.53289C10.6413 7.47104 10.7377 7.43741 10.8369 7.4375H11.375V6.5625H10.8369C10.7377 6.56259 10.6413 6.52896 10.5638 6.46711C10.4862 6.40526 10.4319 6.31887 10.4099 6.22213C10.3226 5.83858 10.1707 5.4727 9.96056 5.14019C9.90759 5.05622 9.88475 4.95673 9.8958 4.85806C9.90686 4.75939 9.95114 4.66742 10.0214 4.59725L10.4029 4.21575L9.78425 3.59713L9.40275 3.97862C9.33258 4.04886 9.24061 4.09314 9.14194 4.1042C9.04327 4.11525 8.94378 4.09241 8.85981 4.03944C8.52729 3.82932 8.16142 3.67738 7.77787 3.59013C7.68113 3.5681 7.59474 3.51384 7.53289 3.43625C7.47104 3.35866 7.43741 3.26235 7.4375 3.16313V2.625H6.5625V3.16313C6.56259 3.26235 6.52896 3.35866 6.46711 3.43625C6.40526 3.51384 6.31887 3.5681 6.22213 3.59013C5.83858 3.67738 5.4727 3.82932 5.14019 4.03944C5.05622 4.09241 4.95673 4.11525 4.85806 4.1042C4.75939 4.09314 4.66742 4.04886 4.59725 3.97862L4.21575 3.59713L3.59713 4.21575L3.97862 4.59725C4.04886 4.66742 4.09314 4.75939 4.1042 4.85806C4.11525 4.95673 4.09241 5.05622 4.03944 5.14019C3.82932 5.4727 3.67738 5.83858 3.59013 6.22213C3.5681 6.31887 3.51384 6.40526 3.43625 6.46711C3.35866 6.52896 3.26235 6.56259 3.16313 6.5625H2.625V7.4375H3.16313C3.26235 7.43741 3.35866 7.47104 3.43625 7.53289C3.51384 7.59474 3.5681 7.68113 3.59013 7.77787C3.67738 8.16142 3.82932 8.52729 4.03944 8.85981C4.09241 8.94378 4.11525 9.04327 4.1042 9.14194C4.09314 9.24061 4.04886 9.33258 3.97862 9.40275L3.59713 9.78425L4.21575 10.4029L4.59725 10.0214C4.66742 9.95114 4.75939 9.90686 4.85806 9.8958C4.95673 9.88475 5.05622 9.90759 5.14019 9.96056C5.4727 10.1707 5.83858 10.3226 6.22213 10.4099C6.31887 10.4319 6.40526 10.4862 6.46711 10.5638C6.52896 10.6413 6.56259 10.7377 6.5625 10.8369V11.375Z"
        fill="currentColor" />
    <path
        d="M7 9.1875C6.56735 9.1875 6.14442 9.05921 5.78469 8.81884C5.42496 8.57848 5.14458 8.23684 4.97901 7.83712C4.81345 7.43741 4.77013 6.99758 4.85453 6.57324C4.93894 6.14891 5.14728 5.75914 5.4532 5.45321C5.75913 5.14728 6.14891 4.93894 6.57324 4.85454C6.99757 4.77013 7.4374 4.81345 7.83712 4.97902C8.23683 5.14459 8.57847 5.42496 8.81883 5.7847C9.0592 6.14443 9.18749 6.56736 9.18749 7C9.1868 7.57995 8.95611 8.13595 8.54602 8.54603C8.13594 8.95612 7.57994 9.18681 7 9.1875ZM7 5.68751C6.74041 5.68751 6.48665 5.76448 6.27081 5.9087C6.05497 6.05292 5.88675 6.2579 5.78741 6.49773C5.68807 6.73756 5.66208 7.00146 5.71272 7.25606C5.76336 7.51066 5.88837 7.74452 6.07192 7.92808C6.25548 8.11164 6.48934 8.23664 6.74394 8.28728C6.99854 8.33793 7.26244 8.31193 7.50227 8.21259C7.7421 8.11325 7.94708 7.94503 8.0913 7.72919C8.23552 7.51335 8.3125 7.25959 8.3125 7C8.3125 6.65191 8.17422 6.31807 7.92807 6.07193C7.68193 5.82579 7.34809 5.68751 7 5.68751Z"
        fill="currentColor" />
    <path
        d="M7.4375 17.9375H6.5625V16.1875C6.5625 16.0715 6.60859 15.9602 6.69064 15.8781C6.77269 15.7961 6.88397 15.75 7 15.75H7.64137C7.71833 15.5057 7.81671 15.2687 7.93538 15.0417L7.48125 14.5876C7.39923 14.5055 7.35316 14.3943 7.35316 14.2783C7.35316 14.1622 7.39923 14.051 7.48125 13.9689L8.71894 12.7313C8.80098 12.6492 8.91224 12.6032 9.02825 12.6032C9.14426 12.6032 9.25552 12.6492 9.33756 12.7313L9.79169 13.1849C10.0187 13.0664 10.2557 12.9682 10.5 12.8914V12.25C10.5 12.134 10.5461 12.0227 10.6281 11.9406C10.7102 11.8586 10.8215 11.8125 10.9375 11.8125H12.6875V12.6875H11.375V13.2256C11.3751 13.3248 11.3415 13.4212 11.2796 13.4987C11.2178 13.5763 11.1314 13.6306 11.0346 13.6526C10.6511 13.7399 10.2852 13.8918 9.95269 14.1019C9.86872 14.1549 9.76923 14.1777 9.67056 14.1667C9.57189 14.1556 9.47992 14.1114 9.40975 14.0411L9.02825 13.6596L8.40963 14.2783L8.79112 14.6597C8.86136 14.7299 8.90564 14.8219 8.9167 14.9206C8.92775 15.0192 8.90491 15.1187 8.85194 15.2027C8.64182 15.5352 8.48988 15.9011 8.40262 16.2846C8.3806 16.3814 8.32634 16.4678 8.24875 16.5296C8.17116 16.5915 8.07485 16.6251 7.97562 16.625H7.4375V17.9375Z"
        fill="currentColor" />
    <path
        d="M10.5 17.0625H9.625C9.62569 16.4826 9.85639 15.9266 10.2665 15.5165C10.6766 15.1064 11.2326 14.8757 11.8125 14.875V15.75C11.4644 15.75 11.1306 15.8883 10.8844 16.1344C10.6383 16.3806 10.5 16.7144 10.5 17.0625Z"
        fill="currentColor" />
    <path
        d="M19.6875 21.875C18.7357 21.875 17.8052 21.5928 17.0138 21.0639C16.2224 20.5351 15.6056 19.7835 15.2413 18.9042C14.8771 18.0248 14.7818 17.0572 14.9675 16.1236C15.1532 15.1901 15.6115 14.3326 16.2845 13.6595C16.9576 12.9865 17.8151 12.5282 18.7486 12.3425C19.6822 12.1568 20.6498 12.2521 21.5292 12.6163C22.4085 12.9806 23.1601 13.5974 23.6889 14.3888C24.2177 15.1802 24.5 16.1107 24.5 17.0625C24.4985 18.3384 23.991 19.5616 23.0888 20.4638C22.1866 21.366 20.9634 21.8735 19.6875 21.875ZM19.6875 13.125C18.9087 13.125 18.1475 13.3559 17.4999 13.7886C16.8524 14.2212 16.3477 14.8362 16.0497 15.5557C15.7517 16.2752 15.6737 17.0669 15.8257 17.8307C15.9776 18.5945 16.3526 19.2961 16.9033 19.8467C17.4539 20.3974 18.1555 20.7724 18.9193 20.9243C19.6831 21.0763 20.4748 20.9983 21.1943 20.7003C21.9138 20.4023 22.5287 19.8976 22.9614 19.2501C23.3941 18.6025 23.625 17.8413 23.625 17.0625C23.6237 16.0186 23.2085 15.0178 22.4703 14.2797C21.7322 13.5415 20.7314 13.1263 19.6875 13.125Z"
        fill="currentColor" />
    <path
        d="M18.8124 20.125C18.6964 20.125 18.5851 20.0789 18.5031 19.9968L16.3156 17.8093C16.2336 17.7273 16.1875 17.616 16.1875 17.5C16.1875 17.384 16.2336 17.2727 16.3156 17.1907L17.6281 15.8782C17.7101 15.7962 17.8214 15.7501 17.9374 15.7501C18.0534 15.7501 18.1647 15.7962 18.2467 15.8782L18.8124 16.4439L21.1281 14.1282C21.2101 14.0462 21.3214 14.0001 21.4374 14.0001C21.5534 14.0001 21.6647 14.0462 21.7467 14.1282L23.0592 15.4407C23.1412 15.5227 23.1873 15.634 23.1873 15.75C23.1873 15.866 23.1412 15.9773 23.0592 16.0593L19.1217 19.9968C19.0397 20.0789 18.9284 20.125 18.8124 20.125ZM17.2435 17.5L18.8124 19.0689L22.1313 15.75L21.4374 15.0561L19.1217 17.3718C19.0397 17.4538 18.9284 17.4999 18.8124 17.4999C18.6964 17.4999 18.5851 17.4538 18.5031 17.3718L17.9374 16.8061L17.2435 17.5Z"
        fill="currentColor" />
    <path d="M24.9375 1.75H25.8125V2.625H24.9375V1.75Z" fill="currentColor" />
    <path d="M18.375 1.75H24.0625V2.625H18.375V1.75Z" fill="currentColor" />
</svg>
