<svg width="200" height="200" viewBox="0 0 200 200" data-stroke="white" stroke="white"
    xmlns="http://www.w3.org/2000/svg">
    <g clip-path="url(#clip0_259_1988)">
        <path
            d="M75.8466 39.1907C75.8466 19.1635 59.6113 2.92969 39.5826 2.92969C19.5554 2.92969 3.32007 19.1635 3.32007 39.1907C3.32007 59.2163 19.5554 75.4501 39.5826 75.4501C59.6113 75.4501 75.8466 59.2163 75.8466 39.1907Z"
            data-stroke="white" stroke="white" fill="none" data-fill="#64E8FF" />
        <path
            d="M39.5827 2.92969C37.4755 2.92969 35.411 3.11127 33.4014 3.45612C50.4836 6.39038 63.4825 21.2723 63.4825 39.1907C63.4825 57.1091 50.4836 71.9894 33.4014 74.9237C35.411 75.2686 37.4755 75.4501 39.5827 75.4501C59.6114 75.4501 75.8467 59.2163 75.8467 39.1907C75.8467 19.1635 59.6114 2.92969 39.5827 2.92969Z"
            data-stroke="white" stroke="white" fill="none" data-fill="#0FD9FF" />
        <path
            d="M197.403 39.1907C197.403 19.1635 181.167 2.92969 161.14 2.92969C141.113 2.92969 124.878 19.1635 124.878 39.1907C124.878 59.2163 141.113 75.4501 161.14 75.4501C181.167 75.4501 197.403 59.2163 197.403 39.1907Z"
            data-stroke="white" stroke="white" fill="none" data-fill="#6193FF" />
        <path
            d="M197.389 38.1515C196.815 18.1335 180.122 2.3712 160.103 2.94493C158.195 2.99986 156.326 3.20127 154.507 3.53697C170.952 6.5811 183.619 20.7596 184.118 38.1515C184.637 56.2622 171.782 71.6507 154.504 74.8428C156.985 75.3021 159.553 75.5112 162.178 75.4349C182.197 74.8627 197.961 58.1695 197.389 38.1515Z"
            data-stroke="white" stroke="white" fill="none" data-fill="#407BFF" />
        <path
            d="M75.8466 160.811C75.8466 140.784 59.6113 124.55 39.5826 124.55C19.5554 124.55 3.32007 140.784 3.32007 160.811C3.32007 180.836 19.5554 197.07 39.5826 197.07C59.6113 197.07 75.8466 180.836 75.8466 160.811Z"
            data-stroke="white" stroke="white" fill="none" data-fill="#FF6969" />
        <path
            d="M39.5825 124.55C36.7749 124.55 34.0405 124.869 31.416 125.475C47.5095 129.178 59.5105 143.593 59.5105 160.811C59.5105 178.027 47.5095 192.442 31.416 196.147C34.0405 196.751 36.7749 197.07 39.5825 197.07C59.6112 197.07 75.8466 180.836 75.8466 160.811C75.8466 140.784 59.6112 124.55 39.5825 124.55Z"
            data-stroke="white" stroke="white" fill="none" data-fill="#FF4848" />
        <path
            d="M197.403 160.811C197.403 140.784 181.167 124.55 161.14 124.55C141.113 124.55 124.878 140.784 124.878 160.811C124.878 180.836 141.113 197.07 161.14 197.07C181.167 197.07 197.403 180.836 197.403 160.811Z"
            data-stroke="white" stroke="white" fill="none" data-fill="#FF95C2" />
        <path
            d="M161.14 124.55C158.636 124.55 156.192 124.803 153.831 125.287C170.355 128.668 182.783 143.288 182.783 160.811C182.783 178.333 170.355 192.952 153.83 196.333C156.192 196.817 158.636 197.07 161.14 197.07C181.167 197.07 197.403 180.836 197.403 160.811C197.403 140.785 181.167 124.55 161.14 124.55Z"
            data-stroke="white" stroke="white" fill="none" data-fill="#FF758E" />
        <path
            d="M56.7213 25.0778C55.3374 25.911 53.8542 26.5701 52.3039 27.0371C49.4185 23.7198 44.3907 23.3689 41.0734 26.2543C39.3065 27.7908 38.3055 30.0263 38.3375 32.367V34.1446C32.3042 34.3002 26.5776 31.575 22.8956 26.8402C22.6454 26.5183 22.1373 26.5991 22.003 26.9837C20.796 30.4398 17.4971 43.0924 31.2285 49.1943C28.1492 51.2848 24.5726 52.4994 20.8815 52.7252C20.3413 52.7588 20.1979 53.4866 20.6892 53.7125C36.2868 60.9177 54.3288 51.9455 54.3288 32.3151C54.3272 31.8192 54.2799 31.3263 54.1868 30.8396C55.6578 29.39 56.7778 27.6306 57.469 25.6973C57.6323 25.2457 57.1318 24.8291 56.7213 25.0778Z"
            data-stroke="white" stroke="white" fill="none" data-fill="white" />
        <path
            d="M31.8342 160.413V148.895C31.8342 148.047 32.7528 147.517 33.4868 147.942L43.4584 153.7L53.4285 159.46C54.1624 159.885 54.1624 160.944 53.4285 161.368L43.4584 167.128L33.4868 172.887C32.7528 173.311 31.8342 172.78 31.8342 171.931V160.413Z"
            data-stroke="white" stroke="white" fill="none" data-fill="white" />
        <path
            d="M92.6359 106.984H79.2219C77.5937 106.984 76.2754 105.664 76.2754 104.037V88.6505C76.2754 87.0239 77.5937 85.704 79.2219 85.704H92.6359C92.8892 85.704 93.0952 85.91 93.0952 86.1633V106.525C93.0952 106.778 92.8892 106.984 92.6359 106.984Z"
            data-stroke="white" stroke="white" fill="none" data-fill="#FF95C2" />
        <path
            d="M121.564 117.216C117.575 114.774 112.607 112.151 106.685 109.874C101.716 107.965 97.1083 106.694 93.0952 105.833C93.0952 99.5071 93.0952 93.1808 93.0952 86.8546C97.119 85.9985 101.753 84.726 106.755 82.8003C112.655 80.5267 117.601 77.9068 121.564 75.4715V117.216Z"
            data-stroke="white" stroke="white" fill="none" data-fill="#E5F4FF" />
        <path
            d="M174.931 124.127C177.452 116.347 178.732 108.232 178.732 99.9634C178.732 91.7252 177.461 83.6395 174.955 75.8835C180.465 73.8144 185.475 70.5017 189.634 66.0965C196.823 58.4869 200.616 48.5321 200.317 38.0692C199.698 16.4673 181.622 -0.59967 160.017 0.0167847C149.553 0.315857 139.833 4.67224 132.644 12.2833C129.014 16.127 126.252 20.5688 124.444 25.3723C116.687 22.8683 108.601 21.5973 100.36 21.5973C92.114 21.5973 84.0223 22.8714 76.2601 25.3784C70.6617 10.5637 56.3337 0 39.5826 0C17.9716 0 0.390381 17.5812 0.390381 39.1907C0.390381 55.9402 10.9556 70.2667 25.7703 75.8636C23.2618 83.6273 21.9892 91.7191 21.9892 99.9634C21.9892 108.232 23.2694 116.347 25.7902 124.127C10.9647 129.72 0.390381 144.052 0.390381 160.809C0.390381 166.708 1.66907 172.38 4.19134 177.666C4.88867 179.126 6.63733 179.745 8.09759 179.048C9.55633 178.351 10.1758 176.602 9.48004 175.142C7.33618 170.65 6.24976 165.828 6.24976 160.809C6.24976 142.432 21.2034 127.48 39.5826 127.48C57.9633 127.48 72.9169 142.432 72.9169 160.809C72.9169 179.189 57.9633 194.141 39.5826 194.141C31.1994 194.141 23.187 191.017 17.0225 185.345C15.8307 184.25 13.9768 184.328 12.8828 185.518C11.7872 186.71 11.8635 188.562 13.0552 189.658C20.3046 196.327 29.7254 200 39.5826 200C56.3581 200 70.7044 189.404 76.2845 174.556C84.0375 177.058 92.1216 178.329 100.36 178.329C108.6 178.329 116.685 177.058 124.438 174.557C130.018 189.406 144.365 200 161.14 200C182.751 200 200.332 182.419 200.332 160.809C200.332 144.052 189.758 129.718 174.931 124.127ZM136.905 16.3055C143.017 9.83276 151.286 6.12793 160.187 5.87311C160.51 5.86395 160.83 5.85938 161.154 5.85938C179.095 5.85938 193.944 20.1889 194.459 38.2355C194.714 47.1344 191.488 55.6 185.376 62.0743C179.263 68.5471 170.994 72.2519 162.094 72.5067C161.77 72.5159 161.448 72.5204 161.126 72.5204C143.185 72.5204 128.337 58.1909 127.821 40.1443C127.565 31.2454 130.792 22.7783 136.905 16.3055ZM100.36 172.47C92.6801 172.47 85.1468 171.277 77.9279 168.93C78.4818 166.309 78.7763 163.594 78.7763 160.811C78.7763 139.201 61.1936 121.62 39.5826 121.62C36.7826 121.62 34.0513 121.918 31.4161 122.479C29.0494 115.233 27.8486 107.672 27.8486 99.9634C27.8486 92.2806 29.0433 84.7427 31.3947 77.5177C34.036 78.0807 36.775 78.3798 39.5826 78.3798C46.2964 78.3798 52.9203 76.6541 58.7415 73.3856C60.1514 72.5937 60.6534 70.8084 59.8615 69.397C59.0696 67.9871 57.2843 67.485 55.8729 68.277C50.926 71.0526 45.2924 72.5204 39.5826 72.5204C21.2018 72.5204 6.24976 57.5684 6.24976 39.1907C6.24976 20.8115 21.2034 5.85938 39.5826 5.85938C57.9633 5.85938 72.9169 20.8115 72.9169 39.1907C72.9169 46.8796 70.236 54.3808 65.3684 60.3149C64.3415 61.5646 64.5246 63.4109 65.7758 64.4379C67.0255 65.4633 68.8718 65.2817 69.8987 64.0305C75.6223 57.0526 78.7763 48.23 78.7763 39.1891C78.7763 36.3831 78.4757 33.6441 77.9127 31.0028C85.1377 28.6514 92.6755 27.4567 100.36 27.4567C108.043 27.4567 115.577 28.6499 122.799 30.9982C122.16 34.0225 121.873 37.1429 121.963 40.3122C122.572 61.5326 140.028 78.3813 161.125 78.3798C161.502 78.3798 161.882 78.3752 162.262 78.363C164.663 78.2944 167.025 78.009 169.328 77.5223C171.678 84.7458 172.873 92.2821 172.873 99.9634C172.873 107.672 171.67 115.233 169.305 122.478C166.67 121.916 163.939 121.62 161.14 121.62C139.529 121.62 121.948 139.2 121.948 160.809C121.948 163.593 122.241 166.309 122.796 168.93C115.576 171.278 108.043 172.47 100.36 172.47ZM161.14 194.141C142.759 194.141 127.807 179.189 127.807 160.811C127.807 142.432 142.759 127.48 161.14 127.48C179.521 127.48 194.473 142.432 194.473 160.811C194.473 179.189 179.521 194.141 161.14 194.141Z"
            data-stroke="white" stroke="white" fill="none" data-fill="black" />
        <path
            d="M59.532 21.8963C58.5219 21.2097 57.1928 21.2204 56.1949 21.9253C55.197 22.6288 54.1289 23.2162 53.0058 23.6816C48.9805 20.5322 43.1471 20.5688 39.1508 24.0433C37.0741 25.8499 35.7756 28.3478 35.4735 31.0455C31.1751 30.4062 27.2902 28.0395 24.742 24.411C24.1347 23.5473 23.1093 23.0789 22.061 23.1796C21.0097 23.2818 20.0957 23.941 19.6669 24.9054C19.583 25.0946 17.6115 29.599 17.8633 35.112C18.0556 39.331 19.5647 44.7693 25.0685 48.9685C23.0864 49.6078 20.9929 49.9039 18.907 49.8199C17.549 49.7665 16.3359 50.65 15.9697 51.9562C15.6035 53.2623 16.1818 54.6493 17.3674 55.3085C21.9633 57.8613 26.8873 59.14 31.6984 59.14C36.3203 59.14 40.8369 57.959 44.8561 55.5954C49.8961 52.6306 53.5582 48.0911 55.5464 42.5476C55.609 42.4072 55.6608 42.2607 55.702 42.1097C56.7244 39.0991 57.26 35.8017 57.26 32.3044C57.26 32.1518 57.2554 31.9977 57.2493 31.8451C58.9216 29.8736 60.1149 27.5375 60.7313 25.0122C61.0182 23.8251 60.5421 22.583 59.532 21.8963ZM41.8852 50.5447C38.3421 52.6291 34.2757 53.5187 30.1314 53.2181C31.0805 52.7481 31.9975 52.214 32.8749 51.6174C33.7538 51.0208 34.2421 49.9924 34.1475 48.9334C34.0529 47.8729 33.3906 46.9482 32.4187 46.5164C26.9484 44.0842 24.0233 40.2191 23.7257 35.025C23.6647 33.963 23.7181 32.9407 23.8325 32.0068C27.8624 35.3744 33.0244 37.2101 38.4123 37.0727C40.0007 37.0315 41.2672 35.7315 41.2672 34.143V32.3669C41.2672 32.3547 41.2672 32.341 41.2672 32.3273C41.2474 30.8456 41.8761 29.4372 42.996 28.4653C45.0896 26.6449 48.2725 26.8661 50.0929 28.9596C50.4591 29.3793 50.926 29.6768 51.4357 29.834C51.2572 30.3238 51.2083 30.8609 51.3106 31.3888C51.3685 31.6955 51.3991 32.0099 51.3991 32.3135C51.3991 35.1852 50.9718 37.8433 50.1585 40.2481C50.1143 40.358 50.0777 40.4724 50.0471 40.5884C48.5258 44.8471 45.7564 48.2666 41.8852 50.5447Z"
            data-stroke="white" stroke="white" fill="none" data-fill="black" />
        <path
            d="M151.5 41.5009H155.653V58.9706C155.653 60.5881 156.965 61.9003 158.583 61.9003C160.202 61.9003 161.513 60.5881 161.513 58.9706V41.5009H166.037C167.654 41.5009 168.966 40.1886 168.966 38.5712C168.966 36.9537 167.654 35.6415 166.037 35.6415H161.513V27.4445C161.513 24.6307 163.803 22.3404 166.618 22.3404H170.411C172.029 22.3404 173.341 21.0281 173.341 19.4107C173.341 17.7917 172.029 16.481 170.411 16.481H166.618C160.573 16.481 155.653 21.3989 155.653 27.4445V35.6415H151.5C149.882 35.6415 148.57 36.9537 148.57 38.5712C148.57 40.1886 149.882 41.5009 151.5 41.5009Z"
            data-stroke="white" stroke="white" fill="none" data-fill="black" />
        <path
            d="M32.9359 175.961C33.6332 175.961 34.3306 175.781 34.9516 175.423L54.8933 163.904C56.1369 163.187 56.909 161.848 56.909 160.413C56.909 158.978 56.1369 157.64 54.8933 156.923L34.9516 145.404C33.7095 144.685 32.1653 144.685 30.9218 145.404C29.6782 146.121 28.9045 147.459 28.9045 148.895V171.931C28.9045 173.367 29.6782 174.706 30.9218 175.423C31.5428 175.783 32.2386 175.961 32.9359 175.961ZM34.7639 152.063L49.2231 160.414L34.7639 168.765V152.063Z"
            data-stroke="white" stroke="white" fill="none" data-fill="black" />
        <path
            d="M173.87 140.06H148.41C143.988 140.06 140.39 143.658 140.39 148.082V173.538C140.39 177.962 143.988 181.56 148.41 181.56H173.87C178.292 181.56 181.891 177.962 181.891 173.538V148.082C181.891 143.658 178.292 140.06 173.87 140.06ZM176.031 173.538C176.031 174.731 175.062 175.7 173.87 175.7H148.41C147.218 175.7 146.249 174.731 146.249 173.538V148.082C146.249 146.89 147.218 145.92 148.41 145.92H173.87C175.062 145.92 176.031 146.89 176.031 148.082V173.538Z"
            data-stroke="white" stroke="white" fill="none" data-fill="black" />
        <path
            d="M161.14 151.955C156.257 151.955 152.284 155.928 152.284 160.811C152.284 165.694 156.257 169.666 161.14 169.666C166.023 169.666 169.996 165.694 169.996 160.811C169.996 155.928 166.023 151.955 161.14 151.955ZM161.14 163.806C159.488 163.806 158.143 162.462 158.143 160.811C158.143 159.158 159.488 157.814 161.14 157.814C162.793 157.814 164.137 159.158 164.137 160.811C164.137 162.462 162.793 163.806 161.14 163.806Z"
            data-stroke="white" stroke="white" fill="none" data-fill="black" />
        <path
            d="M124.493 120.19V72.4976C124.493 70.8801 123.181 69.5679 121.563 69.5679C119.945 69.5679 118.634 70.8801 118.634 72.4976V73.8113C114.505 76.2451 110.164 78.3463 105.7 80.0659C102.127 81.4423 98.4357 82.5867 94.7019 83.4824C94.1282 83.0414 93.4141 82.7744 92.6359 82.7744H79.2219C75.9809 82.7744 73.3457 85.4111 73.3457 88.6505V104.036C73.3457 107.277 75.9809 109.912 79.2219 109.912H81.9028L82.9191 129.446C82.9999 131.01 84.2939 132.224 85.8427 132.224C85.893 132.224 85.9449 132.222 85.9968 132.219C87.6127 132.135 88.8547 130.757 88.7708 129.141L87.7698 109.912H92.6359C93.4125 109.912 94.1282 109.647 94.7004 109.206C97.0777 109.779 99.4428 110.454 101.755 111.221C103.291 111.729 104.948 110.898 105.458 109.363C105.967 107.826 105.134 106.168 103.599 105.659C101.117 104.836 98.5776 104.111 96.0233 103.496V89.1937C100.024 88.2355 103.978 87.0071 107.806 85.5331C111.508 84.1064 115.133 82.4356 118.632 80.5435V112.151C117.344 111.455 116.043 110.791 114.732 110.161C113.273 109.459 111.523 110.072 110.823 111.531C110.121 112.99 110.734 114.74 112.193 115.442C114.375 116.492 116.533 117.648 118.632 118.881V120.189C118.632 121.808 119.945 123.119 121.562 123.119C123.179 123.119 124.493 121.808 124.493 120.19ZM79.2051 104.037L79.2219 88.6337H90.1655V104.051L79.2051 104.037Z"
            data-stroke="white" stroke="white" fill="none" data-fill="black" />
    </g>
    <defs>
        <clipPath id="clip0_259_1988">
            <rect width="200" height="200" data-stroke="white" stroke="white" fill="none" data-fill="white" />
        </clipPath>
    </defs>
</svg>
