<svg viewBox="0 0 28 28" fill="none" xmlns="http://www.w3.org/2000/svg">
    <g clip-path="url(#clip0_238_1283)">
        <path
            d="M24.4904 17.3778C24.8433 16.2885 25.0225 15.1525 25.0225 13.9949C25.0225 12.8415 24.8446 11.7095 24.4938 10.6237C25.2652 10.334 25.9665 9.87024 26.5489 9.25351C27.5552 8.18817 28.0863 6.79449 28.0444 5.32968C27.9577 2.30542 25.4271 -0.0839538 22.4024 0.00234986C20.9374 0.04422 19.5766 0.654114 18.5703 1.71967C18.062 2.25778 17.6754 2.87964 17.4222 3.55212C16.3362 3.20157 15.2042 3.02362 14.0504 3.02362C12.896 3.02362 11.7632 3.202 10.6765 3.55298C9.89267 1.47891 7.88675 0 5.5416 0C2.51605 0 0.0546875 2.46136 0.0546875 5.48669C0.0546875 7.83163 1.53381 9.83734 3.60788 10.6209C3.25668 11.7078 3.07852 12.8407 3.07852 13.9949C3.07852 15.1525 3.25775 16.2885 3.61066 17.3778C1.5351 18.1607 0.0546875 20.1673 0.0546875 22.5133C0.0546875 23.3392 0.233704 24.1332 0.586823 24.8732C0.684448 25.0776 0.92926 25.1644 1.1337 25.0667C1.33792 24.9691 1.42465 24.7243 1.32724 24.5199C1.0271 23.891 0.875 23.2159 0.875 22.5133C0.875 19.9404 2.96851 17.8471 5.5416 17.8471C8.1149 17.8471 10.2084 19.9404 10.2084 22.5133C10.2084 25.0864 8.1149 27.1797 5.5416 27.1797C4.36795 27.1797 3.24622 26.7424 2.38318 25.9484C2.21634 25.795 1.95679 25.8059 1.80362 25.9725C1.65024 26.1393 1.66092 26.3987 1.82776 26.5521C2.84268 27.4858 4.16159 28 5.5416 28C7.89017 28 9.89865 26.5166 10.6799 24.4378C11.7653 24.7882 12.8971 24.9661 14.0504 24.9661C15.204 24.9661 16.336 24.7882 17.4214 24.438C18.2026 26.5168 20.2111 28 22.5597 28C25.5852 28 28.0466 25.5386 28.0466 22.5133C28.0466 20.1673 26.5662 18.1605 24.4904 17.3778ZM19.1667 2.28278C20.0225 1.37659 21.1801 0.85791 22.4261 0.822235C22.4714 0.820953 22.5163 0.820312 22.5616 0.820312C25.0734 0.820312 27.1521 2.82645 27.2243 5.35297C27.26 6.59882 26.8084 7.784 25.9526 8.6904C25.0969 9.59659 23.9392 10.1153 22.6932 10.1509C22.6479 10.1522 22.6028 10.1529 22.5577 10.1529C20.046 10.1529 17.9672 8.14673 17.895 5.62021C17.8591 4.37436 18.3109 3.18896 19.1667 2.28278ZM17.1913 23.6502C16.1807 23.9788 15.126 24.1458 14.0504 24.1458C12.9753 24.1458 11.9206 23.9788 10.9099 23.6502C10.9875 23.2832 11.0287 22.903 11.0287 22.5133C11.0287 19.488 8.56714 17.0268 5.5416 17.0268C5.1496 17.0268 4.76721 17.0685 4.39828 17.1469C4.06696 16.1326 3.89883 15.0741 3.89883 13.9949C3.89883 12.9191 4.0661 11.864 4.39529 10.8523C4.76508 10.9313 5.14853 10.9732 5.5416 10.9732C6.48154 10.9732 7.40887 10.7314 8.22385 10.274C8.42123 10.1631 8.49152 9.91318 8.38065 9.71558C8.26978 9.51797 8.01984 9.44791 7.82224 9.55878C7.12967 9.94736 6.34097 10.1529 5.5416 10.1529C2.96829 10.1529 0.875 8.05957 0.875 5.48648C0.875 2.9136 2.96851 0.820312 5.5416 0.820312C8.1149 0.820312 10.2084 2.9136 10.2084 5.48669C10.2084 6.56314 9.83307 7.61331 9.15161 8.44409C9.00784 8.61905 9.03348 8.87753 9.20865 9.0213C9.38361 9.16486 9.64209 9.13943 9.78586 8.96426C10.5872 7.98737 11.0287 6.7522 11.0287 5.48648C11.0287 5.09363 10.9866 4.71017 10.9078 4.34039C11.9193 4.0112 12.9746 3.84393 14.0504 3.84393C15.126 3.84393 16.1809 4.01099 17.192 4.33975C17.1024 4.76315 17.0623 5.20001 17.0749 5.64371C17.1601 8.61456 19.604 10.9734 22.5575 10.9732C22.6103 10.9732 22.6635 10.9725 22.7167 10.9708C23.0529 10.9612 23.3836 10.9213 23.706 10.8531C24.0349 11.8644 24.2022 12.9195 24.2022 13.9949C24.2022 15.0741 24.0339 16.1326 23.7028 17.1469C23.3338 17.0683 22.9514 17.0268 22.5597 17.0268C19.5341 17.0268 17.0728 19.488 17.0728 22.5133C17.0728 22.9032 17.1138 23.2834 17.1913 23.6502ZM22.5597 27.1797C19.9864 27.1797 17.8931 25.0864 17.8931 22.5135C17.8931 19.9404 19.9864 17.8471 22.5597 17.8471C25.133 17.8471 27.2263 19.9404 27.2263 22.5135C27.2263 25.0864 25.133 27.1797 22.5597 27.1797Z"
            fill="currentColor" />
        <path
            d="M8.33446 3.06547C8.19304 2.96934 8.00697 2.97084 7.86726 3.06953C7.72755 3.16801 7.57802 3.25026 7.42079 3.31541C6.85725 2.87449 6.04057 2.87962 5.48109 3.36604C5.19035 3.61897 5.00856 3.96867 4.96626 4.34636C4.36448 4.25685 3.8206 3.92552 3.46385 3.41752C3.37883 3.29661 3.23527 3.23103 3.08851 3.24513C2.94133 3.25944 2.81337 3.35173 2.75334 3.48674C2.74159 3.51323 2.46559 4.14384 2.50084 4.91566C2.52775 5.50633 2.73903 6.26768 3.50957 6.85557C3.23207 6.94508 2.93898 6.98652 2.64696 6.97478C2.45683 6.9673 2.287 7.09099 2.23573 7.27385C2.18446 7.45671 2.26542 7.65089 2.43141 7.74318C3.07484 8.10057 3.7642 8.27958 4.43776 8.27958C5.08482 8.27958 5.71715 8.11424 6.27983 7.78334C6.98543 7.36827 7.49812 6.73274 7.77647 5.95665C7.78523 5.93699 7.79249 5.91649 7.79826 5.89534C7.94139 5.47386 8.01637 5.01222 8.01637 4.5226C8.01637 4.50123 8.01573 4.47966 8.01487 4.4583C8.24901 4.18229 8.41606 3.85524 8.50236 3.50169C8.54252 3.33549 8.47587 3.1616 8.33446 3.06547ZM7.18345 4.39464C7.19157 4.43736 7.19584 4.48158 7.19584 4.52388C7.19584 4.92592 7.13603 5.29826 7.02217 5.63472C7.01597 5.6501 7.01085 5.66612 7.00657 5.68257C6.79359 6.27858 6.40587 6.75731 5.8639 7.07625C5.36787 7.36827 4.79857 7.4926 4.21837 7.45051C4.35124 7.38472 4.47963 7.30995 4.60246 7.22664C4.72551 7.1429 4.79387 6.99913 4.78062 6.85066C4.76738 6.70219 4.67466 6.57274 4.53859 6.51228C3.77275 6.17198 3.36323 5.63066 3.32158 4.9037C3.31303 4.7548 3.32051 4.61189 3.33653 4.48094C3.90071 4.95241 4.6234 5.20961 5.3777 5.19017C5.60008 5.1844 5.77739 5.00261 5.77739 4.78023V4.53135C5.77739 4.52965 5.77739 4.52772 5.77739 4.5258C5.77461 4.31837 5.86262 4.1212 6.01942 3.98512C6.31251 3.73027 6.75813 3.76124 7.01298 4.05433C7.06425 4.11308 7.12962 4.15474 7.20097 4.17674C7.17598 4.24553 7.16935 4.32051 7.18345 4.39464Z"
            fill="currentColor" />
        <path
            d="M21.21 5.81012H21.7914V8.25589C21.7914 8.48233 21.9752 8.66605 22.2016 8.66605C22.4283 8.66605 22.6118 8.48233 22.6118 8.25589V5.81012H23.2451C23.4716 5.81012 23.6553 5.6264 23.6553 5.39996C23.6553 5.17352 23.4716 4.98981 23.2451 4.98981H22.6118V3.84222C22.6118 3.4483 22.9324 3.12766 23.3265 3.12766H23.8576C24.084 3.12766 24.2678 2.94394 24.2678 2.7175C24.2678 2.49084 24.084 2.30734 23.8576 2.30734H23.3265C22.4802 2.30734 21.7914 2.99585 21.7914 3.84222V4.98981H21.21C20.9835 4.98981 20.7998 5.17352 20.7998 5.39996C20.7998 5.6264 20.9835 5.81012 21.21 5.81012Z"
            fill="currentColor" />
        <path
            d="M4.61102 24.6346C4.70865 24.6346 4.80627 24.6094 4.89322 24.5592L7.68506 22.9465C7.85916 22.8461 7.96725 22.6588 7.96725 22.4578C7.96725 22.257 7.85916 22.0696 7.68506 21.9692L4.89322 20.3566C4.71933 20.2559 4.50314 20.2559 4.32904 20.3566C4.15494 20.457 4.04663 20.6443 4.04663 20.8453V24.0704C4.04663 24.2714 4.15494 24.4588 4.32904 24.5592C4.41599 24.6096 4.5134 24.6346 4.61102 24.6346ZM4.86694 21.2888L6.89124 22.458L4.86694 23.6271V21.2888Z"
            fill="currentColor" />
        <path
            d="M24.3419 19.6085H20.7773C20.1583 19.6085 19.6545 20.1122 19.6545 20.7315V24.2953C19.6545 24.9146 20.1583 25.4184 20.7773 25.4184H24.3419C24.9609 25.4184 25.4647 24.9146 25.4647 24.2953V20.7315C25.4647 20.1122 24.9609 19.6085 24.3419 19.6085ZM24.6443 24.2953C24.6443 24.4624 24.5087 24.5981 24.3419 24.5981H20.7773C20.6105 24.5981 20.4749 24.4624 20.4749 24.2953V20.7315C20.4749 20.5646 20.6105 20.4288 20.7773 20.4288H24.3419C24.5087 20.4288 24.6443 20.5646 24.6443 20.7315V24.2953Z"
            fill="currentColor" />
        <path
            d="M22.5597 21.2737C21.8761 21.2737 21.3198 21.8299 21.3198 22.5135C21.3198 23.1971 21.8761 23.7532 22.5597 23.7532C23.2433 23.7532 23.7996 23.1971 23.7996 22.5135C23.7996 21.8299 23.2433 21.2737 22.5597 21.2737ZM22.5597 22.9329C22.3283 22.9329 22.1401 22.7447 22.1401 22.5135C22.1401 22.2822 22.3283 22.094 22.5597 22.094C22.791 22.094 22.9792 22.2822 22.9792 22.5135C22.9792 22.7447 22.791 22.9329 22.5597 22.9329Z"
            fill="currentColor" />
        <path
            d="M17.019 9.7395C16.7924 9.7395 16.6089 9.92322 16.6089 10.1497V10.3336C16.0308 10.6743 15.4231 10.9685 14.7982 11.2092C14.2979 11.4019 13.7812 11.5621 13.2584 11.6875C13.1781 11.6258 13.0781 11.5884 12.9692 11.5884H11.0912C10.6375 11.5884 10.2686 11.9576 10.2686 12.4111V14.565C10.2686 15.0188 10.6375 15.3877 11.0912 15.3877H11.4666L11.6088 18.1225C11.6201 18.3415 11.8013 18.5113 12.0181 18.5113C12.0252 18.5113 12.0324 18.5111 12.0397 18.5107C12.2659 18.4989 12.4398 18.306 12.4281 18.0798L12.2879 15.3877H12.9692C13.0779 15.3877 13.1781 15.3505 13.2582 15.2888C13.591 15.3691 13.9221 15.4635 14.2458 15.571C14.4609 15.6421 14.6929 15.5257 14.7643 15.3108C14.8356 15.0957 14.719 14.8635 14.5041 14.7923C14.1565 14.677 13.801 14.5755 13.4434 14.4894V12.4871C14.0035 12.353 14.557 12.181 15.093 11.9746C15.6113 11.7749 16.1188 11.541 16.6087 11.2761V15.7011C16.4284 15.6037 16.2462 15.5107 16.0627 15.4225C15.8584 15.3243 15.6134 15.4101 15.5153 15.6144C15.4171 15.8186 15.503 16.0636 15.7072 16.1619C16.0127 16.3088 16.3147 16.4708 16.6087 16.6434V16.8264C16.6087 17.0531 16.7924 17.2366 17.0188 17.2366C17.2453 17.2366 17.429 17.0531 17.429 16.8264V10.1497C17.4292 9.92322 17.2455 9.7395 17.019 9.7395ZM12.6233 14.5672L11.0889 14.565L11.0912 12.4087H12.6233V14.5672Z"
            fill="currentColor" />
    </g>
    <defs>
        <clipPath id="clip0_238_1283">
            <rect width="28" height="28" fill="currentColor" />
        </clipPath>
    </defs>
</svg>
