<svg viewBox="0 0 28 28" fill="none" xmlns="http://www.w3.org/2000/svg">
    <path d="M14.0419 7.21449L13.8467 7.01929L13.7463 7.11968L13.9415 7.31488L14.0419 7.21449Z" fill="currentColor" />
    <path
        d="M8.08175 13.1717L7.88452 12.9745L8.08175 12.7773L8.27898 12.9745L8.08175 13.1717ZM8.47616 12.7852L8.27893 12.588L8.47616 12.3907L8.67339 12.588L8.47616 12.7852ZM8.86268 12.3908L8.66545 12.1936L8.86268 11.9963L9.05991 12.1936L8.86268 12.3908ZM9.25714 12.0043L9.05991 11.807L9.25714 11.6098L9.45437 11.807L9.25714 12.0043ZM9.64367 11.6098L9.44644 11.4126L9.64367 11.2153L9.8409 11.4126L9.64367 11.6098ZM10.0381 11.2233L9.84085 11.026L10.0381 10.8288L10.2353 11.026L10.0381 11.2233ZM10.4246 10.8289L10.2274 10.6316L10.4246 10.4344L10.6218 10.6316L10.4246 10.8289ZM10.819 10.4423L10.6218 10.2451L10.819 10.0479L11.0162 10.2451L10.819 10.4423ZM11.2055 10.0479L11.0083 9.85071L11.2055 9.65348L11.4028 9.85071L11.2055 10.0479ZM11.6 9.66141L11.4028 9.46418L11.6 9.26695L11.7972 9.46418L11.6 9.66141ZM11.9865 9.26695L11.7893 9.06972L11.9865 8.87249L12.1838 9.06972L11.9865 9.26695ZM12.3809 8.88042L12.1837 8.68319L12.3809 8.48596L12.5782 8.68319L12.3809 8.88042ZM12.7675 8.48602L12.5702 8.28879L12.7675 8.09156L12.9647 8.28879L12.7675 8.48602ZM13.1619 8.09949L12.9646 7.90226L13.1619 7.70503L13.3591 7.90226L13.1619 8.09949ZM13.5484 7.70508L13.3512 7.50785L13.5484 7.31062L13.7456 7.50785L13.5484 7.70508Z"
        fill="currentColor" />
    <path d="M7.88807 13.3674L7.69287 13.1722L7.59249 13.2726L7.78769 13.4678L7.88807 13.3674Z" fill="currentColor" />
    <path d="M20.8492 14.0166L20.6541 13.8214L20.5536 13.9218L20.7488 14.117L20.8492 14.0166Z" fill="currentColor" />
    <path
        d="M14.8894 19.9794L14.6921 19.7822L14.8894 19.5849L15.0866 19.7822L14.8894 19.9794ZM15.2759 19.5929L15.0787 19.3956L15.2759 19.1984L15.4731 19.3956L15.2759 19.5929ZM15.6703 19.1985L15.4731 19.0012L15.6703 18.804L15.8675 19.0012L15.6703 19.1985ZM16.0568 18.8119L15.8596 18.6147L16.0568 18.4175L16.2541 18.6147L16.0568 18.8119ZM16.4512 18.4175L16.254 18.2203L16.4512 18.0231L16.6485 18.2203L16.4512 18.4175ZM16.8378 18.0231L16.6405 17.8259L16.8378 17.6287L17.035 17.8259L16.8378 18.0231ZM17.2322 17.6365L17.035 17.4393L17.2322 17.2421L17.4295 17.4393L17.2322 17.6365ZM17.6188 17.2421L17.4215 17.0449L17.6188 16.8477L17.816 17.0449L17.6188 17.2421ZM18.0132 16.8556L17.8159 16.6584L18.0132 16.4611L18.2104 16.6584L18.0132 16.8556ZM18.3997 16.4612L18.2025 16.264L18.3997 16.0667L18.5969 16.264L18.3997 16.4612ZM18.7941 16.0747L18.5969 15.8774L18.7941 15.6802L18.9913 15.8774L18.7941 16.0747ZM19.1806 15.6803L18.9834 15.483L19.1806 15.2858L19.3779 15.483L19.1806 15.6803ZM19.575 15.2937L19.3778 15.0965L19.575 14.8993L19.7723 15.0965L19.575 15.2937ZM19.9695 14.8993L19.7723 14.702L19.9695 14.5048L20.1667 14.702L19.9695 14.8993ZM20.356 14.5127L20.1588 14.3155L20.356 14.1183L20.5533 14.3155L20.356 14.5127Z"
        fill="currentColor" />
    <path d="M14.6932 20.1699L14.498 19.9747L14.3977 20.0751L14.5929 20.2703L14.6932 20.1699Z" fill="currentColor" />
    <path d="M14.0366 20.0764L13.9363 19.976L13.741 20.1711L13.8413 20.2716L14.0366 20.0764Z" fill="currentColor" />
    <path
        d="M13.5484 19.9794L13.3512 19.7822L13.5484 19.5849L13.7456 19.7822L13.5484 19.9794ZM13.1619 19.5929L12.9646 19.3956L13.1619 19.1984L13.3591 19.3956L13.1619 19.5929ZM12.7675 19.1985L12.5702 19.0012L12.7675 18.804L12.9647 19.0012L12.7675 19.1985ZM12.3809 18.8119L12.1837 18.6147L12.3809 18.4175L12.5782 18.6147L12.3809 18.8119ZM11.9865 18.4175L11.7893 18.2203L11.9865 18.0231L12.1838 18.2203L11.9865 18.4175ZM11.6 18.0231L11.4028 17.8259L11.6 17.6287L11.7972 17.8259L11.6 18.0231ZM11.2055 17.6365L11.0083 17.4393L11.2055 17.2421L11.4028 17.4393L11.2055 17.6365ZM10.8111 17.2421L10.6139 17.0449L10.8111 16.8477L11.0084 17.0449L10.8111 17.2421ZM10.4246 16.8556L10.2274 16.6584L10.4246 16.4611L10.6218 16.6584L10.4246 16.8556ZM10.0302 16.4612L9.83297 16.264L10.0302 16.0667L10.2274 16.264L10.0302 16.4612ZM9.64367 16.0747L9.44644 15.8774L9.64367 15.6802L9.8409 15.8774L9.64367 16.0747ZM9.24921 15.6803L9.05198 15.483L9.24921 15.2858L9.44644 15.483L9.24921 15.6803ZM8.86268 15.2937L8.66545 15.0965L8.86268 14.8993L9.05991 15.0965L8.86268 15.2937ZM8.46828 14.8993L8.27105 14.702L8.46828 14.5048L8.66551 14.702L8.46828 14.8993ZM8.08175 14.5127L7.88452 14.3155L8.08175 14.1183L8.27898 14.3155L8.08175 14.5127Z"
        fill="currentColor" />
    <path d="M7.88403 13.9226L7.78369 13.8222L7.58841 14.0173L7.68875 14.1177L7.88403 13.9226Z" fill="currentColor" />
    <path d="M20.845 13.2768L20.7446 13.1764L20.5494 13.3716L20.6498 13.472L20.845 13.2768Z" fill="currentColor" />
    <path
        d="M20.356 13.1717L20.1588 12.9745L20.356 12.7773L20.5533 12.9745L20.356 13.1717ZM19.9616 12.7852L19.7644 12.588L19.9616 12.3907L20.1589 12.588L19.9616 12.7852ZM19.575 12.3908L19.3778 12.1936L19.575 11.9963L19.7723 12.1936L19.575 12.3908ZM19.1806 12.0043L18.9834 11.807L19.1806 11.6098L19.3779 11.807L19.1806 12.0043ZM18.7941 11.6098L18.5969 11.4126L18.7941 11.2153L18.9913 11.4126L18.7941 11.6098ZM18.3997 11.2233L18.2025 11.026L18.3997 10.8288L18.5969 11.026L18.3997 11.2233ZM18.0132 10.8289L17.8159 10.6316L18.0132 10.4344L18.2104 10.6316L18.0132 10.8289ZM17.6188 10.4423L17.4215 10.2451L17.6188 10.0479L17.816 10.2451L17.6188 10.4423ZM17.2322 10.0479L17.035 9.85071L17.2322 9.65348L17.4295 9.85071L17.2322 10.0479ZM16.8378 9.66141L16.6405 9.46418L16.8378 9.26695L17.035 9.46418L16.8378 9.66141ZM16.4512 9.26695L16.254 9.06972L16.4512 8.87249L16.6485 9.06972L16.4512 9.26695ZM16.0568 8.88042L15.8596 8.68319L16.0568 8.48596L16.2541 8.68319L16.0568 8.88042ZM15.6703 8.48602L15.4731 8.28879L15.6703 8.09156L15.8675 8.28879L15.6703 8.48602ZM15.2759 8.09949L15.0787 7.90226L15.2759 7.70503L15.4731 7.90226L15.2759 8.09949ZM14.8894 7.70508L14.6921 7.50785L14.8894 7.31062L15.0866 7.50785L14.8894 7.70508Z"
        fill="currentColor" />
    <path d="M14.6912 7.12299L14.5908 7.0226L14.3956 7.21781L14.496 7.31819L14.6912 7.12299Z" fill="currentColor" />
    <path d="M19.6949 13.6468L14.2175 8.16934L8.74011 13.6468L14.2175 19.1242L19.6949 13.6468Z" fill="currentColor" />
    <path d="M20.8294 5.04669L22.8173 7.03458L7.60849 22.2433L5.62061 20.2555L20.8294 5.04669Z" fill="currentColor" />
    <path d="M21.4419 8.4084L21.0291 7.99574L20.8339 8.19103L21.2468 8.60369L21.4419 8.4084Z" fill="currentColor" />
    <path d="M20.9524 8.90444L20.5396 8.49178L20.3444 8.68706L20.7573 9.09972L20.9524 8.90444Z" fill="currentColor" />
    <path d="M20.4595 9.39546L20.0469 8.98251L19.8516 9.17766L20.2642 9.59061L20.4595 9.39546Z" fill="currentColor" />
    <path d="M19.972 9.8804L19.5593 9.46756L19.3641 9.66276L19.7768 10.0756L19.972 9.8804Z" fill="currentColor" />
    <path d="M19.481 10.371L19.0681 9.95839L18.8729 10.1537L19.2858 10.5663L19.481 10.371Z" fill="currentColor" />
    <path d="M18.9902 10.8671L18.5774 10.4543L18.3822 10.6496L18.7949 11.0623L18.9902 10.8671Z" fill="currentColor" />
    <path d="M18.4977 11.3575L18.085 10.9447L17.8897 11.1399L18.3024 11.5527L18.4977 11.3575Z" fill="currentColor" />
    <path d="M18.0066 11.8486L17.5938 11.4359L17.3986 11.6312L17.8114 12.0439L18.0066 11.8486Z" fill="currentColor" />
    <path d="M17.5187 12.3335L17.106 11.9207L16.9107 12.1159L17.3235 12.5287L17.5187 12.3335Z" fill="currentColor" />
    <path d="M17.0281 12.825L16.6155 12.4121L16.4202 12.6073L16.8329 13.0201L17.0281 12.825Z" fill="currentColor" />
    <path d="M16.5355 13.3153L16.1226 12.9027L15.9274 13.098L16.3404 13.5106L16.5355 13.3153Z" fill="currentColor" />
    <path d="M16.0447 13.8106L15.6318 13.398L15.4367 13.5932L15.8496 14.0059L16.0447 13.8106Z" fill="currentColor" />
    <path d="M15.5514 14.3012L15.1387 13.8884L14.9434 14.0836L15.3561 14.4964L15.5514 14.3012Z" fill="currentColor" />
    <path d="M15.0638 14.7864L14.6511 14.3736L14.4559 14.5688L14.8686 14.9816L15.0638 14.7864Z" fill="currentColor" />
    <path d="M14.5751 15.2783L14.1621 14.8657L13.967 15.061L14.3799 15.4736L14.5751 15.2783Z" fill="currentColor" />
    <path d="M14.0859 15.7737L13.6731 15.3609L13.4779 15.5561L13.8906 15.9689L14.0859 15.7737Z" fill="currentColor" />
    <path d="M13.5949 16.2651L13.1821 15.8524L12.9869 16.0476L13.3997 16.4604L13.5949 16.2651Z" fill="currentColor" />
    <path d="M13.102 16.7566L12.6892 16.3438L12.494 16.5391L12.9068 16.9518L13.102 16.7566Z" fill="currentColor" />
    <path d="M12.6148 17.2414L12.2019 16.8288L12.0067 17.0241L12.4196 17.4367L12.6148 17.2414Z" fill="currentColor" />
    <path d="M12.1242 17.7355L11.7114 17.3228L11.5162 17.518L11.929 17.9308L12.1242 17.7355Z" fill="currentColor" />
    <path d="M11.6284 18.2223L11.2158 17.8093L11.0205 18.0045L11.4331 18.4174L11.6284 18.2223Z" fill="currentColor" />
    <path d="M11.1414 18.7192L10.7285 18.3065L10.5333 18.5018L10.9462 18.9145L11.1414 18.7192Z" fill="currentColor" />
    <path d="M10.6477 19.2098L10.2351 18.7969L10.0398 18.992L10.4524 19.405L10.6477 19.2098Z" fill="currentColor" />
    <path d="M10.16 19.694L9.74731 19.2812L9.55206 19.4764L9.96477 19.8892L10.16 19.694Z" fill="currentColor" />
    <path d="M9.6668 20.1842L9.25391 19.7716L9.05873 19.9668L9.47163 20.3795L9.6668 20.1842Z" fill="currentColor" />
    <path d="M9.17535 20.6763L8.76245 20.2636L8.56727 20.4589L8.98017 20.8715L9.17535 20.6763Z" fill="currentColor" />
    <path d="M8.68518 21.1694L8.27246 20.7566L8.0772 20.9518L8.48992 21.3646L8.68518 21.1694Z" fill="currentColor" />
    <path d="M8.19458 21.6637L7.78198 21.2508L7.58667 21.4459L7.99927 21.8589L8.19458 21.6637Z" fill="currentColor" />
    <path
        d="M21.0894 7.27119C20.9553 7.27119 20.837 7.22388 20.7423 7.1292C20.553 6.9399 20.553 6.62437 20.7423 6.43502C20.837 6.34034 20.9553 6.29303 21.0894 6.29303C21.2235 6.29303 21.3418 6.34034 21.4365 6.43502C21.5312 6.52969 21.5785 6.648 21.5785 6.78211C21.5785 6.91622 21.5312 7.03452 21.4365 7.1292C21.3418 7.216 21.2156 7.27119 21.0894 7.27119ZM21.0894 6.56125C21.0342 6.56125 20.979 6.58493 20.9395 6.62437C20.8528 6.71111 20.8528 6.84523 20.9395 6.92415C21.0184 7.00302 21.1604 7.00302 21.2393 6.92415C21.2788 6.88471 21.3024 6.82947 21.3024 6.77429C21.3024 6.71905 21.2788 6.66386 21.2393 6.62442C21.1998 6.58493 21.1446 6.56125 21.0894 6.56125Z"
        fill="currentColor" />
    <path d="M7.66057 8.56001L19.1899 20.0894L20.6625 18.6168L9.13312 7.08747L7.66057 8.56001Z" fill="currentColor" />
    <path
        d="M22.557 21.139C22.6359 21.0601 22.6911 20.9497 22.6911 20.8235C22.6911 20.6972 22.6438 20.5868 22.557 20.5079L22.1389 20.0899L20.6638 21.565L21.0819 21.9831C21.1608 22.0619 21.2712 22.1172 21.3974 22.1172C21.5237 22.1172 21.6341 22.0699 21.713 21.9831L22.557 21.139Z"
        fill="currentColor" />
    <path
        d="M7.53751 8.62014L5.99927 5.43323L9.19405 6.96359L9.07574 7.21601L6.59878 6.02486L7.78992 8.50183L7.53751 8.62014Z"
        fill="currentColor" />
    <path d="M7.25309 6.21964L7.05786 6.02441L6.59488 6.48739L6.79011 6.68262L7.25309 6.21964Z" fill="currentColor" />
    <path
        d="M19.1887 20.2319C19.1492 20.2319 19.1177 20.2161 19.094 20.1924L7.56121 8.65957C7.50596 8.60433 7.50596 8.51758 7.56121 8.46234L9.03633 6.98722C9.09157 6.93198 9.17831 6.93198 9.23356 6.98722L20.7663 18.52C20.8216 18.5753 20.8216 18.662 20.7663 18.7172L19.2912 20.1924C19.2676 20.216 19.2282 20.2319 19.1887 20.2319ZM7.86099 8.56489L19.1966 19.9005L20.4745 18.6226L9.131 7.287L7.86099 8.56489Z"
        fill="currentColor" />
    <path
        d="M19.591 19.8295C19.5516 19.8295 19.52 19.8138 19.4963 19.7901L7.96355 8.25722C7.90831 8.20198 7.90831 8.11523 7.96355 8.05999L8.63406 7.38948C8.6893 7.33424 8.77604 7.33424 8.83128 7.38948L20.3641 18.9223C20.3878 18.946 20.4035 18.9854 20.4035 19.0248C20.4035 19.0643 20.3878 19.0958 20.3641 19.1195L19.6936 19.79C19.662 19.8138 19.6305 19.8295 19.591 19.8295ZM8.26328 8.1626L19.5989 19.4982L20.0722 19.0249L8.72873 7.68927L8.26328 8.1626Z"
        fill="currentColor" />
    <path
        d="M20.6638 21.7622L18.9915 20.0898L20.6638 18.4174L22.3362 20.0898L20.6638 21.7622ZM19.3859 20.0899L20.6638 21.3678L21.9418 20.0899L20.6638 18.8198L19.3859 20.0899Z"
        fill="currentColor" />
    <path
        d="M21.3975 22.2512C21.2397 22.2512 21.0898 22.1881 20.9794 22.0777L20.4587 21.5571L22.1311 19.8847L22.6517 20.4053C22.7622 20.5158 22.8253 20.6656 22.8253 20.8156C22.8253 20.9734 22.7622 21.1153 22.6517 21.2258L21.8077 22.0698C21.7051 22.1961 21.5552 22.2512 21.3975 22.2512ZM20.861 21.565L21.1844 21.8884C21.2397 21.9436 21.3185 21.9751 21.4053 21.9751V22.1171V21.9751C21.4842 21.9751 21.5631 21.9436 21.6183 21.8884L22.4623 21.0443C22.5176 20.9891 22.5491 20.9102 22.5491 20.8314C22.5491 20.7525 22.5175 20.6736 22.4623 20.6184L22.1389 20.295L20.861 21.565Z"
        fill="currentColor" />
    <path d="M21.4965 19.4552L21.3013 19.26L19.8289 20.7328L20.0242 20.928L21.4965 19.4552Z" fill="currentColor" />
    <path
        d="M14.2191 7.59465L13.4697 6.84528L14.2191 6.0959L14.9685 6.84528L14.2191 7.59465ZM13.8641 6.84522L14.2191 7.20019L14.5741 6.84522L14.2191 6.49025L13.8641 6.84522Z"
        fill="currentColor" />
    <path
        d="M14.2191 21.2021L13.4697 20.4527L14.2191 19.7033L14.9685 20.4527L14.2191 21.2021ZM13.8641 20.4527L14.2191 20.8077L14.5741 20.4527L14.2191 20.0977L13.8641 20.4527Z"
        fill="currentColor" />
    <path
        d="M21.0265 14.3944L20.2771 13.645L21.0265 12.8957L21.7759 13.645L21.0265 14.3944ZM20.6636 13.645L21.0186 14L21.3736 13.645L21.0186 13.29L20.6636 13.645Z"
        fill="currentColor" />
    <path
        d="M7.41124 14.3944L6.66187 13.645L7.41124 12.8957L8.16062 13.645L7.41124 14.3944ZM7.05627 13.645L7.41124 14L7.76621 13.645L7.41124 13.29L7.05627 13.645Z"
        fill="currentColor" />
    <path
        d="M16.9247 6.26152H16.2778L16.1516 5.63833C16.049 5.61464 15.9465 5.59102 15.8518 5.55946L15.4337 6.04066L14.8736 5.71725L15.0788 5.11774C14.9999 5.04675 14.9289 4.97575 14.8579 4.89688L14.2584 5.10199L13.935 4.54191L14.4162 4.12383C14.3846 4.02127 14.3531 3.91872 14.3373 3.82404L13.7141 3.69781V3.05093L14.3373 2.9247C14.361 2.82214 14.3846 2.71959 14.4162 2.61704L13.935 2.19895L14.2584 1.63887L14.8579 1.84398C14.9289 1.76511 14.9999 1.69412 15.0788 1.62312L14.8736 1.01573L15.4337 0.692324L15.8518 1.17353C15.9544 1.14197 16.049 1.11041 16.1516 1.09466L16.2778 0.471466H16.9247L17.0509 1.09466C17.1534 1.11834 17.256 1.14197 17.3507 1.17353L17.7688 0.7002L18.3288 1.02361L18.1237 1.631C18.2026 1.70199 18.2736 1.77299 18.3446 1.85186L18.952 1.64675L19.2754 2.20683L18.7942 2.62491C18.8257 2.72747 18.8573 2.82214 18.8731 2.9247L19.4962 3.05093V3.69775L18.8731 3.82399C18.8494 3.92654 18.8257 4.02909 18.7942 4.12377L19.2754 4.54186L18.952 5.10193L18.3446 4.89683C18.2736 4.9757 18.2026 5.04669 18.1237 5.11769L18.3288 5.7172L17.7688 6.04061L17.3507 5.5594C17.2481 5.59096 17.1534 5.62252 17.0509 5.63827L16.9247 6.26152ZM16.4987 5.97749H16.688L16.8063 5.38585L16.901 5.3701C17.0508 5.34642 17.1928 5.30698 17.3348 5.2518L17.4216 5.22024L17.816 5.66989L17.9816 5.57521L17.7923 5.00726L17.8712 4.94414C17.9895 4.84946 18.0921 4.74691 18.1867 4.6286L18.2499 4.54973L18.8178 4.73903L18.9125 4.57336L18.4628 4.17896L18.4944 4.08428C18.5496 3.94229 18.5891 3.80031 18.6127 3.65044L18.6285 3.55576L19.2201 3.43746V3.24816L18.6285 3.12986L18.6127 3.03518C18.589 2.88531 18.5496 2.74333 18.4944 2.60134L18.4628 2.50666L18.9125 2.11226L18.8178 1.94659L18.2499 2.13589L18.1867 2.05702C18.0921 1.93871 17.9895 1.83616 17.8712 1.74148L17.7923 1.67836L17.9816 1.11041L17.816 1.01573L17.4216 1.46538L17.3348 1.43382C17.1928 1.37858 17.0508 1.33915 16.901 1.31552L16.8063 1.29977L16.688 0.708131H16.4987L16.3804 1.29977L16.2857 1.31552C16.1437 1.3392 15.9939 1.37864 15.8519 1.43382L15.7651 1.46538L15.3707 1.01573L15.205 1.11041L15.3943 1.67836L15.3155 1.74148C15.1972 1.83616 15.0946 1.93871 14.9999 2.05702L14.9368 2.13589L14.3689 1.94659L14.2742 2.12013L14.7238 2.51454L14.6923 2.60922C14.637 2.7512 14.5976 2.90107 14.574 3.04306L14.5582 3.13773L13.9666 3.25604V3.44534L14.5582 3.56364L14.574 3.65832C14.5977 3.80031 14.6371 3.95017 14.6923 4.09216L14.7238 4.1789L14.2742 4.57331L14.3689 4.73898L14.9368 4.54968L14.9999 4.62855C15.0946 4.74685 15.1972 4.84941 15.3155 4.94408L15.3943 5.0072L15.205 5.57515L15.3707 5.66983L15.7651 5.22018L15.8598 5.25174C16.0018 5.30698 16.1438 5.34642 16.2936 5.37005L16.3883 5.3858L16.4987 5.97749Z"
        fill="currentColor" />
    <path
        d="M16.6014 4.9599C15.71 4.9599 15 4.24203 15 3.35854C15 2.47506 15.7179 1.75719 16.6014 1.75719C17.4848 1.75719 18.2027 2.47506 18.2027 3.35854C18.2026 4.24208 17.4848 4.9599 16.6014 4.9599Z"
        fill="currentColor" />
    <path
        d="M16.6014 4.17109C16.1517 4.17109 15.781 3.80031 15.781 3.35072C15.781 2.8932 16.1518 2.53035 16.6014 2.53035C17.051 2.53035 17.4218 2.90113 17.4218 3.35072C17.4218 3.80819 17.051 4.17109 16.6014 4.17109ZM16.6014 2.80639C16.3016 2.80639 16.0571 3.05094 16.0571 3.35072C16.0571 3.6505 16.3016 3.89504 16.6014 3.89504C16.9012 3.89504 17.1457 3.6505 17.1457 3.35072C17.1378 3.05094 16.9011 2.80639 16.6014 2.80639Z"
        fill="currentColor" />
    <path
        d="M10.9374 4.70748C10.9374 4.9757 10.7165 5.19656 10.4483 5.19656C10.1801 5.19656 9.95923 4.9757 9.95923 4.70748C9.95923 4.43926 10.1801 4.2184 10.4483 4.2184C10.7165 4.2184 10.9374 4.43926 10.9374 4.70748Z"
        fill="currentColor" />
    <path
        d="M10.4403 5.81187C9.83295 5.81187 9.33594 5.31491 9.33594 4.70747C9.33594 4.10003 9.83289 3.60307 10.4403 3.60307C11.0477 3.60307 11.5447 4.10003 11.5447 4.70747C11.5526 5.31486 11.0556 5.81187 10.4403 5.81187ZM10.4403 3.87917C9.99069 3.87917 9.61997 4.24995 9.61997 4.70747C9.61997 5.16499 9.99074 5.53577 10.4483 5.53577C10.9058 5.53577 11.2766 5.16499 11.2766 4.70747C11.2686 4.24995 10.8979 3.87917 10.4403 3.87917Z"
        fill="currentColor" />
    <path d="M10.5822 3.35066H10.3062V3.73714H10.5822V3.35066Z" fill="currentColor" />
    <path d="M10.0816 3.8049L9.88818 3.47029L9.64917 3.60843L9.84256 3.94304L10.0816 3.8049Z" fill="currentColor" />
    <path d="M9.67315 4.102L9.33838 3.90892L9.20045 4.14804L9.53523 4.34113L9.67315 4.102Z" fill="currentColor" />
    <path d="M9.47803 4.56549H9.09155V4.84155H9.47803V4.56549Z" fill="currentColor" />
    <path d="M9.6755 5.30803L9.53735 5.06902L9.20274 5.26241L9.34088 5.50142L9.6755 5.30803Z" fill="currentColor" />
    <path d="M10.0866 5.613L9.84766 5.47481L9.65419 5.80938L9.89317 5.94758L10.0866 5.613Z" fill="currentColor" />
    <path d="M10.5822 5.66989H10.3062V6.05637H10.5822V5.66989Z" fill="currentColor" />
    <path d="M11.2425 5.81058L11.0483 5.47639L10.8096 5.61506L11.0038 5.94925L11.2425 5.81058Z" fill="currentColor" />
    <path d="M11.686 5.26483L11.3513 5.07159L11.2133 5.31066L11.548 5.5039L11.686 5.26483Z" fill="currentColor" />
    <path d="M11.7971 4.56549H11.4106V4.84155H11.7971V4.56549Z" fill="currentColor" />
    <path d="M11.6873 4.15136L11.5493 3.91229L11.2146 4.10553L11.3527 4.3446L11.6873 4.15136Z" fill="currentColor" />
    <path d="M11.2409 3.60791L11.0022 3.46927L10.8081 3.80346L11.0468 3.9421L11.2409 3.60791Z" fill="currentColor" />
    <path
        d="M5.92824 10.9709C6.10967 10.6474 6.06236 10.2294 5.78626 9.96113C5.51016 9.68503 5.09994 9.63772 4.77653 9.81915C4.67398 9.46417 4.35057 9.20383 3.96404 9.20383C3.57751 9.20383 3.24617 9.46412 3.15155 9.81915C2.82814 9.63772 2.41793 9.68503 2.14183 9.96113C1.86573 10.2372 1.81842 10.6474 1.99984 10.9709C1.64487 11.0734 1.38452 11.3968 1.38452 11.7834C1.38452 12.2487 1.76317 12.6274 2.22857 12.6274H3.64058C4.10597 12.6274 4.48463 13.0061 4.48463 13.4715V14.6784H4.8554V13.4793C4.8554 13.0139 5.23406 12.6353 5.69945 12.6353C5.93612 12.6353 6.14123 12.5406 6.29897 12.3907C6.44883 12.2409 6.54351 12.0279 6.54351 11.7912C6.54351 11.3968 6.28321 11.0734 5.92824 10.9709Z"
        fill="currentColor" />
    <path d="M3.53778 11.6335H3.26172V11.9095H3.53778V11.6335Z" fill="currentColor" />
    <path d="M4.09784 11.6335H3.82178V11.9095H4.09784V11.6335Z" fill="currentColor" />
    <path d="M4.65009 11.6335H4.37402V11.9095H4.65009V11.6335Z" fill="currentColor" />
    <path
        d="M6.37786 17.6286C6.37786 18.4648 5.69948 19.1353 4.87118 19.1353C4.03501 19.1353 3.3645 18.457 3.3645 17.6286C3.3645 16.7925 4.04288 16.122 4.87118 16.122C5.69948 16.122 6.37786 16.8004 6.37786 17.6286Z"
        fill="currentColor" />
    <path d="M5.0051 16.895H4.729V17.9599H5.0051V16.895Z" fill="currentColor" />
    <path d="M5.00507 18.1651H4.729V18.4333H5.00507V18.1651Z" fill="currentColor" />
    <path
        d="M4.86314 8.02061H4.58705V7.87075C4.58705 7.64989 4.69747 7.45266 4.88683 7.33436L4.8947 7.32648C4.90258 7.32648 4.91046 7.31861 4.91046 7.31861C5.01301 7.25549 5.07613 7.13718 5.07613 7.01882C5.07613 6.82159 4.91833 6.66386 4.72116 6.66386C4.52398 6.66386 4.36619 6.82165 4.36619 7.01882H4.09009C4.09009 6.67173 4.37406 6.38776 4.72116 6.38776C5.06825 6.38776 5.35223 6.67173 5.35223 7.01882C5.35223 7.23968 5.2418 7.43691 5.05244 7.55522C5.03669 7.56309 5.02876 7.57097 5.02088 7.57097C4.91833 7.63409 4.85521 7.75239 4.85521 7.87075L4.86314 8.02061Z"
        fill="currentColor" />
    <path d="M4.85541 8.28879H4.57935V8.56485H4.85541V8.28879Z" fill="currentColor" />
    <path
        d="M1.10049 10.111H0.824389V10.0085C0.824389 9.84278 0.911135 9.69292 1.05318 9.59824L1.07686 9.58249C1.1321 9.55093 1.16361 9.47993 1.16361 9.40894C1.16361 9.29851 1.07686 9.20383 0.9585 9.20383C0.848072 9.20383 0.753395 9.29058 0.753395 9.40894H0.477295C0.477295 9.14072 0.690277 8.92773 0.9585 8.92773C1.22672 8.92773 1.43971 9.14072 1.43971 9.40894C1.43971 9.57461 1.35296 9.73235 1.21092 9.81915L1.18723 9.8349C1.13199 9.87434 1.09256 9.93746 1.09256 10.0006C1.10049 10.0085 1.10049 10.111 1.10049 10.111Z"
        fill="currentColor" />
    <path d="M1.09247 10.3635H0.816406V10.6395H1.09247V10.3635Z" fill="currentColor" />
    <path
        d="M5.16306 21.8726C5.16306 22.2907 4.82384 22.622 4.41368 22.622C4.00347 22.622 3.66431 22.2827 3.66431 21.8726C3.66431 21.4545 4.00352 21.1232 4.41368 21.1232C4.82384 21.1232 5.16306 21.4546 5.16306 21.8726Z"
        fill="currentColor" />
    <path
        d="M1.52667 16.6426C1.52667 16.7688 1.42412 16.8714 1.29788 16.8714C1.17164 16.8714 1.06909 16.7688 1.06909 16.6426C1.06909 16.5164 1.17164 16.4138 1.29788 16.4138C1.42412 16.4217 1.52667 16.5164 1.52667 16.6426Z"
        fill="currentColor" />
    <path
        d="M2.2522 20.926C1.99191 20.926 1.771 20.713 1.771 20.4448C1.771 20.1845 1.98398 19.9636 2.2522 19.9636C2.51249 19.9636 2.73341 20.1765 2.73341 20.4448C2.73335 20.713 2.52037 20.926 2.2522 20.926ZM2.2522 20.2555C2.14177 20.2555 2.05497 20.3422 2.05497 20.4527C2.05497 20.5631 2.14172 20.6499 2.2522 20.6499C2.36263 20.6499 2.44943 20.5632 2.44943 20.4527C2.44938 20.3423 2.36263 20.2555 2.2522 20.2555Z"
        fill="currentColor" />
    <path d="M2.95545 7.71163L2.72119 7.47745L2.52601 7.67268L2.76027 7.90687L2.95545 7.71163Z" fill="currentColor" />
    <path d="M2.46787 7.21635L2.23877 6.98814L2.04395 7.18374L2.27306 7.41194L2.46787 7.21635Z" fill="currentColor" />
    <path d="M2.95998 7.18215L2.76538 6.98634L2.53602 7.21429L2.73061 7.4101L2.95998 7.18215Z" fill="currentColor" />
    <path d="M2.46984 7.67423L2.27441 7.47925L2.04046 7.71373L2.23588 7.90871L2.46984 7.67423Z" fill="currentColor" />
    <path d="M1.20933 14.6033L0.88623 14.2794L0.690752 14.4744L1.01385 14.7983L1.20933 14.6033Z" fill="currentColor" />
    <path d="M0.519025 13.908L0.194824 13.5852L8.02545e-06 13.7808L0.324209 14.1037L0.519025 13.908Z"
        fill="currentColor" />
    <path d="M1.20672 13.7822L1.01196 13.5865L0.68767 13.9092L0.882431 14.1049L1.20672 13.7822Z" fill="currentColor" />
    <path d="M0.521056 14.4723L0.325439 14.2774L0.00256592 14.6016L0.198183 14.7964L0.521056 14.4723Z"
        fill="currentColor" />
    <path
        d="M21.9969 4.21838V3.94228C22.0758 3.94228 22.1546 3.92653 22.2336 3.90284L22.3203 4.17107C22.2178 4.20263 22.1073 4.21838 21.9969 4.21838ZM21.6734 4.16319C21.5709 4.13163 21.4683 4.07645 21.3816 4.01333L21.5473 3.78454C21.6104 3.83185 21.6814 3.87129 21.7602 3.89497L21.6734 4.16319ZM22.6122 4.0212L22.4465 3.79242C22.5096 3.7451 22.5648 3.68986 22.6122 3.62674L22.841 3.79242C22.7778 3.87916 22.699 3.95016 22.6122 4.0212ZM21.1529 3.78454C21.0897 3.69779 21.0346 3.59524 21.003 3.49269L21.2712 3.40594C21.2949 3.48481 21.3343 3.55581 21.3816 3.61892L21.1529 3.78454ZM22.9908 3.49263L22.7226 3.40589C22.7463 3.32702 22.762 3.24809 22.762 3.16922H23.0381C23.0381 3.27965 23.0224 3.39008 22.9908 3.49263ZM20.9478 3.1771C20.9478 3.06667 20.9635 2.95624 20.9951 2.85369L21.2633 2.94043C21.2396 3.0193 21.2239 3.09823 21.2239 3.1771H20.9478ZM22.7226 2.93256C22.6989 2.85369 22.6595 2.78269 22.6122 2.71958L22.833 2.5539C22.8961 2.64065 22.9513 2.7432 22.9829 2.84576L22.7226 2.93256ZM21.3737 2.72751L21.1449 2.56184C21.208 2.47509 21.2869 2.39616 21.3737 2.33305L21.5394 2.56184C21.4763 2.60127 21.421 2.65651 21.3737 2.72751ZM22.4466 2.55396C22.3834 2.50665 22.3124 2.46721 22.2336 2.44353L22.3203 2.17531C22.4229 2.20687 22.5254 2.26205 22.6122 2.32517L22.4466 2.55396ZM21.7602 2.44348L21.6735 2.17525C21.7761 2.14369 21.8865 2.12001 21.9969 2.12001V2.39611C21.9101 2.40404 21.8312 2.41985 21.7602 2.44348Z"
        fill="currentColor" />
    <path
        d="M10.5035 2.04907V1.77297C10.5745 1.77297 10.6376 1.75722 10.7007 1.71773L10.8427 1.96227C10.7323 2.02545 10.6219 2.04907 10.5035 2.04907ZM10.1722 1.96233C10.0697 1.90709 9.98293 1.82034 9.92769 1.71779L10.1644 1.5758C10.1959 1.63104 10.2511 1.68623 10.3063 1.71779L10.1722 1.96233ZM11.0794 1.71779L10.8349 1.5758C10.8664 1.52056 10.8901 1.44956 10.8901 1.37857L11.1662 1.37069V1.37857C11.1661 1.50481 11.1425 1.61523 11.0794 1.71779ZM9.83301 1.38645C9.83301 1.26814 9.86457 1.14978 9.91975 1.05516L10.1643 1.19715C10.1327 1.25239 10.117 1.32338 10.117 1.38645H9.83301ZM10.8349 1.18927C10.8033 1.13403 10.7481 1.07884 10.6929 1.04728L10.827 0.802743C10.9295 0.857985 11.0163 0.944731 11.0715 1.04728L10.8349 1.18927ZM10.3063 1.04728L10.1644 0.810619C10.2669 0.747501 10.3773 0.715942 10.4956 0.715942V0.992042C10.4325 0.999918 10.3615 1.01572 10.3063 1.04728Z"
        fill="currentColor" />
    <path
        d="M6.85123 2.67227C6.85123 3.10611 6.50413 3.45321 6.07029 3.45321C5.63645 3.45321 5.28931 3.10611 5.28931 2.67227C5.28931 2.23844 5.6364 1.89134 6.07024 1.89134C6.50408 1.89134 6.85123 2.23844 6.85123 2.67227Z"
        fill="currentColor" />
    <path
        d="M7.44283 4.41561C7.44283 4.57341 7.3166 4.70746 7.15098 4.70746C6.99324 4.70746 6.85913 4.58123 6.85913 4.41561C6.85913 4.25782 6.98537 4.12376 7.15098 4.12376C7.3166 4.12371 7.44283 4.25782 7.44283 4.41561Z"
        fill="currentColor" />
    <path
        d="M26.8642 17.7075H25.6099C25.1839 17.7075 24.8447 17.3683 24.8447 16.9423V13.8107C24.8447 13.3847 25.1918 13.0455 25.6099 13.0455H26.8642C27.2901 13.0455 27.6293 13.3926 27.6293 13.8107V16.9423C27.6293 17.3605 27.2823 17.7075 26.8642 17.7075ZM25.6099 13.3216C25.3417 13.3216 25.1208 13.5424 25.1208 13.8107V16.9423C25.1208 17.2106 25.3417 17.4314 25.6099 17.4314H26.8642C27.1324 17.4314 27.3532 17.2106 27.3532 16.9423V13.8107C27.3532 13.5424 27.1324 13.3216 26.8642 13.3216H25.6099Z"
        fill="currentColor" />
    <path d="M27.4872 14.2997H24.9866V14.5758H27.4872V14.2997Z" fill="currentColor" />
    <path d="M26.3752 13.6687H26.0991V13.9447H26.3752V13.6687Z" fill="currentColor" />
    <path
        d="M26.3751 13.1875H26.099V12.8719C26.099 12.8246 26.0832 12.7851 26.0517 12.7457C26.0201 12.7141 25.9728 12.6984 25.9254 12.6984H25.3022C25.1839 12.6984 25.0656 12.6511 24.9788 12.5643C24.8921 12.4775 24.8447 12.367 24.8447 12.2409C24.8447 12.1226 24.892 12.0042 24.9788 11.9175C25.0656 11.8307 25.1761 11.7833 25.3022 11.7833H27.1797C27.227 11.7833 27.2664 11.7676 27.3059 11.736C27.3375 11.7045 27.3532 11.6572 27.3532 11.6098V11.2943H27.6293V11.6098C27.6293 11.7281 27.582 11.8465 27.4952 11.9332C27.4085 12.02 27.298 12.0673 27.1718 12.0673H25.2944C25.2471 12.0673 25.2076 12.0831 25.1681 12.1146C25.1366 12.1462 25.1208 12.1935 25.1208 12.2409C25.1208 12.2882 25.1366 12.3277 25.1681 12.3671C25.1997 12.4065 25.247 12.4144 25.2944 12.4144H25.9176C26.0359 12.4144 26.1542 12.4617 26.241 12.5485C26.3277 12.6353 26.3751 12.7458 26.3751 12.8719V13.1875Z"
        fill="currentColor" />
    <path
        d="M22.0439 23.963C21.9019 23.963 21.7678 24.0183 21.6732 24.1129C21.5785 24.0182 21.4444 23.963 21.3024 23.963C21.0105 23.963 20.7817 24.1997 20.7817 24.4837C20.7817 24.6257 20.837 24.7598 20.9316 24.8544L21.6652 25.5881L22.3989 24.8544C22.4935 24.7598 22.5487 24.6336 22.5487 24.4837C22.5646 24.1997 22.3279 23.963 22.0439 23.963Z"
        fill="currentColor" />
    <path
        d="M20.3717 23.0953C20.3717 23.2373 20.2534 23.3556 20.1114 23.3556C19.9694 23.3556 19.8511 23.2373 19.8511 23.0953C19.8511 22.9533 19.9694 22.835 20.1114 22.835C20.2612 22.835 20.3717 22.9533 20.3717 23.0953Z"
        fill="currentColor" />
    <path
        d="M22.2334 17.2895C22.0046 17.2895 21.7837 17.2027 21.626 17.0371C21.2868 16.6978 21.2868 16.1536 21.626 15.8144C21.7917 15.6487 22.0047 15.562 22.2334 15.562C22.4621 15.562 22.683 15.6488 22.8408 15.8144C23.0065 15.98 23.0932 16.193 23.0932 16.4217C23.0932 16.6505 23.0065 16.8714 22.8408 17.0291C22.683 17.2027 22.4622 17.2895 22.2334 17.2895ZM22.2334 15.8459C22.0756 15.8459 21.9336 15.909 21.8232 16.0194C21.5944 16.2482 21.5944 16.6189 21.8232 16.8477C21.9336 16.9581 22.0835 17.0213 22.2334 17.0213C22.3833 17.0213 22.5332 16.9581 22.6436 16.8477C22.754 16.7373 22.8171 16.5874 22.8171 16.4375C22.8171 16.2797 22.754 16.1377 22.6436 16.0273C22.5332 15.9011 22.3912 15.8459 22.2334 15.8459Z"
        fill="currentColor" />
    <path d="M23.8653 17.8616L22.845 16.8404L22.6497 17.0356L23.67 18.0568L23.8653 17.8616Z" fill="currentColor" />
    <path
        d="M25.5939 9.26695C26.5872 9.26695 27.3925 8.46172 27.3925 7.46842C27.3925 6.47512 26.5872 5.66989 25.5939 5.66989C24.6006 5.66989 23.7954 6.47512 23.7954 7.46842C23.7954 8.46172 24.6006 9.26695 25.5939 9.26695Z"
        fill="currentColor" />
    <path
        d="M24.9707 8.06792L24.3633 7.46841L24.9707 6.86102L25.1679 7.0582L24.7577 7.46841L25.1679 7.87069L24.9707 8.06792Z"
        fill="currentColor" />
    <path
        d="M26.225 8.06792L26.0278 7.87069L26.4301 7.46841L26.0278 7.0582L26.225 6.86102L26.8246 7.46841L26.225 8.06792Z"
        fill="currentColor" />
    <path d="M25.958 6.69325L25.6924 6.6179L25.2317 8.2418L25.4973 8.31715L25.958 6.69325Z" fill="currentColor" />
    <path
        d="M23.1645 10.4187L22.0759 11.5073C22.3757 11.807 22.8648 11.807 23.1724 11.5073C23.4643 11.2075 23.4643 10.7184 23.1645 10.4187Z"
        fill="currentColor" />
    <path
        d="M22.6201 11.8702C22.1153 11.8702 21.7051 11.4599 21.7051 10.9551C21.7051 10.4503 22.1153 10.0401 22.6201 10.0401C23.125 10.0401 23.5352 10.4503 23.5352 10.9551C23.5352 11.4599 23.125 11.8702 22.6201 11.8702ZM22.6201 10.3319C22.273 10.3319 21.9891 10.6159 21.9891 10.963C21.9891 11.3101 22.273 11.5941 22.6201 11.5941C22.9672 11.5941 23.2512 11.3101 23.2512 10.963C23.2512 10.6159 22.9672 10.3319 22.6201 10.3319Z"
        fill="currentColor" />
    <path d="M23.7292 10.0512L23.5339 9.85599L21.5092 11.8807L21.7044 12.076L23.7292 10.0512Z" fill="currentColor" />
    <path
        d="M10.9689 26.6767C9.63577 26.6767 8.38938 25.9746 7.71888 24.8466L7.67944 24.7756L7.71888 24.7046C8.38938 23.5766 9.63577 22.8745 10.9689 22.8745C12.302 22.8745 13.5484 23.5766 14.2189 24.7046L14.2584 24.7756L14.2189 24.8466C13.5484 25.9825 12.302 26.6767 10.9689 26.6767ZM8.00285 24.7834C8.63392 25.7853 9.76195 26.4006 10.9689 26.4006C12.1759 26.4006 13.3039 25.7852 13.935 24.7834C13.3039 23.7816 12.1759 23.1663 10.9689 23.1663C9.76195 23.1584 8.63392 23.7816 8.00285 24.7834Z"
        fill="currentColor" />
    <path
        d="M10.9689 26.1166C11.7051 26.1166 12.302 25.5197 12.302 24.7835C12.302 24.0472 11.7051 23.4503 10.9689 23.4503C10.2326 23.4503 9.63574 24.0472 9.63574 24.7835C9.63574 25.5197 10.2326 26.1166 10.9689 26.1166Z"
        fill="currentColor" />
    <path
        d="M10.9692 25.3908C10.63 25.3908 10.3618 25.1147 10.3618 24.7834C10.3618 24.4442 10.6379 24.1761 10.9692 24.1761C11.3084 24.1761 11.5766 24.4522 11.5766 24.7834C11.5766 25.1147 11.3005 25.3908 10.9692 25.3908ZM10.9692 24.4521C10.7878 24.4521 10.6379 24.602 10.6379 24.7834C10.6379 24.9648 10.7878 25.1147 10.9692 25.1147C11.1506 25.1147 11.3005 24.9648 11.3005 24.7834C11.3005 24.602 11.1506 24.4521 10.9692 24.4521Z"
        fill="currentColor" />
    <path d="M11.663 22.3302H11.387V22.6062H11.663V22.3302Z" fill="currentColor" />
    <path d="M11.1032 22.3302H10.8271V22.6062H11.1032V22.3302Z" fill="currentColor" />
    <path d="M10.551 22.3302H10.2749V22.6062H10.551V22.3302Z" fill="currentColor" />
    <path d="M11.663 26.9448H11.387V27.2209H11.663V26.9448Z" fill="currentColor" />
    <path d="M11.1032 26.9448H10.8271V27.2209H11.1032V26.9448Z" fill="currentColor" />
    <path d="M10.551 26.9448H10.2749V27.2209H10.551V26.9448Z" fill="currentColor" />
    <path d="M25.9018 19.6087H23.8823V21.6281H25.9018V19.6087Z" fill="currentColor" />
    <path
        d="M26.2565 23.7263L24.9944 20.7209L27.9999 21.983L26.7377 22.4642L26.2565 23.7263ZM25.515 21.2415L26.2408 22.9849L26.5248 22.2512L27.2584 21.9673L25.515 21.2415Z"
        fill="currentColor" />
    <path d="M27.4791 23.0107L26.7258 22.2577L26.5306 22.453L27.2839 23.206L27.4791 23.0107Z" fill="currentColor" />
    <path
        d="M17.4926 23.1032C16.7037 23.1032 16.0569 23.7422 16.0569 24.5389C16.0569 24.957 16.2383 25.3357 16.5223 25.5959C16.538 25.6038 16.546 25.6196 16.5617 25.6354C16.7826 25.8405 16.9246 26.1323 16.9246 26.4637H18.0447C18.0447 26.1403 18.1867 25.8405 18.4076 25.6354C18.4233 25.6196 18.4312 25.6117 18.447 25.5959C18.731 25.3357 18.9124 24.957 18.9124 24.5389C18.9282 23.7422 18.2814 23.1032 17.4926 23.1032Z"
        fill="currentColor" />
    <path d="M17.4926 23.5765V24.6178H17.043L17.4926 23.5765Z" fill="currentColor" />
    <path d="M17.4927 25.4934V24.4521H17.9423L17.4927 25.4934Z" fill="currentColor" />
    <path d="M18.171 26.3138H16.8142V26.5899H18.171V26.3138Z" fill="currentColor" />
    <path d="M18.171 26.7871H16.8142V27.0632H18.171V26.7871Z" fill="currentColor" />
    <path d="M17.8002 27.2525H17.177V27.5286H17.8002V27.2525Z" fill="currentColor" />
    <path d="M15.8151 22.7535L15.5808 22.5193L15.3856 22.7145L15.6199 22.9487L15.8151 22.7535Z" fill="currentColor" />
    <path d="M15.3233 22.2538L15.094 22.0258L14.8993 22.2215L15.1286 22.4495L15.3233 22.2538Z" fill="currentColor" />
    <path d="M15.8198 22.2252L15.6252 22.0294L15.3959 22.2573L15.5905 22.4531L15.8198 22.2252Z" fill="currentColor" />
    <path d="M15.3246 22.7128L15.1294 22.5175L14.8952 22.7518L15.0904 22.947L15.3246 22.7128Z" fill="currentColor" />
    <path d="M18.5359 22.0973L18.2129 21.7733L18.0174 21.9682L18.3404 22.2922L18.5359 22.0973Z" fill="currentColor" />
    <path d="M17.848 21.4132L17.5239 21.0902L17.329 21.2858L17.6532 21.6088L17.848 21.4132Z" fill="currentColor" />
    <path d="M18.5373 21.281L18.3425 21.0853L18.0182 21.408L18.213 21.6037L18.5373 21.281Z" fill="currentColor" />
    <path d="M17.8431 21.9715L17.6475 21.7767L17.3246 22.1009L17.5202 22.2957L17.8431 21.9715Z" fill="currentColor" />
</svg>
