<svg width="200" height="200" viewBox="0 0 200 200" data-stroke="white" stroke="white"
    xmlns="http://www.w3.org/2000/svg">
    <g clip-path="url(#clip0_262_2262)">
        <path d="M100.301 51.5321L98.9062 50.1378L98.1892 50.8549L99.5835 52.2492L100.301 51.5321Z" data-stroke="white"
            stroke="white" fill="none" data-fill="#41464B" />
        <path
            d="M57.7276 94.0838L56.3188 92.675L57.7276 91.2662L59.1364 92.675L57.7276 94.0838ZM60.5448 91.3229L59.136 89.9141L60.5448 88.5053L61.9536 89.9141L60.5448 91.3229ZM63.3057 88.5057L61.8969 87.0969L63.3057 85.6881L64.7145 87.0969L63.3057 88.5057ZM66.1233 85.7448L64.7145 84.336L66.1233 82.9272L67.5321 84.336L66.1233 85.7448ZM68.8842 82.9272L67.4754 81.5184L68.8842 80.1096L70.293 81.5184L68.8842 82.9272ZM71.7014 80.1663L70.2926 78.7575L71.7014 77.3487L73.1102 78.7575L71.7014 80.1663ZM74.4623 77.3491L73.0535 75.9403L74.4623 74.5315L75.8711 75.9403L74.4623 77.3491ZM77.2795 74.5882L75.8707 73.1794L77.2795 71.7706L78.6883 73.1794L77.2795 74.5882ZM80.0404 71.771L78.6316 70.3622L80.0404 68.9534L81.4492 70.3622L80.0404 71.771ZM82.858 69.0101L81.4492 67.6013L82.858 66.1925L84.2667 67.6013L82.858 69.0101ZM85.6189 66.1925L84.2101 64.7837L85.6189 63.3749L87.0277 64.7837L85.6189 66.1925ZM88.4361 63.4316L87.0273 62.0228L88.4361 60.614L89.8448 62.0228L88.4361 63.4316ZM91.197 60.6144L89.7882 59.2056L91.197 57.7968L92.6058 59.2056L91.197 60.6144ZM94.0142 57.8535L92.6054 56.4447L94.0142 55.0359L95.4229 56.4447L94.0142 57.8535ZM96.7751 55.0363L95.3663 53.6275L96.7751 52.2188L98.1839 53.6275L96.7751 55.0363Z"
            data-stroke="white" stroke="white" fill="none" data-fill="#41464B" />
        <path d="M56.345 95.4817L54.9507 94.0874L54.2336 94.8044L55.628 96.1988L56.345 95.4817Z" data-stroke="white"
            stroke="white" fill="none" data-fill="#41464B" />
        <path d="M148.925 100.119L147.531 98.7244L146.814 99.4414L148.208 100.836L148.925 100.119Z" data-stroke="white"
            stroke="white" fill="none" data-fill="#41464B" />
        <path
            d="M106.354 142.71L104.945 141.301L106.354 139.892L107.763 141.301L106.354 142.71ZM109.115 139.949L107.706 138.54L109.115 137.131L110.524 138.54L109.115 139.949ZM111.932 137.132L110.523 135.723L111.932 134.314L113.341 135.723L111.932 137.132ZM114.693 134.371L113.284 132.962L114.693 131.553L116.102 132.962L114.693 134.371ZM117.51 131.554L116.102 130.145L117.51 128.736L118.919 130.145L117.51 131.554ZM120.271 128.737L118.862 127.328L120.271 125.919L121.68 127.328L120.271 128.737ZM123.089 125.975L121.68 124.566L123.089 123.158L124.498 124.566L123.089 125.975ZM125.85 123.158L124.441 121.749L125.85 120.34L127.258 121.749L125.85 123.158ZM128.667 120.397L127.258 118.988L128.667 117.58L130.076 118.988L128.667 120.397ZM131.428 117.58L130.019 116.171L131.428 114.762L132.837 116.171L131.428 117.58ZM134.245 114.819L132.836 113.41L134.245 112.001L135.654 113.41L134.245 114.819ZM137.006 112.002L135.597 110.593L137.006 109.184L138.415 110.593L137.006 112.002ZM139.823 109.241L138.414 107.832L139.823 106.423L141.232 107.832L139.823 109.241ZM142.641 106.423L141.232 105.015L142.641 103.606L144.049 105.015L142.641 106.423ZM145.402 103.662L143.993 102.254L145.402 100.845L146.81 102.254L145.402 103.662Z"
            data-stroke="white" stroke="white" fill="none" data-fill="#41464B" />
        <path d="M104.954 144.071L103.56 142.676L102.843 143.393L104.237 144.788L104.954 144.071Z" data-stroke="white"
            stroke="white" fill="none" data-fill="#41464B" />
        <path d="M100.264 143.403L99.5469 142.686L98.152 144.08L98.8687 144.797L100.264 143.403Z" data-stroke="white"
            stroke="white" fill="none" data-fill="#41464B" />
        <path
            d="M96.7751 142.71L95.3663 141.301L96.7751 139.892L98.1839 141.301L96.7751 142.71ZM94.0142 139.949L92.6054 138.54L94.0142 137.131L95.4229 138.54L94.0142 139.949ZM91.197 137.132L89.7882 135.723L91.197 134.314L92.6058 135.723L91.197 137.132ZM88.4361 134.371L87.0273 132.962L88.4361 131.553L89.8448 132.962L88.4361 134.371ZM85.6189 131.554L84.2101 130.145L85.6189 128.736L87.0277 130.145L85.6189 131.554ZM82.858 128.737L81.4492 127.328L82.858 125.919L84.2667 127.328L82.858 128.737ZM80.0404 125.975L78.6316 124.566L80.0404 123.158L81.4492 124.566L80.0404 125.975ZM77.2232 123.158L75.8144 121.749L77.2232 120.34L78.632 121.749L77.2232 123.158ZM74.4623 120.397L73.0535 118.988L74.4623 117.58L75.8711 118.988L74.4623 120.397ZM71.6451 117.58L70.2363 116.171L71.6451 114.762L73.0539 116.171L71.6451 117.58ZM68.8842 114.819L67.4754 113.41L68.8842 112.001L70.293 113.41L68.8842 114.819ZM66.0666 112.002L64.6579 110.593L66.0666 109.184L67.4754 110.593L66.0666 112.002ZM63.3057 109.241L61.8969 107.832L63.3057 106.423L64.7145 107.832L63.3057 109.241ZM60.4885 106.423L59.0798 105.015L60.4885 103.606L61.8973 105.015L60.4885 106.423ZM57.7276 103.662L56.3188 102.254L57.7276 100.845L59.1364 102.254L57.7276 103.662Z"
            data-stroke="white" stroke="white" fill="none" data-fill="#41464B" />
        <path d="M56.3159 99.4472L55.5991 98.7299L54.2042 100.124L54.921 100.841L56.3159 99.4472Z" data-stroke="white"
            stroke="white" fill="none" data-fill="#41464B" />
        <path d="M148.894 94.8345L148.177 94.1175L146.782 95.5118L147.499 96.2288L148.894 94.8345Z" data-stroke="white"
            stroke="white" fill="none" data-fill="#41464B" />
        <path
            d="M145.402 94.0838L143.993 92.675L145.402 91.2662L146.81 92.675L145.402 94.0838ZM142.584 91.3229L141.176 89.9141L142.584 88.5053L143.993 89.9141L142.584 91.3229ZM139.823 88.5057L138.414 87.0969L139.823 85.6881L141.232 87.0969L139.823 88.5057ZM137.006 85.7448L135.597 84.336L137.006 82.9272L138.415 84.336L137.006 85.7448ZM134.245 82.9272L132.836 81.5184L134.245 80.1096L135.654 81.5184L134.245 82.9272ZM131.428 80.1663L130.019 78.7575L131.428 77.3487L132.837 78.7575L131.428 80.1663ZM128.667 77.3491L127.258 75.9403L128.667 74.5315L130.076 75.9403L128.667 77.3491ZM125.85 74.5882L124.441 73.1794L125.85 71.7706L127.258 73.1794L125.85 74.5882ZM123.089 71.771L121.68 70.3622L123.089 68.9534L124.498 70.3622L123.089 71.771ZM120.271 69.0101L118.862 67.6013L120.271 66.1925L121.68 67.6013L120.271 69.0101ZM117.51 66.1925L116.102 64.7837L117.51 63.3749L118.919 64.7837L117.51 66.1925ZM114.693 63.4316L113.284 62.0228L114.693 60.614L116.102 62.0228L114.693 63.4316ZM111.932 60.6144L110.523 59.2056L111.932 57.7968L113.341 59.2056L111.932 60.6144ZM109.115 57.8535L107.706 56.4447L109.115 55.0359L110.524 56.4447L109.115 57.8535ZM106.354 55.0363L104.945 53.6275L106.354 52.2188L107.763 53.6275L106.354 55.0363Z"
            data-stroke="white" stroke="white" fill="none" data-fill="#41464B" />
        <path d="M104.939 50.8785L104.222 50.1614L102.827 51.5558L103.544 52.2728L104.939 50.8785Z" data-stroke="white"
            stroke="white" fill="none" data-fill="#41464B" />
        <path d="M140.679 97.477L101.554 58.3525L62.4297 97.477L101.554 136.601L140.679 97.477Z" data-stroke="white"
            stroke="white" fill="none" data-fill="#AFAFAF" />
        <path d="M148.782 36.0479L162.981 50.247L54.3466 158.881L40.1475 144.682L148.782 36.0479Z" data-stroke="white"
            stroke="white" fill="none" data-fill="#FF7443" />
        <path d="M153.158 60.0599L150.209 57.1124L148.815 58.5073L151.764 61.4548L153.158 60.0599Z" data-stroke="white"
            stroke="white" fill="none" data-fill="#41464B" />
        <path d="M149.662 63.6031L146.713 60.6555L145.319 62.0504L148.268 64.998L149.662 63.6031Z" data-stroke="white"
            stroke="white" fill="none" data-fill="#41464B" />
        <path d="M146.14 67.1104L143.193 64.1608L141.798 65.5547L144.745 68.5043L146.14 67.1104Z" data-stroke="white"
            stroke="white" fill="none" data-fill="#41464B" />
        <path d="M142.658 70.5743L139.71 67.6255L138.316 69.0198L141.264 71.9686L142.658 70.5743Z" data-stroke="white"
            stroke="white" fill="none" data-fill="#41464B" />
        <path d="M139.15 74.0788L136.201 71.1312L134.807 72.5261L137.756 75.4737L139.15 74.0788Z" data-stroke="white"
            stroke="white" fill="none" data-fill="#41464B" />
        <path d="M135.647 77.6222L132.699 74.6738L131.304 76.0683L134.253 79.0167L135.647 77.6222Z" data-stroke="white"
            stroke="white" fill="none" data-fill="#41464B" />
        <path d="M132.128 81.1248L129.18 78.176L127.785 79.5703L130.733 82.5191L132.128 81.1248Z" data-stroke="white"
            stroke="white" fill="none" data-fill="#41464B" />
        <path d="M128.621 84.6332L125.672 81.6852L124.278 83.0799L127.226 86.0279L128.621 84.6332Z" data-stroke="white"
            stroke="white" fill="none" data-fill="#41464B" />
        <path d="M125.135 88.0962L122.187 85.1478L120.793 86.5423L123.741 89.4907L125.135 88.0962Z" data-stroke="white"
            stroke="white" fill="none" data-fill="#41464B" />
        <path d="M121.631 91.6068L118.684 88.6576L117.289 90.0517L120.236 93.0009L121.631 91.6068Z" data-stroke="white"
            stroke="white" fill="none" data-fill="#41464B" />
        <path d="M118.113 95.1091L115.164 92.162L113.77 93.5571L116.719 96.5042L118.113 95.1091Z" data-stroke="white"
            stroke="white" fill="none" data-fill="#41464B" />
        <path d="M114.606 98.6473L111.657 95.6998L110.263 97.0947L113.212 100.042L114.606 98.6473Z" data-stroke="white"
            stroke="white" fill="none" data-fill="#41464B" />
        <path d="M111.083 102.152L108.135 99.2029L106.74 100.597L109.688 103.546L111.083 102.152Z" data-stroke="white"
            stroke="white" fill="none" data-fill="#41464B" />
        <path d="M107.6 105.617L104.652 102.669L103.257 104.063L106.205 107.012L107.6 105.617Z" data-stroke="white"
            stroke="white" fill="none" data-fill="#41464B" />
        <path d="M104.108 109.131L101.159 106.184L99.7648 107.579L102.714 110.526L104.108 109.131Z" data-stroke="white"
            stroke="white" fill="none" data-fill="#41464B" />
        <path d="M100.613 112.669L97.665 109.721L96.2705 111.115L99.2189 114.064L100.613 112.669Z" data-stroke="white"
            stroke="white" fill="none" data-fill="#41464B" />
        <path d="M97.1081 116.179L94.1597 113.231L92.7652 114.626L95.7136 117.574L97.1081 116.179Z" data-stroke="white"
            stroke="white" fill="none" data-fill="#41464B" />
        <path d="M93.587 119.69L90.6382 116.742L89.2439 118.136L92.1927 121.084L93.587 119.69Z" data-stroke="white"
            stroke="white" fill="none" data-fill="#41464B" />
        <path d="M90.1065 123.153L87.1572 120.206L85.7631 121.6L88.7124 124.548L90.1065 123.153Z" data-stroke="white"
            stroke="white" fill="none" data-fill="#41464B" />
        <path d="M86.6027 126.682L83.6543 123.734L82.2598 125.129L85.2082 128.077L86.6027 126.682Z" data-stroke="white"
            stroke="white" fill="none" data-fill="#41464B" />
        <path d="M83.0619 130.159L80.1147 127.209L78.7197 128.603L81.6668 131.553L83.0619 130.159Z" data-stroke="white"
            stroke="white" fill="none" data-fill="#41464B" />
        <path d="M79.584 133.709L76.6348 130.761L75.2407 132.156L78.1899 135.103L79.584 133.709Z" data-stroke="white"
            stroke="white" fill="none" data-fill="#41464B" />
        <path d="M76.0565 137.213L73.1094 134.263L71.7143 135.657L74.6614 138.607L76.0565 137.213Z" data-stroke="white"
            stroke="white" fill="none" data-fill="#41464B" />
        <path d="M72.572 140.671L69.624 137.723L68.2293 139.117L71.1773 142.066L72.572 140.671Z" data-stroke="white"
            stroke="white" fill="none" data-fill="#41464B" />
        <path d="M69.0503 144.173L66.1011 141.225L64.707 142.62L67.6562 145.568L69.0503 144.173Z" data-stroke="white"
            stroke="white" fill="none" data-fill="#41464B" />
        <path d="M65.5391 147.687L62.5898 144.74L61.1957 146.135L64.145 149.082L65.5391 147.687Z" data-stroke="white"
            stroke="white" fill="none" data-fill="#41464B" />
        <path d="M62.0383 151.21L59.0903 148.261L57.6956 149.656L60.6436 152.604L62.0383 151.21Z" data-stroke="white"
            stroke="white" fill="none" data-fill="#41464B" />
        <path d="M58.5341 154.741L55.5869 151.791L54.1918 153.185L57.139 156.135L58.5341 154.741Z" data-stroke="white"
            stroke="white" fill="none" data-fill="#41464B" />
        <path
            d="M150.641 51.9371C149.683 51.9371 148.838 51.5991 148.162 50.9229C146.81 49.5707 146.81 47.3169 148.162 45.9644C148.838 45.2881 149.683 44.9502 150.641 44.9502C151.599 44.9502 152.444 45.2881 153.121 45.9644C153.797 46.6407 154.135 47.4857 154.135 48.4436C154.135 49.4016 153.797 50.2466 153.121 50.9229C152.444 51.5429 151.543 51.9371 150.641 51.9371ZM150.641 46.8661C150.247 46.8661 149.853 47.0352 149.571 47.3169C148.951 47.9365 148.951 48.8945 149.571 49.4582C150.134 50.0216 151.148 50.0216 151.712 49.4582C151.994 49.1765 152.163 48.782 152.163 48.3878C152.163 47.9932 151.994 47.599 151.712 47.3173C151.43 47.0352 151.035 46.8661 150.641 46.8661Z"
            data-stroke="white" stroke="white" fill="none" data-fill="#41464B" />
        <path d="M54.7187 61.143L137.071 143.496L147.589 132.977L65.2368 50.6248L54.7187 61.143Z" data-stroke="white"
            stroke="white" fill="none" data-fill="#4CBED8" />
        <path
            d="M161.122 150.993C161.685 150.43 162.079 149.641 162.079 148.739C162.079 147.837 161.742 147.049 161.122 146.485L158.135 143.499L147.599 154.036L150.585 157.022C151.148 157.585 151.937 157.98 152.839 157.98C153.74 157.98 154.529 157.642 155.093 157.022L161.122 150.993Z"
            data-stroke="white" stroke="white" fill="none" data-fill="#AFAFAF" />
        <path
            d="M53.84 61.5724L42.8525 38.8087L65.6724 49.7399L64.8274 51.5429L47.1348 43.0347L55.6429 60.7273L53.84 61.5724Z"
            data-stroke="white" stroke="white" fill="none" data-fill="#41464B" />
        <path d="M51.8086 44.4261L50.4141 43.0316L47.1071 46.3386L48.5016 47.7331L51.8086 44.4261Z" data-stroke="white"
            stroke="white" fill="none" data-fill="#41464B" />
        <path
            d="M137.062 144.513C136.781 144.513 136.555 144.401 136.386 144.232L54.0088 61.854C53.6142 61.4594 53.6142 60.8398 54.0088 60.4452L64.5454 49.9087C64.94 49.5141 65.5596 49.5141 65.9542 49.9087L148.331 132.286C148.726 132.68 148.726 133.3 148.331 133.695L137.795 144.231C137.626 144.4 137.344 144.513 137.062 144.513ZM56.1501 61.1778L137.119 142.146L146.247 133.018L65.2217 52.05L56.1501 61.1778Z"
            data-stroke="white" stroke="white" fill="none" data-fill="#41464B" />
        <path
            d="M139.936 141.639C139.654 141.639 139.429 141.527 139.259 141.358L56.8824 58.9802C56.4878 58.5857 56.4878 57.966 56.8824 57.5715L61.6717 52.7821C62.0663 52.3876 62.6859 52.3876 63.0805 52.7821L145.458 135.159C145.627 135.328 145.739 135.61 145.739 135.892C145.739 136.173 145.627 136.399 145.458 136.568L140.668 141.357C140.443 141.527 140.217 141.639 139.936 141.639ZM59.0233 58.3044L139.992 139.273L143.373 135.892L62.3479 54.9235L59.0233 58.3044Z"
            data-stroke="white" stroke="white" fill="none" data-fill="#41464B" />
        <path
            d="M147.599 155.444L135.654 143.499L147.599 131.553L159.545 143.499L147.599 155.444ZM138.471 143.499L147.599 152.627L156.727 143.499L147.599 134.428L138.471 143.499Z"
            data-stroke="white" stroke="white" fill="none" data-fill="#41464B" />
        <path
            d="M152.839 158.937C151.712 158.937 150.641 158.487 149.853 157.698L146.134 153.979L158.079 142.034L161.798 145.752C162.587 146.541 163.038 147.612 163.038 148.683C163.038 149.81 162.587 150.824 161.798 151.613L155.769 157.642C155.036 158.543 153.966 158.937 152.839 158.937ZM149.007 154.036L151.317 156.346C151.712 156.74 152.275 156.965 152.895 156.965V157.98V156.965C153.458 156.965 154.022 156.74 154.416 156.346L160.445 150.317C160.84 149.922 161.065 149.359 161.065 148.795C161.065 148.232 160.839 147.669 160.445 147.274L158.135 144.964L149.007 154.036Z"
            data-stroke="white" stroke="white" fill="none" data-fill="#41464B" />
        <path d="M153.547 138.966L152.152 137.572L141.636 148.091L143.03 149.485L153.547 138.966Z" data-stroke="white"
            stroke="white" fill="none" data-fill="#41464B" />
        <path
            d="M101.564 54.2475L96.2114 48.8948L101.564 43.5422L106.917 48.8948L101.564 54.2475ZM99.0286 48.8945L101.564 51.43L104.1 48.8945L101.564 46.359L99.0286 48.8945Z"
            data-stroke="white" stroke="white" fill="none" data-fill="#41464B" />
        <path
            d="M101.564 151.443L96.2114 146.091L101.564 140.738L106.917 146.091L101.564 151.443ZM99.0286 146.091L101.564 148.626L104.1 146.091L101.564 143.555L99.0286 146.091Z"
            data-stroke="white" stroke="white" fill="none" data-fill="#41464B" />
        <path
            d="M150.191 102.817L144.838 97.4647L150.191 92.1121L155.544 97.4647L150.191 102.817ZM147.599 97.4643L150.135 99.9998L152.67 97.4643L150.135 94.9288L147.599 97.4643Z"
            data-stroke="white" stroke="white" fill="none" data-fill="#41464B" />
        <path
            d="M52.9381 102.817L47.5854 97.4647L52.9381 92.1121L58.2908 97.4647L52.9381 102.817ZM50.4026 97.4643L52.9381 99.9998L55.4736 97.4643L52.9381 94.9288L50.4026 97.4643Z"
            data-stroke="white" stroke="white" fill="none" data-fill="#41464B" />
        <path
            d="M120.891 44.7252H116.271L115.37 40.2738C114.637 40.1046 113.905 39.9359 113.228 39.7104L110.242 43.1476L106.241 40.8375L107.706 36.5553C107.143 36.0482 106.636 35.5411 106.129 34.9778L101.847 36.4428L99.5365 32.4423L102.974 29.4559C102.748 28.7234 102.523 27.9909 102.41 27.3146L97.959 26.4129V21.7924L102.41 20.8907C102.58 20.1582 102.748 19.4257 102.974 18.6931L99.5365 15.7068L101.847 11.7063L106.129 13.1713C106.636 12.608 107.143 12.1009 107.706 11.5938L106.241 7.25528L110.242 4.9452L113.228 8.38238C113.961 8.15696 114.637 7.93154 115.37 7.81903L116.271 3.36765H120.891L121.793 7.81903C122.526 7.98819 123.258 8.15696 123.934 8.38238L126.921 5.00146L130.921 7.31154L129.456 11.65C130.02 12.1571 130.527 12.6642 131.034 13.2276L135.372 11.7625L137.682 15.7631L134.245 18.7494C134.471 19.4819 134.696 20.1582 134.809 20.8907L139.26 21.7924V26.4125L134.809 27.3142C134.639 28.0468 134.471 28.7793 134.245 29.4555L137.682 32.4419L135.372 36.4424L131.034 34.9774C130.527 35.5407 130.02 36.0478 129.456 36.5549L130.921 40.8371L126.921 43.1472L123.934 39.71C123.202 39.9355 122.526 40.1609 121.793 40.2734L120.891 44.7252ZM117.849 42.6964H119.201L120.046 38.4704L120.722 38.3579C121.793 38.1887 122.807 37.9071 123.821 37.5129L124.441 37.2875L127.258 40.4992L128.441 39.8229L127.089 35.7662L127.652 35.3153C128.497 34.639 129.23 33.9065 129.906 33.0615L130.357 32.4981L134.414 33.8503L135.09 32.6669L131.878 29.8497L132.104 29.1735C132.498 28.1593 132.78 27.1451 132.949 26.0746L133.061 25.3983L137.287 24.5533V23.2012L133.061 22.3561L132.949 21.6799C132.78 20.6094 132.498 19.5952 132.104 18.581L131.878 17.9048L135.09 15.0876L134.414 13.9042L130.357 15.2564L129.906 14.693C129.23 13.848 128.497 13.1154 127.652 12.4392L127.089 11.9883L128.441 7.93154L127.258 7.25528L124.441 10.467L123.821 10.2416C122.807 9.84703 121.793 9.56536 120.722 9.39658L120.046 9.28407L119.201 5.05811H117.849L117.004 9.28407L116.327 9.39658C115.313 9.56575 114.243 9.84743 113.229 10.2416L112.609 10.467L109.792 7.25528L108.608 7.93154L109.961 11.9883L109.397 12.4392C108.552 13.1154 107.82 13.848 107.143 14.693L106.693 15.2564L102.636 13.9042L101.96 15.1438L105.171 17.961L104.946 18.6373C104.551 19.6515 104.27 20.7219 104.101 21.7361L103.988 22.4124L99.7624 23.2574V24.6096L103.988 25.4546L104.101 26.1309C104.27 27.1451 104.552 28.2155 104.946 29.2297L105.171 29.8493L101.96 32.6665L102.636 33.8499L106.693 32.4977L107.143 33.0611C107.82 33.9061 108.552 34.6387 109.397 35.3149L109.961 35.7658L108.608 39.8226L109.792 40.4988L112.609 37.2871L113.285 37.5125C114.299 37.9071 115.314 38.1887 116.384 38.3575L117.06 38.47L117.849 42.6964Z"
            data-stroke="white" stroke="white" fill="none" data-fill="#41464B" />
        <path
            d="M118.581 35.4278C112.214 35.4278 107.143 30.3002 107.143 23.9896C107.143 17.6789 112.27 12.5513 118.581 12.5513C124.891 12.5513 130.019 17.6789 130.019 23.9896C130.019 30.3006 124.891 35.4278 118.581 35.4278Z"
            data-stroke="white" stroke="white" fill="none" data-fill="#FED65C" />
        <path
            d="M118.581 29.7935C115.369 29.7935 112.721 27.1451 112.721 23.9337C112.721 20.6657 115.37 18.0739 118.581 18.0739C121.792 18.0739 124.441 20.7223 124.441 23.9337C124.441 27.2013 121.792 29.7935 118.581 29.7935ZM118.581 20.0457C116.44 20.0457 114.693 21.7924 114.693 23.9337C114.693 26.075 116.44 27.8217 118.581 27.8217C120.722 27.8217 122.469 26.075 122.469 23.9337C122.412 21.7924 120.722 20.0457 118.581 20.0457Z"
            data-stroke="white" stroke="white" fill="none" data-fill="#41464B" />
        <path
            d="M78.1246 33.6248C78.1246 35.5407 76.547 37.1183 74.6311 37.1183C72.7153 37.1183 71.1377 35.5407 71.1377 33.6248C71.1377 31.709 72.7153 30.1314 74.6311 30.1314C76.5466 30.1314 78.1246 31.709 78.1246 33.6248Z"
            data-stroke="white" stroke="white" fill="none" data-fill="#AFAFAF" />
        <path
            d="M74.5746 41.5134C70.2361 41.5134 66.686 37.9637 66.686 33.6249C66.686 29.286 70.2357 25.7363 74.5746 25.7363C78.9131 25.7363 82.4632 29.286 82.4632 33.6249C82.519 37.9633 78.9693 41.5134 74.5746 41.5134ZM74.5746 27.7084C71.3628 27.7084 68.7148 30.3568 68.7148 33.6249C68.7148 36.8929 71.3632 39.5413 74.6312 39.5413C77.8993 39.5413 80.5477 36.8929 80.5477 33.6249C80.4906 30.3568 77.8426 27.7084 74.5746 27.7084Z"
            data-stroke="white" stroke="white" fill="none" data-fill="#41464B" />
        <path d="M75.5886 23.9333H73.6167V26.6939H75.5886V23.9333Z" data-stroke="white" stroke="white" fill="none"
            data-fill="#41464B" />
        <path d="M72.0122 27.1779L70.6309 24.7878L68.9236 25.7746L70.305 28.1646L72.0122 27.1779Z" data-stroke="white"
            stroke="white" fill="none" data-fill="#41464B" />
        <path d="M69.0948 29.3001L66.7036 27.9209L65.7185 29.629L68.1097 31.0081L69.0948 29.3001Z" data-stroke="white"
            stroke="white" fill="none" data-fill="#41464B" />
        <path d="M67.7 32.6107H64.9395V34.5825H67.7V32.6107Z" data-stroke="white" stroke="white" fill="none"
            data-fill="#41464B" />
        <path d="M69.1108 37.9145L68.124 36.2072L65.7339 37.5886L66.7207 39.2958L69.1108 37.9145Z" data-stroke="white"
            stroke="white" fill="none" data-fill="#41464B" />
        <path d="M72.0479 40.0929L70.3408 39.1057L68.9589 41.4955L70.6659 42.4827L72.0479 40.0929Z" data-stroke="white"
            stroke="white" fill="none" data-fill="#41464B" />
        <path d="M75.5886 40.4992H73.6167V43.2598H75.5886V40.4992Z" data-stroke="white" stroke="white" fill="none"
            data-fill="#41464B" />
        <path d="M80.3017 41.5042L78.915 39.1172L77.21 40.1077L78.5966 42.4947L80.3017 41.5042Z" data-stroke="white"
            stroke="white" fill="none" data-fill="#41464B" />
        <path d="M83.4697 37.606L81.0791 36.2257L80.0932 37.9334L82.4838 39.3136L83.4697 37.606Z" data-stroke="white"
            stroke="white" fill="none" data-fill="#41464B" />
        <path d="M84.2654 32.6107H81.5049V34.5825H84.2654V32.6107Z" data-stroke="white" stroke="white" fill="none"
            data-fill="#41464B" />
        <path d="M83.4811 29.6526L82.4951 27.9449L80.1045 29.3252L81.0904 31.0328L83.4811 29.6526Z" data-stroke="white"
            stroke="white" fill="none" data-fill="#41464B" />
        <path d="M80.2935 25.7708L78.5884 24.7805L77.202 27.1676L78.9071 28.1578L80.2935 25.7708Z" data-stroke="white"
            stroke="white" fill="none" data-fill="#41464B" />
        <path
            d="M42.3453 78.3633C43.6412 76.0532 43.3032 73.0669 41.3311 71.151C39.359 69.1789 36.4289 68.8409 34.1188 70.1368C33.3863 67.6013 31.0762 65.7417 28.3153 65.7417C25.5544 65.7417 23.1876 67.6009 22.5118 70.1368C20.2017 68.8409 17.2716 69.1789 15.2995 71.151C13.3273 73.1232 12.9894 76.0532 14.2853 78.3633C11.7498 79.0958 9.89014 81.4059 9.89014 84.1668C9.89014 87.4911 12.5948 90.1958 15.9191 90.1958H26.0048C29.3291 90.1958 32.0337 92.9004 32.0337 96.2247V104.845H34.6821V96.281C34.6821 92.9567 37.3868 90.252 40.7111 90.252C42.4016 90.252 43.8666 89.5758 44.9933 88.5053C46.0638 87.4349 46.74 85.9136 46.74 84.2231C46.74 81.4059 44.8808 79.0958 42.3453 78.3633Z"
            data-stroke="white" stroke="white" fill="none" data-fill="#FF7443" />
        <path d="M25.2717 83.0964H23.2998V85.0683H25.2717V83.0964Z" data-stroke="white" stroke="white" fill="none"
            data-fill="white" />
        <path d="M29.2722 83.0964H27.3003V85.0683H29.2722V83.0964Z" data-stroke="white" stroke="white" fill="none"
            data-fill="white" />
        <path d="M33.2165 83.0964H31.2446V85.0683H33.2165V83.0964Z" data-stroke="white" stroke="white" fill="none"
            data-fill="white" />
        <path
            d="M45.5562 125.919C45.5562 131.892 40.7106 136.681 34.7942 136.681C28.8215 136.681 24.0322 131.835 24.0322 125.919C24.0322 119.946 28.8778 115.157 34.7942 115.157C40.7106 115.157 45.5562 120.003 45.5562 125.919Z"
            data-stroke="white" stroke="white" fill="none" data-fill="#FED65C" />
        <path d="M35.7524 120.679H33.7803V128.285H35.7524V120.679Z" data-stroke="white" stroke="white" fill="none"
            data-fill="#41464B" />
        <path d="M35.7521 129.751H33.7803V131.666H35.7521V129.751Z" data-stroke="white" stroke="white" fill="none"
            data-fill="#41464B" />
        <path
            d="M34.7381 57.2901H32.766V56.2197C32.766 54.6421 33.5548 53.2333 34.9073 52.3883L34.9636 52.332C35.0198 52.332 35.0761 52.2758 35.0761 52.2758C35.8086 51.8249 36.2594 50.9799 36.2594 50.1345C36.2594 48.7257 35.1323 47.599 33.7239 47.599C32.3156 47.599 31.1885 48.7261 31.1885 50.1345H29.2163C29.2163 47.6552 31.2447 45.6268 33.7239 45.6268C36.2032 45.6268 38.2316 47.6552 38.2316 50.1345C38.2316 51.712 37.4428 53.1208 36.0903 53.9658C35.9778 54.0221 35.9211 54.0784 35.8649 54.0784C35.1323 54.5292 34.6815 55.3742 34.6815 56.2197L34.7381 57.2901Z"
            data-stroke="white" stroke="white" fill="none" data-fill="#41464B" />
        <path d="M34.6814 59.2056H32.7095V61.1775H34.6814V59.2056Z" data-stroke="white" stroke="white" fill="none"
            data-fill="#41464B" />
        <path
            d="M7.86154 72.2215H5.8894V71.4889C5.8894 70.3056 6.50901 69.2351 7.5236 68.5589L7.69277 68.4463C8.08735 68.2209 8.31238 67.7138 8.31238 67.2067C8.31238 66.4179 7.69277 65.7417 6.84734 65.7417C6.05856 65.7417 5.3823 66.3613 5.3823 67.2067H3.41016C3.41016 65.2908 4.93146 63.7695 6.84734 63.7695C8.76322 63.7695 10.2845 65.2908 10.2845 67.2067C10.2845 68.3901 9.66491 69.5168 8.65032 70.1368L8.48115 70.2493C8.08657 70.531 7.80489 70.9818 7.80489 71.4327C7.86154 71.4893 7.86154 72.2215 7.86154 72.2215Z"
            data-stroke="white" stroke="white" fill="none" data-fill="#41464B" />
        <path d="M7.80537 74.0248H5.8335V75.9967H7.80537V74.0248Z" data-stroke="white" stroke="white" fill="none"
            data-fill="#41464B" />
        <path
            d="M36.8797 156.233C36.8797 159.219 34.4567 161.585 31.527 161.585C28.5969 161.585 26.1743 159.163 26.1743 156.233C26.1743 153.246 28.5973 150.88 31.527 150.88C34.4567 150.88 36.8797 153.247 36.8797 156.233Z"
            data-stroke="white" stroke="white" fill="none" data-fill="#AFAFAF" />
        <path
            d="M10.9042 118.876C10.9042 119.777 10.1716 120.51 9.26995 120.51C8.36826 120.51 7.63574 119.777 7.63574 118.876C7.63574 117.974 8.36826 117.242 9.26995 117.242C10.1716 117.298 10.9042 117.974 10.9042 118.876Z"
            data-stroke="white" stroke="white" fill="none" data-fill="#AFAFAF" />
        <path
            d="M16.0881 149.471C14.2288 149.471 12.6509 147.95 12.6509 146.034C12.6509 144.175 14.1722 142.597 16.0881 142.597C17.9473 142.597 19.5252 144.118 19.5252 146.034C19.5249 147.95 18.0036 149.471 16.0881 149.471ZM16.0881 144.682C15.2993 144.682 14.6793 145.302 14.6793 146.091C14.6793 146.88 15.2989 147.5 16.0881 147.5C16.8768 147.5 17.4968 146.88 17.4968 146.091C17.4965 145.302 16.8768 144.682 16.0881 144.682Z"
            data-stroke="white" stroke="white" fill="none" data-fill="#41464B" />
        <path d="M21.1103 55.0832L19.437 53.4104L18.0429 54.8049L19.7161 56.4777L21.1103 55.0832Z" data-stroke="white"
            stroke="white" fill="none" data-fill="#41464B" />
        <path d="M17.6267 51.5454L15.9902 49.9154L14.5987 51.3125L16.2352 52.9425L17.6267 51.5454Z" data-stroke="white"
            stroke="white" fill="none" data-fill="#41464B" />
        <path d="M21.1419 51.3013L19.752 49.9026L18.1136 51.5308L19.5036 52.9295L21.1419 51.3013Z" data-stroke="white"
            stroke="white" fill="none" data-fill="#41464B" />
        <path d="M17.6415 54.816L16.2456 53.4233L14.5745 55.0982L15.9704 56.4909L17.6415 54.816Z" data-stroke="white"
            stroke="white" fill="none" data-fill="#41464B" />
        <path d="M8.63844 104.31L6.33057 101.996L4.93429 103.389L7.24216 105.702L8.63844 104.31Z" data-stroke="white"
            stroke="white" fill="none" data-fill="#41464B" />
        <path d="M3.70781 99.3432L1.39209 97.0373L0.000545947 98.4348L2.31626 100.741L3.70781 99.3432Z"
            data-stroke="white" stroke="white" fill="none" data-fill="#41464B" />
        <path d="M8.61918 98.4442L7.22803 97.0464L4.91165 99.3517L6.3028 100.75L8.61918 98.4442Z" data-stroke="white"
            stroke="white" fill="none" data-fill="#41464B" />
        <path d="M3.72099 103.373L2.32373 101.982L0.0174921 104.297L1.41475 105.689L3.72099 103.373Z"
            data-stroke="white" stroke="white" fill="none" data-fill="#41464B" />
        <path
            d="M157.121 30.1314V28.1593C157.684 28.1593 158.248 28.0468 158.811 27.8776L159.431 29.7935C158.698 30.0189 157.91 30.1314 157.121 30.1314ZM154.81 29.7372C154.078 29.5118 153.345 29.1176 152.726 28.6668L153.909 27.0326C154.36 27.3705 154.867 27.6522 155.43 27.8213L154.81 29.7372ZM161.516 28.723L160.332 27.0888C160.783 26.7509 161.177 26.3563 161.516 25.9055L163.15 27.0888C162.699 27.7084 162.136 28.2155 161.516 28.723ZM151.092 27.0326C150.641 26.4129 150.247 25.6804 150.022 24.9479L151.937 24.3283C152.107 24.8916 152.388 25.3987 152.726 25.8496L151.092 27.0326ZM164.22 24.9475L162.304 24.3279C162.474 23.7645 162.586 23.2008 162.586 22.6374H164.558C164.558 23.4262 164.446 24.215 164.22 24.9475ZM149.627 22.6937C149.627 21.9049 149.739 21.1161 149.965 20.3836L151.881 21.0032C151.712 21.5666 151.599 22.1303 151.599 22.6937H149.627ZM162.304 20.947C162.135 20.3836 161.854 19.8765 161.516 19.4257L163.093 18.2423C163.544 18.8619 163.938 19.5944 164.164 20.327L162.304 20.947ZM152.67 19.4823L151.035 18.299C151.486 17.6793 152.05 17.1156 152.67 16.6648L153.853 18.299C153.402 18.5806 153.007 18.9752 152.67 19.4823ZM160.333 18.2427C159.882 17.9048 159.375 17.6231 158.811 17.4539L159.431 15.538C160.164 15.7635 160.896 16.1577 161.516 16.6085L160.333 18.2427ZM155.43 17.4535L154.811 15.5377C155.543 15.3122 156.332 15.1431 157.121 15.1431V17.1152C156.501 17.1719 155.938 17.2848 155.43 17.4535Z"
            data-stroke="white" stroke="white" fill="none" data-fill="#41464B" />
        <path
            d="M75.0252 14.6364V12.6642C75.5323 12.6642 75.9831 12.5517 76.4339 12.2696L77.4481 14.0164C76.6594 14.4676 75.8706 14.6364 75.0252 14.6364ZM72.6588 14.0167C71.9263 13.6222 71.3067 13.0025 70.9121 12.27L72.6026 11.2558C72.828 11.6504 73.2222 12.0446 73.6168 12.27L72.6588 14.0167ZM79.1386 12.27L77.3919 11.2558C77.6173 10.8612 77.7865 10.3541 77.7865 9.84704L79.7586 9.79079V9.84704C79.7582 10.7487 79.5894 11.5375 79.1386 12.27ZM70.2358 9.9033C70.2358 9.05826 70.4613 8.21284 70.8555 7.53697L72.6022 8.55117C72.3768 8.94575 72.2642 9.45285 72.2642 9.9033H70.2358ZM77.3919 8.49491C77.1665 8.10032 76.7723 7.70613 76.3777 7.48071L77.3356 5.73399C78.0682 6.12857 78.6878 6.74819 79.0823 7.48071L77.3919 8.49491ZM73.6168 7.48071L72.6026 5.79025C73.3351 5.3394 74.1239 5.11398 74.9689 5.11398V7.08612C74.5181 7.14238 74.011 7.25529 73.6168 7.48071Z"
            data-stroke="white" stroke="white" fill="none" data-fill="#41464B" />
        <path
            d="M48.9373 19.0877C48.9373 22.1866 46.4581 24.6658 43.3592 24.6658C40.2604 24.6658 37.7808 22.1866 37.7808 19.0877C37.7808 15.9889 40.26 13.5096 43.3589 13.5096C46.4577 13.5096 48.9373 15.9889 48.9373 19.0877Z"
            data-stroke="white" stroke="white" fill="none" data-fill="#FF7443" />
        <path
            d="M53.1635 31.5402C53.1635 32.6673 52.2618 33.6248 51.0788 33.6248C49.9521 33.6248 48.9941 32.7232 48.9941 31.5402C48.9941 30.4131 49.8958 29.4555 51.0788 29.4555C52.2618 29.4551 53.1635 30.4131 53.1635 31.5402Z"
            data-stroke="white" stroke="white" fill="none" data-fill="#AFAFAF" />
        <path
            d="M191.886 126.482H182.927C179.885 126.482 177.462 124.059 177.462 121.017V98.6477C177.462 95.6051 179.941 93.1821 182.927 93.1821H191.886C194.929 93.1821 197.352 95.6614 197.352 98.6477V121.017C197.352 124.003 194.873 126.482 191.886 126.482ZM182.927 95.1543C181.012 95.1543 179.434 96.7318 179.434 98.6477V121.017C179.434 122.933 181.012 124.51 182.927 124.51H191.886C193.802 124.51 195.38 122.933 195.38 121.017V98.6477C195.38 96.7318 193.802 95.1543 191.886 95.1543H182.927Z"
            data-stroke="white" stroke="white" fill="none" data-fill="#41464B" />
        <path d="M196.337 102.141H178.476V104.113H196.337V102.141Z" data-stroke="white" stroke="white" fill="none"
            data-fill="#41464B" />
        <path d="M188.393 97.6335H186.421V99.6054H188.393V97.6335Z" data-stroke="white" stroke="white" fill="none"
            data-fill="#41464B" />
        <path
            d="M188.393 94.1963H186.421V91.9425C186.421 91.6046 186.308 91.3225 186.083 91.0408C185.858 90.8154 185.52 90.7029 185.181 90.7029H180.73C179.885 90.7029 179.039 90.3649 178.42 89.7449C177.8 89.1249 177.462 88.3361 177.462 87.4349C177.462 86.5898 177.8 85.7444 178.42 85.1248C179.039 84.5052 179.829 84.1668 180.73 84.1668H194.14C194.478 84.1668 194.76 84.0543 195.042 83.8289C195.267 83.6035 195.38 83.2655 195.38 82.9272V80.6734H197.352V82.9272C197.352 83.7723 197.014 84.6177 196.394 85.2373C195.775 85.8569 194.985 86.1952 194.084 86.1952H180.674C180.336 86.1952 180.054 86.3077 179.772 86.5332C179.547 86.7586 179.434 87.0965 179.434 87.4349C179.434 87.7728 179.547 88.0549 179.772 88.3365C179.997 88.6182 180.335 88.6745 180.674 88.6745H185.125C185.97 88.6745 186.816 89.0124 187.435 89.6324C188.055 90.2524 188.393 91.0412 188.393 91.9425V94.1963Z"
            data-stroke="white" stroke="white" fill="none" data-fill="#41464B" />
        <path
            d="M157.459 171.165C156.444 171.165 155.486 171.559 154.81 172.235C154.134 171.559 153.176 171.165 152.162 171.165C150.077 171.165 148.443 172.855 148.443 174.883C148.443 175.898 148.837 176.856 149.513 177.532L154.753 182.772L159.994 177.532C160.67 176.856 161.064 175.954 161.064 174.883C161.177 172.855 159.487 171.165 157.459 171.165Z"
            data-stroke="white" stroke="white" fill="none" data-fill="#FF7443" />
        <path
            d="M145.513 164.966C145.513 165.981 144.668 166.826 143.654 166.826C142.64 166.826 141.795 165.981 141.795 164.966C141.795 163.952 142.64 163.107 143.654 163.107C144.725 163.107 145.513 163.952 145.513 164.966Z"
            data-stroke="white" stroke="white" fill="none" data-fill="#FF7443" />
        <path
            d="M158.811 123.496C157.177 123.496 155.599 122.877 154.473 121.693C152.05 119.27 152.05 115.383 154.473 112.96C155.656 111.776 157.177 111.157 158.811 111.157C160.445 111.157 162.023 111.777 163.149 112.96C164.333 114.143 164.952 115.664 164.952 117.298C164.952 118.932 164.333 120.51 163.149 121.637C162.023 122.876 160.445 123.496 158.811 123.496ZM158.811 113.185C157.684 113.185 156.67 113.636 155.881 114.424C154.247 116.059 154.247 118.707 155.881 120.341C156.67 121.13 157.74 121.58 158.811 121.58C159.882 121.58 160.952 121.13 161.741 120.341C162.53 119.552 162.981 118.482 162.981 117.411C162.981 116.284 162.53 115.269 161.741 114.481C160.952 113.579 159.938 113.185 158.811 113.185Z"
            data-stroke="white" stroke="white" fill="none" data-fill="#41464B" />
        <path d="M170.469 127.583L163.181 120.289L161.786 121.683L169.074 128.977L170.469 127.583Z" data-stroke="white"
            stroke="white" fill="none" data-fill="#41464B" />
        <path
            d="M182.814 66.1925C189.909 66.1925 195.661 60.4409 195.661 53.3459C195.661 46.2508 189.909 40.4992 182.814 40.4992C175.719 40.4992 169.968 46.2508 169.968 53.3459C169.968 60.4409 175.719 66.1925 182.814 66.1925Z"
            data-stroke="white" stroke="white" fill="none" data-fill="#AFAFAF" />
        <path
            d="M178.364 57.6281L174.025 53.3459L178.364 49.0074L179.772 50.4158L176.842 53.3459L179.772 56.2193L178.364 57.6281Z"
            data-stroke="white" stroke="white" fill="none" data-fill="#41464B" />
        <path
            d="M187.322 57.6281L185.914 56.2193L188.787 53.3459L185.914 50.4158L187.322 49.0074L191.605 53.3459L187.322 57.6281Z"
            data-stroke="white" stroke="white" fill="none" data-fill="#41464B" />
        <path d="M185.416 47.809L183.519 47.2708L180.228 58.8701L182.125 59.4083L185.416 47.809Z" data-stroke="white"
            stroke="white" fill="none" data-fill="#41464B" />
        <path
            d="M165.46 74.419L157.685 82.1947C159.826 84.336 163.319 84.336 165.516 82.1947C167.602 80.0538 167.602 76.5603 165.46 74.419Z"
            data-stroke="white" stroke="white" fill="none" data-fill="#FF7443" />
        <path
            d="M161.572 84.7868C157.966 84.7868 155.036 81.8567 155.036 78.2508C155.036 74.6448 157.966 71.7147 161.572 71.7147C165.178 71.7147 168.108 74.6448 168.108 78.2508C168.109 81.8567 165.179 84.7868 161.572 84.7868ZM161.572 73.7994C159.093 73.7994 157.065 75.8278 157.065 78.307C157.065 80.7863 159.093 82.8147 161.572 82.8147C164.051 82.8147 166.08 80.7863 166.08 78.307C166.08 75.8278 164.051 73.7994 161.572 73.7994Z"
            data-stroke="white" stroke="white" fill="none" data-fill="#41464B" />
        <path d="M169.494 71.7944L168.1 70.3999L153.637 84.8623L155.032 86.2568L169.494 71.7944Z" data-stroke="white"
            stroke="white" fill="none" data-fill="#41464B" />
        <path
            d="M78.3501 190.548C68.8278 190.548 59.925 185.533 55.1357 177.475L54.854 176.968L55.1357 176.461C59.925 168.404 68.8278 163.389 78.3501 163.389C87.8725 163.389 96.7753 168.404 101.565 176.461L101.846 176.968L101.565 177.475C96.7749 185.589 87.8725 190.548 78.3501 190.548ZM57.1641 177.025C61.6717 184.181 69.7291 188.575 78.3501 188.575C86.9712 188.575 95.0286 184.18 99.5362 177.025C95.0286 169.869 86.9712 165.474 78.3501 165.474C69.7291 165.417 61.6717 169.869 57.1641 177.025Z"
            data-stroke="white" stroke="white" fill="none" data-fill="#41464B" />
        <path
            d="M78.35 186.547C83.6091 186.547 87.8724 182.284 87.8724 177.025C87.8724 171.766 83.6091 167.502 78.35 167.502C73.0909 167.502 68.8276 171.766 68.8276 177.025C68.8276 182.284 73.0909 186.547 78.35 186.547Z"
            data-stroke="white" stroke="white" fill="none" data-fill="#4CBED8" />
        <path
            d="M78.3502 181.363C75.9272 181.363 74.0117 179.391 74.0117 177.025C74.0117 174.602 75.9839 172.686 78.3502 172.686C80.7732 172.686 82.6887 174.658 82.6887 177.025C82.6887 179.391 80.7165 181.363 78.3502 181.363ZM78.3502 174.658C77.0543 174.658 75.9839 175.728 75.9839 177.024C75.9839 178.32 77.0543 179.391 78.3502 179.391C79.6461 179.391 80.7165 178.32 80.7165 177.024C80.7165 175.728 79.6461 174.658 78.3502 174.658Z"
            data-stroke="white" stroke="white" fill="none" data-fill="#41464B" />
        <path d="M83.3083 159.501H81.3364V161.473H83.3083V159.501Z" data-stroke="white" stroke="white" fill="none"
            data-fill="#41464B" />
        <path d="M79.3078 159.501H77.3359V161.473H79.3078V159.501Z" data-stroke="white" stroke="white" fill="none"
            data-fill="#41464B" />
        <path d="M75.3635 159.501H73.3916V161.473H75.3635V159.501Z" data-stroke="white" stroke="white" fill="none"
            data-fill="#41464B" />
        <path d="M83.3083 192.463H81.3364V194.435H83.3083V192.463Z" data-stroke="white" stroke="white" fill="none"
            data-fill="#41464B" />
        <path d="M79.3078 192.463H77.3359V194.435H79.3078V192.463Z" data-stroke="white" stroke="white" fill="none"
            data-fill="#41464B" />
        <path d="M75.3635 192.463H73.3916V194.435H75.3635V192.463Z" data-stroke="white" stroke="white" fill="none"
            data-fill="#41464B" />
        <path d="M185.012 140.062H170.588V154.486H185.012V140.062Z" data-stroke="white" stroke="white" fill="none"
            data-fill="#4CBED8" />
        <path
            d="M187.548 169.474L178.532 148.006L200 157.022L190.985 160.459L187.548 169.474ZM182.251 151.725L187.435 164.178L189.463 158.937L194.704 156.909L182.251 151.725Z"
            data-stroke="white" stroke="white" fill="none" data-fill="#41464B" />
        <path d="M196.282 164.362L190.901 158.984L189.507 160.379L194.887 165.757L196.282 164.362Z" data-stroke="white"
            stroke="white" fill="none" data-fill="#41464B" />
        <path
            d="M124.948 165.023C119.313 165.023 114.693 169.587 114.693 175.278C114.693 178.264 115.989 180.969 118.017 182.828C118.13 182.884 118.186 182.997 118.299 183.11C119.876 184.575 120.891 186.66 120.891 189.026H128.892C128.892 186.716 129.906 184.575 131.483 183.11C131.596 182.997 131.653 182.941 131.765 182.828C133.793 180.969 135.089 178.264 135.089 175.278C135.203 169.587 130.583 165.023 124.948 165.023Z"
            data-stroke="white" stroke="white" fill="none" data-fill="#FED65C" />
        <path d="M124.948 168.404V175.841H121.736L124.948 168.404Z" data-stroke="white" stroke="white" fill="none"
            data-fill="white" />
        <path d="M124.948 182.096V174.658H128.16L124.948 182.096Z" data-stroke="white" stroke="white" fill="none"
            data-fill="white" />
        <path d="M129.794 187.955H120.102V189.928H129.794V187.955Z" data-stroke="white" stroke="white" fill="none"
            data-fill="#41464B" />
        <path d="M129.794 191.336H120.102V193.308H129.794V191.336Z" data-stroke="white" stroke="white" fill="none"
            data-fill="#41464B" />
        <path d="M127.145 194.661H122.694V196.633H127.145V194.661Z" data-stroke="white" stroke="white" fill="none"
            data-fill="#41464B" />
        <path d="M112.966 162.525L111.292 160.852L109.898 162.247L111.572 163.919L112.966 162.525Z" data-stroke="white"
            stroke="white" fill="none" data-fill="#41464B" />
        <path d="M109.453 158.956L107.815 157.327L106.424 158.725L108.062 160.354L109.453 158.956Z" data-stroke="white"
            stroke="white" fill="none" data-fill="#41464B" />
        <path d="M112.999 158.751L111.609 157.353L109.971 158.981L111.361 160.38L112.999 158.751Z" data-stroke="white"
            stroke="white" fill="none" data-fill="#41464B" />
        <path d="M109.463 162.234L108.068 160.84L106.395 162.513L107.79 163.907L109.463 162.234Z" data-stroke="white"
            stroke="white" fill="none" data-fill="#41464B" />
        <path d="M132.4 157.838L130.093 155.524L128.697 156.916L131.004 159.23L132.4 157.838Z" data-stroke="white"
            stroke="white" fill="none" data-fill="#41464B" />
        <path d="M127.487 152.951L125.172 150.645L123.78 152.042L126.095 154.348L127.487 152.951Z" data-stroke="white"
            stroke="white" fill="none" data-fill="#41464B" />
        <path d="M132.41 152.007L131.019 150.609L128.703 152.914L130.094 154.312L132.41 152.007Z" data-stroke="white"
            stroke="white" fill="none" data-fill="#41464B" />
        <path d="M127.452 156.94L126.055 155.548L123.749 157.863L125.146 159.255L127.452 156.94Z" data-stroke="white"
            stroke="white" fill="none" data-fill="#41464B" />
    </g>
    <defs>
        <clipPath id="clip0_262_2262">
            <rect width="200" height="200" data-stroke="white" stroke="white" fill="none" data-fill="white" />
        </clipPath>
    </defs>
</svg>
