<svg class="" viewBox="0 0 97 100" fill="none" xmlns="http://www.w3.org/2000/svg">
  <path
    d="M57.0534 79.2304C57.1622 79.3392 57.2299 79.517 57.2581 79.7626C57.2849 80.0083 57.2171 80.1847 57.0534 80.2948C56.4522 80.731 55.8254 81.1545 55.1703 81.5639C54.5153 81.9732 53.8323 82.2867 53.1235 82.5054C52.4136 82.7228 51.6767 82.8456 50.9131 82.8738C50.1481 82.9006 49.4112 82.7779 48.7026 82.5054C46.9552 81.8504 45.5505 80.7311 44.4862 79.1487C43.4219 77.565 42.5341 75.9557 41.8254 74.3183C40.8967 72.0795 40.1598 69.7871 39.6148 67.4411C39.0686 65.0937 38.5773 62.7207 38.1412 60.3182C37.7036 57.8621 37.3634 55.4201 37.1178 52.9907C36.8722 50.5628 36.6944 48.1194 36.5856 45.6633C36.5305 44.7358 36.4897 43.7944 36.4628 42.8387C36.4346 41.8843 36.4488 40.9429 36.5037 40.0141C36.5037 39.3591 36.5165 38.7042 36.5447 38.0492C36.5715 37.3942 36.6393 36.7675 36.7493 36.1662C36.803 35.8387 36.9668 35.6622 37.2406 35.634C37.5131 35.6072 37.7587 35.648 37.9774 35.7568L38.0593 35.8387L38.1412 35.9205C38.1948 35.9205 38.2359 35.9346 38.264 35.9615C38.2909 35.9897 38.3318 36.0024 38.3868 36.0024C38.4955 36.0574 38.5633 36.0983 38.5915 36.1252C38.6182 36.1533 38.6861 36.1942 38.7961 36.248H38.878C38.9317 36.303 39.0137 36.3299 39.1236 36.3299C39.2324 36.3849 39.3001 36.4118 39.3283 36.4118C39.3552 36.4118 39.423 36.44 39.533 36.4936H39.6967H39.8605H40.2698H40.5154H40.5973C40.7061 36.4936 40.7879 36.4809 40.8429 36.4527C40.8966 36.4259 40.9785 36.4118 41.0885 36.4118C41.1973 36.3581 41.2932 36.3172 41.3751 36.289C41.457 36.2621 41.5516 36.2211 41.6616 36.1662H41.8254C41.8791 36.1662 41.9072 36.1394 41.9072 36.0843C41.9609 36.0843 42.0019 36.0715 42.03 36.0434C42.0568 36.0166 42.0979 36.0024 42.1529 36.0024C42.3703 35.8936 42.575 35.785 42.7669 35.6749C42.9575 35.5662 43.1353 35.4293 43.2991 35.2656C43.4078 35.2119 43.4755 35.1708 43.5037 35.1428C43.5305 35.116 43.5984 35.0749 43.7084 35.02L43.7903 34.9381H43.8722C44.0896 34.7207 44.2815 34.5569 44.4453 34.4469C44.6627 34.2294 44.8674 34.0375 45.0593 33.8738C45.2499 33.71 45.4277 33.5194 45.5915 33.3007C45.8089 33.0832 46.0136 32.8645 46.2055 32.6457C46.3961 32.4283 46.5738 32.2094 46.7377 31.9907C46.8464 31.8819 46.9014 31.8001 46.9014 31.7451L46.9832 31.6632C47.037 31.5545 47.1188 31.4458 47.2289 31.3357C47.3377 31.227 47.4336 31.1043 47.5154 30.9673C47.5972 30.8317 47.6919 30.709 47.8019 30.5989C48.1832 30.0539 48.5388 29.5077 48.8663 28.9615C49.1938 28.4164 49.4931 27.8702 49.7669 27.324C50.9668 25.0316 51.8954 22.6574 52.5505 20.2012C52.6042 19.9287 52.6593 19.6423 52.7141 19.3416C52.7679 19.0422 52.8229 18.7275 52.8779 18.4001C52.8779 18.3464 52.8906 18.2913 52.9188 18.2363C52.9457 18.1826 52.9599 18.1008 52.9599 17.9907V17.9088V17.6632C53.0136 17.4995 53.0417 17.227 53.0417 16.8445C53.1505 16.3533 53.1505 15.8351 53.0417 15.2889C53.0417 14.9078 53.0136 14.634 52.9599 14.4702V14.3884V14.3065C52.9599 14.1427 52.9317 14.0072 52.878 13.8971C52.8229 13.6797 52.7821 13.461 52.7552 13.2422C52.727 13.0247 52.6593 12.806 52.5505 12.5872L52.4686 12.5053V12.4234L52.3049 12.096C52.2499 11.9872 52.195 11.9053 52.1413 11.8503C52.0862 11.7967 52.0313 11.7148 51.9775 11.6047C51.9226 11.551 51.8957 11.496 51.8957 11.441H51.8139C51.8139 11.3873 51.7588 11.3054 51.6502 11.1954C51.4315 10.9779 51.2676 10.8411 51.1589 10.786C51.1589 10.7323 51.1309 10.6772 51.0771 10.6223H50.9953C50.8853 10.5135 50.8034 10.4585 50.7496 10.4585C50.586 10.3498 50.394 10.2411 50.1766 10.131L50.0129 10.0492C49.9578 10.0492 49.9169 10.0364 49.89 10.0082C49.8619 9.98145 49.8209 9.9673 49.7672 9.9673C49.6572 9.9673 49.5893 9.95455 49.5626 9.92636C49.5344 9.89946 49.4667 9.88543 49.3579 9.88543C48.9203 9.77666 48.6747 9.72169 48.6209 9.72169H47.6386C47.3648 9.72169 47.1193 9.74976 46.9017 9.80356C46.1918 9.91361 45.5636 10.1041 45.0186 10.3767C44.4724 10.6505 43.8993 10.9779 43.2993 11.3591C41.9893 12.1778 40.7882 13.1603 39.6969 14.3065C38.6046 15.4527 37.5683 16.6539 36.5858 17.9088C34.7847 20.2012 33.1472 22.6574 31.6736 25.2773C29.981 28.1708 28.5343 31.0901 27.3344 34.0375C26.5693 36.6574 25.8325 39.2773 25.1238 41.8972C24.4139 44.5171 23.5952 47.11 22.6677 49.675C22.4489 50.1662 22.1074 50.3441 21.6443 50.2071C21.1799 50.0714 21.0021 49.7568 21.1122 49.2656C21.4933 46.5369 22.0806 43.8903 22.8724 41.3241C23.6629 38.7592 24.6044 36.2213 25.6969 33.71C26.7882 29.9439 27.9893 26.2738 29.2993 22.6983C30.6092 19.1242 32.4104 15.7534 34.7028 12.5872C35.0303 12.2059 35.3847 12.1241 35.7671 12.3416C35.9846 12.4515 36.1214 12.6153 36.1765 12.8328C36.2302 13.0516 36.2033 13.2422 36.0946 13.4059C33.6922 16.7907 31.8091 20.393 30.4455 24.2129C31.3179 22.6854 32.2594 21.1837 33.27 19.71C34.2793 18.2363 35.3578 16.8176 36.504 15.4527C37.5401 14.2527 38.6326 13.1193 39.7788 12.055C40.925 10.9907 42.18 10.0774 43.5449 9.31233C44.7998 8.71233 46.0958 8.32987 47.4338 8.16613C48.7706 8.00238 50.0664 8.248 51.3227 8.90297C52.305 9.50426 53.0548 10.2538 53.5741 11.1544C54.0923 12.055 54.4196 13.0375 54.5565 14.1018C54.6922 15.1661 54.7062 16.2445 54.5975 17.3357C54.4876 18.4282 54.3237 19.4644 54.1063 20.4468C53.8325 21.7031 53.4513 22.9439 52.9601 24.172C52.4689 25.4001 51.9227 26.5872 51.3227 27.7334C50.1214 30.1359 48.7028 32.2363 47.0654 34.0375C46.3554 34.8025 45.5917 35.5252 44.773 36.2071C43.9543 36.8903 43.0255 37.3942 41.9893 37.7217C40.6244 38.2129 39.3413 38.1861 38.1414 37.6399C38.1414 38.1861 38.1132 38.5954 38.0595 38.8679V42.4703C38.1132 44.7627 38.2361 47.0422 38.4279 49.3065C38.6185 51.5721 38.85 53.8504 39.1238 56.1428C39.1238 56.3065 39.1508 56.4165 39.2057 56.4703V56.634V57.0434C39.3145 57.3709 39.3695 57.6716 39.3695 57.944C39.4231 58.2715 39.4642 58.5862 39.4923 58.8855C39.5192 59.1861 39.587 59.4995 39.6969 59.827C39.8057 60.4283 39.9144 61.0551 40.0244 61.7101C40.1332 62.365 40.2419 62.9931 40.3519 63.5931C40.6244 64.7931 40.8969 65.9802 41.1706 67.1545C41.4431 68.3276 41.7974 69.5147 42.235 70.7159C42.3987 71.2071 42.5624 71.7111 42.7262 72.2305C42.8899 72.7487 43.1074 73.2539 43.3812 73.7452V73.9089C43.4348 73.9626 43.463 74.0177 43.463 74.0726C43.5718 74.2901 43.6268 74.4269 43.6268 74.482C43.6805 74.5908 43.7355 74.6994 43.7905 74.8095C43.8442 74.9183 43.8993 75.0269 43.9543 75.137C44.063 75.3544 44.1717 75.5731 44.2817 75.7919C44.3905 76.0094 44.4992 76.2282 44.6092 76.447C44.718 76.6645 44.8408 76.8691 44.9777 77.0611C45.1132 77.2517 45.236 77.4294 45.346 77.5932C45.4547 77.702 45.5366 77.7979 45.5917 77.8798C45.6454 77.9616 45.7005 78.0563 45.7553 78.1663C45.8641 78.2751 45.9191 78.3569 45.9191 78.4119L46.0828 78.5757C46.4103 79.0118 46.6827 79.3125 46.9015 79.4762C47.1189 79.6936 47.2827 79.8305 47.3926 79.8855C47.3926 79.9943 47.4464 80.0493 47.5564 80.0493C47.5564 80.1029 47.5831 80.1311 47.6382 80.1311C47.8557 80.2948 48.1832 80.4854 48.6206 80.7041C48.7293 80.8129 48.8112 80.8679 48.8663 80.8679L48.9482 80.9497C49.057 80.9497 49.2206 81.0034 49.4393 81.1134C49.5481 81.1134 49.6299 81.1261 49.685 81.1544C49.7387 81.1812 49.8206 81.1953 49.9306 81.1953C49.9844 81.2491 50.0662 81.2772 50.1764 81.2772H50.2581H51.4044H51.65L51.8138 81.1953C51.9226 81.1953 52.0185 81.1813 52.1002 81.1544C52.1821 81.1262 52.2768 81.1134 52.3868 81.1134C52.4955 81.0584 52.5915 81.0174 52.6733 80.9905C52.7552 80.9625 52.8499 80.9214 52.9599 80.8677C53.0686 80.8677 53.1364 80.8537 53.1646 80.8268C53.1913 80.7986 53.2323 80.7857 53.2874 80.7857C53.341 80.7857 53.3692 80.7717 53.3692 80.7448C53.3692 80.7166 53.396 80.7038 53.4511 80.7038C53.6685 80.5938 53.8732 80.485 54.0651 80.3763C54.2557 80.2663 54.4603 80.1576 54.6792 80.0488L55.416 79.5576C55.5248 79.4476 55.6067 79.3939 55.6616 79.3939L55.8254 79.2302H55.9072C56.3434 78.793 56.726 78.793 57.0534 79.2304Z"
    fill="#FAFAFA" />
  <path
    d="M56.4801 47.6281C56.5889 48.1193 56.3984 48.4468 55.9073 48.6105C55.4159 48.7743 54.8839 48.938 54.3108 49.1017C53.7377 49.2655 53.1506 49.3755 52.5504 49.4292H52.0593C52.0042 49.5392 51.9773 49.607 51.9773 49.6339C51.9773 49.662 51.9493 49.7298 51.8956 49.8386C51.6219 50.276 51.3352 50.6853 51.0359 51.0666C50.7353 51.4491 50.4219 51.8317 50.0943 52.2128C49.7669 52.4866 49.3985 52.745 48.9891 52.9906C48.5798 53.2362 48.1563 53.4141 47.72 53.5228C47.1187 53.6327 46.6007 53.5508 46.1645 53.2771C45.7282 53.0046 45.4275 52.5684 45.2639 51.9672C45.1001 51.3673 45.0874 50.7801 45.223 50.207C45.3598 49.6339 45.5377 49.0748 45.7551 48.5286C46.3013 47.2738 46.9281 46.2094 47.6382 45.3357C47.9658 44.8994 48.3469 44.4901 48.7845 44.1076C49.2206 43.7263 49.7386 43.4808 50.3399 43.3708C50.8849 43.3708 51.2125 43.5627 51.3224 43.9439C51.4311 44.4901 51.2406 44.8177 50.7493 44.9263C50.3118 44.9813 49.9717 45.145 49.7259 45.4176C49.4803 45.6914 49.2206 45.9638 48.9482 46.2363C48.6744 46.5637 48.4161 46.9194 48.1706 47.3006C47.9248 47.6832 47.692 48.0656 47.4745 48.4468C47.3109 48.8293 47.16 49.2245 47.0242 49.6339C46.8874 50.0432 46.7915 50.4666 46.7378 50.9029C46.7378 51.0129 46.7506 51.1627 46.7787 51.3532C46.8055 51.5451 46.8734 51.6947 46.9834 51.8035L47.1472 51.9672H47.2289H47.3927C48.0476 51.8584 48.6207 51.5169 49.1118 50.9438C49.6032 50.3707 50.0125 49.8117 50.3399 49.2655L50.5037 49.0199C49.9024 48.8024 49.5751 48.3931 49.5212 47.7918C49.4114 47.2468 49.5624 46.7825 49.9717 46.4C50.3811 46.0188 50.8032 45.8551 51.2407 45.9088H51.4863C51.7038 46.0187 51.8957 46.1275 52.0594 46.2363C52.2232 46.2912 52.332 46.4 52.3868 46.5637C52.3868 46.6187 52.4137 46.6456 52.4688 46.6456C52.5776 46.9731 52.6325 47.1918 52.6325 47.3006V47.7099V47.7918H52.7961C53.6687 47.6281 54.5691 47.3825 55.498 47.055C55.989 46.9462 56.3166 47.1368 56.4801 47.6281Z"
    fill="#FAFAFA" />
  <path
    d="M65.65 47.6281C65.7588 48.1193 65.5682 48.4468 65.0771 48.6105C64.5858 48.7743 64.0537 48.938 63.4806 49.1017C62.9075 49.2655 62.3204 49.3755 61.7204 49.4292H61.2291C61.1741 49.5392 61.1473 49.607 61.1473 49.6339C61.1473 49.662 61.1192 49.7298 61.0654 49.8386C60.7917 50.276 60.5052 50.6853 60.2058 51.0666C59.9052 51.4491 59.5917 51.8317 59.2642 52.2128C58.9368 52.4866 58.5683 52.745 58.159 52.9906C57.7496 53.2362 57.3263 53.4141 56.89 53.5228C56.2887 53.6327 55.7707 53.5508 55.3343 53.2771C54.8982 53.0046 54.5975 52.5684 54.4339 51.9672C54.2701 51.3673 54.2573 50.7801 54.3928 50.207C54.5298 49.6339 54.7075 49.0748 54.925 48.5286C55.4713 47.2738 56.0981 46.2094 56.8081 45.3357C57.1356 44.8994 57.5169 44.4901 57.9543 44.1076C58.3905 43.7263 58.9086 43.4808 59.5099 43.3708C60.0548 43.3708 60.3824 43.5627 60.4923 43.9439C60.6011 44.4901 60.4104 44.8177 59.9192 44.9263C59.4818 44.9813 59.1416 45.145 58.8958 45.4176C58.6502 45.6914 58.3906 45.9638 58.1182 46.2363C57.8444 46.5637 57.5859 46.9194 57.3404 47.3006C57.0948 47.6832 56.8619 48.0656 56.6445 48.4468C56.4809 48.8293 56.3299 49.2245 56.1942 49.6339C56.0573 50.0432 55.9614 50.4666 55.9077 50.9029C55.9077 51.0129 55.9204 51.1627 55.9486 51.3532C55.9755 51.5451 56.0433 51.6947 56.1533 51.8035L56.317 51.9672H56.3989H56.5625C57.2176 51.8584 57.7906 51.5169 58.2818 50.9438C58.773 50.3707 59.1824 49.8117 59.5099 49.2655L59.6736 49.0199C59.0723 48.8024 58.745 48.3931 58.6912 47.7918C58.5812 47.2468 58.7322 46.7825 59.1416 46.4C59.5509 46.0188 59.973 45.8551 60.4106 45.9088H60.6562C60.8736 46.0187 61.0655 46.1275 61.2293 46.2363C61.393 46.2912 61.5018 46.4 61.5567 46.5637C61.5567 46.6187 61.5835 46.6456 61.6386 46.6456C61.7474 46.9731 61.8024 47.1918 61.8024 47.3006V47.7099V47.7918H61.966C62.8385 47.6281 63.7389 47.3825 64.6678 47.055C65.1588 46.9462 65.4863 47.1368 65.65 47.6281Z"
    fill="#FAFAFA" />
  <path
    d="M75.1467 37.9672C73.1818 38.1309 71.2169 38.3228 69.2521 38.5403C68.4871 40.6152 67.7643 42.7028 67.0825 44.8034C66.3994 46.9052 65.7035 48.9929 64.9947 51.0666C64.176 53.6865 63.3445 56.2526 62.4976 58.7625C61.6521 61.2736 60.8192 63.8103 60.0005 66.3765L57.5443 74.0724C57.1632 75.3273 56.7947 76.5963 56.4392 77.8795C56.0848 79.1612 55.6895 80.4303 55.252 81.6865C55.0883 82.1777 54.748 82.3542 54.2287 82.2186C53.7105 82.0818 53.5327 81.7683 53.6965 81.2771C54.2427 79.6397 54.7608 77.9882 55.252 76.3239C55.7433 74.6583 56.2345 73.008 56.7257 71.3706C57.217 69.7331 57.7364 68.0957 58.2814 66.4583C58.8276 64.8209 59.3738 63.1834 59.9188 61.546C62.375 53.9602 64.9128 46.3461 67.5328 38.7039L55.334 39.932C54.7891 39.932 54.5153 39.6594 54.5153 39.1133C54.5153 38.6771 54.7891 38.4045 55.334 38.2945L68.1059 37.0665L70.3163 30.9261C70.5338 30.3812 70.8612 30.1893 71.2988 30.353C71.79 30.463 71.9805 30.7906 71.8718 31.3355C71.4893 32.2641 71.1349 33.1916 70.8074 34.1191C70.48 35.0479 70.1525 35.9754 69.825 36.9027L80.7958 35.8384H81.1233C81.287 35.8384 81.4636 35.8793 81.6555 35.9612C81.8461 36.0431 81.942 36.221 81.942 36.4934C81.9957 36.8209 81.942 37.0396 81.7783 37.1483C81.6147 37.2583 81.4508 37.3403 81.2871 37.394H81.0415C79.0767 37.6128 77.1118 37.8034 75.1467 37.9672Z"
    fill="#FAFAFA" />
  <path
    d="M78.2569 47.3007C78.4205 47.4644 78.5152 47.6691 78.5434 47.9147C78.5702 48.1603 78.4743 48.3381 78.2569 48.4469C77.0006 49.4844 75.555 50.3849 73.9176 51.1486C73.644 51.2587 73.4124 51.3533 73.2219 51.4352C73.0299 51.517 72.8253 51.6129 72.6078 51.7217C72.6078 51.8318 72.5796 51.8854 72.526 51.8854C72.4709 52.4867 72.334 53.0726 72.1166 53.6457C71.8979 54.2188 71.5153 54.6423 70.9704 54.9147C70.3691 55.2422 69.837 55.2012 69.374 54.7919C68.9109 54.3825 68.7062 53.8785 68.7599 53.2773C68.815 52.6773 69.0745 52.186 69.5377 51.8036C70.0007 51.4224 70.451 51.0948 70.8886 50.8211C70.7786 50.2211 70.6148 49.6749 70.3973 49.1837C70.1786 48.6925 69.988 48.2012 69.8242 47.71C69.6606 47.2188 69.5518 46.7007 69.4968 46.1545C69.388 45.3357 69.47 44.5989 69.7425 43.9439C69.8513 43.5078 70.0149 43.1252 70.2336 42.7977C70.451 42.4702 70.7517 42.2246 71.1342 42.0609C71.5703 41.8971 72.0067 41.9252 72.4441 42.1428C72.8802 42.3616 73.1809 42.6622 73.3447 43.0433C73.7258 43.917 73.6581 44.7357 73.14 45.4995C72.6207 46.2645 72.0884 46.9195 71.5435 47.4644L71.4616 47.5463C71.5704 47.765 71.6523 47.9838 71.7074 48.2012C71.7611 48.42 71.8429 48.6387 71.953 48.8562C72.1704 49.4024 72.3074 49.8118 72.3623 50.0843C72.6898 49.9755 73.0031 49.8387 73.3038 49.6749C73.6033 49.5112 73.8898 49.3756 74.1636 49.2656C74.7085 48.9931 75.2279 48.7066 75.7191 48.4059C76.2104 48.1065 76.7016 47.7382 77.1928 47.3007C77.5737 46.9732 77.9294 46.9732 78.2569 47.3007ZM70.3153 53.3591C70.3691 53.3591 70.4241 53.3323 70.4791 53.2773L70.7247 52.786C70.506 53.0047 70.3691 53.1954 70.3153 53.3591ZM71.134 45.172C71.134 45.2821 71.106 45.3357 71.0522 45.3357V45.6632C71.1609 45.5545 71.2696 45.3907 71.3798 45.172C71.5972 45.0083 71.7609 44.7626 71.8709 44.4352C71.9247 44.3815 71.9528 44.2996 71.9528 44.1895L72.0346 44.1077V44.0258V43.9439C72.0346 43.8902 72.0066 43.8621 71.9528 43.8621C71.9528 43.8084 71.9247 43.7533 71.8709 43.6983C71.8159 43.6983 71.7609 43.6714 71.7073 43.6164C71.6522 43.5628 71.6522 43.5628 71.7073 43.6164C71.6522 43.6164 71.6114 43.6305 71.5845 43.6574C71.5563 43.6856 71.5703 43.6983 71.6254 43.6983C71.5154 43.8083 71.4616 43.8902 71.4616 43.9439L71.3799 44.0258V44.1077C71.3248 44.2714 71.2698 44.4352 71.2161 44.5989C71.1611 44.7626 71.1343 44.9264 71.1343 45.0901V45.172H71.134Z"
    fill="#FAFAFA" />
</svg>
