<svg viewBox="0 0 302 313" fill="none" xmlns="http://www.w3.org/2000/svg">
  <path
    d="M178.568 247.991C178.908 248.331 179.12 248.888 179.209 249.657C179.292 250.426 179.08 250.978 178.568 251.322C176.686 252.688 174.724 254.013 172.674 255.295C170.624 256.576 168.486 257.557 166.268 258.241C164.046 258.922 161.74 259.306 159.35 259.395C156.955 259.478 154.649 259.094 152.431 258.241C146.962 256.191 142.566 252.688 139.235 247.735C135.904 242.778 133.125 237.741 130.907 232.616C128 225.609 125.694 218.433 123.988 211.09C122.279 203.743 120.741 196.315 119.376 188.796C118.007 181.108 116.942 173.465 116.173 165.861C115.404 158.261 114.848 150.613 114.507 142.926C114.335 140.023 114.207 137.076 114.123 134.085C114.035 131.098 114.079 128.151 114.251 125.244C114.251 123.194 114.291 121.144 114.379 119.094C114.463 117.044 114.675 115.082 115.02 113.2C115.188 112.175 115.7 111.622 116.557 111.534C117.41 111.45 118.179 111.578 118.864 111.919L119.12 112.175L119.376 112.431C119.544 112.431 119.673 112.475 119.76 112.559C119.845 112.647 119.973 112.687 120.145 112.687C120.485 112.859 120.697 112.988 120.785 113.072C120.869 113.16 121.081 113.288 121.426 113.456H121.682C121.85 113.628 122.107 113.712 122.451 113.712C122.791 113.884 123.003 113.969 123.092 113.969C123.176 113.969 123.388 114.057 123.732 114.225H124.245H124.757H126.038H126.807H127.063C127.404 114.225 127.66 114.185 127.832 114.097C128 114.013 128.256 113.969 128.601 113.969C128.941 113.801 129.241 113.672 129.498 113.584C129.754 113.5 130.05 113.372 130.394 113.2H130.907C131.075 113.2 131.163 113.116 131.163 112.944C131.331 112.944 131.459 112.904 131.548 112.815C131.631 112.732 131.76 112.687 131.932 112.687C132.612 112.347 133.253 112.007 133.854 111.662C134.45 111.322 135.007 110.894 135.519 110.381C135.86 110.213 136.072 110.085 136.16 109.997C136.244 109.913 136.456 109.784 136.8 109.612L137.057 109.356H137.313C137.993 108.675 138.594 108.163 139.107 107.818C139.787 107.138 140.428 106.537 141.028 106.025C141.625 105.512 142.182 104.915 142.694 104.231C143.375 103.55 144.015 102.866 144.616 102.181C145.213 101.5 145.769 100.815 146.281 100.131C146.622 99.7903 146.794 99.534 146.794 99.362L147.05 99.1057C147.218 98.7653 147.474 98.4252 147.819 98.0807C148.159 97.7402 148.46 97.3562 148.716 96.9275C148.972 96.5029 149.268 96.1188 149.612 95.7744C150.806 94.0684 151.919 92.3588 152.944 90.6492C153.969 88.9433 154.905 87.2337 155.762 85.5241C159.518 78.3489 162.424 70.9174 164.475 63.2297C164.643 62.3767 164.815 61.4802 164.987 60.539C165.155 59.6018 165.327 58.6171 165.499 57.592C165.499 57.424 165.539 57.2516 165.627 57.0795C165.712 56.9115 165.756 56.6552 165.756 56.3107V56.0545V55.2857C165.924 54.7732 166.012 53.9202 166.012 52.7231C166.353 51.1856 166.353 49.5638 166.012 47.8542C166.012 46.6612 165.924 45.8042 165.756 45.2917V45.0354V44.7792C165.756 44.2666 165.668 43.8423 165.5 43.4979C165.327 42.8173 165.199 42.1327 165.115 41.4478C165.027 40.7673 164.815 40.0827 164.475 39.3977L164.218 39.1415V38.8852L163.706 37.8602C163.534 37.5197 163.362 37.2635 163.194 37.0914C163.021 36.9234 162.85 36.6671 162.681 36.3227C162.509 36.1546 162.425 35.9822 162.425 35.8101H162.169C162.169 35.6421 161.997 35.3859 161.657 35.0414C160.972 34.3608 160.459 33.9325 160.119 33.7601C160.119 33.5921 160.031 33.4196 159.863 33.2476H159.607C159.263 32.9071 159.006 32.7351 158.838 32.7351C158.326 32.3946 157.725 32.0545 157.045 31.71L156.532 31.4538C156.36 31.4538 156.232 31.4139 156.148 31.3256C156.06 31.2418 155.932 31.1975 155.764 31.1975C155.419 31.1975 155.207 31.1576 155.123 31.0694C155.035 30.9852 154.823 30.9413 154.482 30.9413C153.113 30.6008 152.344 30.4287 152.176 30.4287H149.101C148.244 30.4287 147.476 30.5166 146.795 30.685C144.573 31.0295 142.607 31.6258 140.901 32.4788C139.192 33.3358 137.398 34.3608 135.52 35.5539C131.42 38.1165 127.661 41.1915 124.245 44.7792C120.826 48.3668 117.583 52.1264 114.508 56.0545C108.871 63.2297 103.746 70.9174 99.1336 79.1176C93.8363 88.1745 89.3081 97.3119 85.5527 106.537C83.1583 114.737 80.8521 122.938 78.6342 131.138C76.4122 139.338 73.8498 147.454 70.9469 155.482C70.262 157.02 69.1931 157.577 67.7439 157.148C66.2903 156.723 65.7338 155.739 66.0783 154.201C67.2713 145.66 69.1093 137.376 71.5875 129.344C74.0617 121.316 77.0085 113.372 80.4279 105.512C83.8432 93.7243 87.6027 82.2367 91.7025 71.0455C95.8024 59.8584 101.44 49.308 108.615 39.3977C109.64 38.2043 110.749 37.9484 111.946 38.629C112.626 38.9731 113.055 39.4856 113.227 40.1665C113.395 40.8515 113.311 41.4478 112.971 41.9603C105.451 52.5547 99.5578 63.8301 95.2899 75.7863C98.0204 71.0053 100.967 66.3048 104.13 61.6921C107.289 57.0795 110.664 52.6389 114.252 48.3668C117.495 44.6108 120.914 41.0634 124.502 37.7321C128.089 34.4007 132.017 31.542 136.289 29.1475C140.216 27.2695 144.273 26.0724 148.46 25.5599C152.644 25.0473 156.7 25.8161 160.632 27.8662C163.706 29.7482 166.053 32.0944 167.678 34.9132C169.3 37.7321 170.325 40.8072 170.753 44.1385C171.178 47.4699 171.222 50.8451 170.881 54.2607C170.537 57.6802 170.025 60.9234 169.344 63.9985C168.487 67.9305 167.294 71.8143 165.757 75.6582C164.219 79.502 162.51 83.2178 160.632 86.8054C156.872 94.325 152.432 100.9 147.307 106.537C145.085 108.932 142.695 111.194 140.132 113.328C137.57 115.466 134.663 117.044 131.42 118.069C127.148 119.606 123.132 119.522 119.377 117.812C119.377 119.522 119.289 120.803 119.12 121.656V132.932C119.289 140.107 119.673 147.242 120.274 154.329C120.87 161.421 121.595 168.551 122.452 175.727C122.452 176.239 122.536 176.583 122.708 176.752V177.264V178.545C123.048 179.571 123.22 180.512 123.22 181.364C123.388 182.389 123.517 183.374 123.605 184.311C123.689 185.252 123.901 186.233 124.245 187.258C124.586 189.14 124.926 191.102 125.27 193.152C125.611 195.202 125.951 197.168 126.295 199.046C127.148 202.802 128.001 206.518 128.858 210.193C129.711 213.865 130.819 217.581 132.189 221.34C132.701 222.878 133.214 224.455 133.726 226.081C134.239 227.703 134.919 229.284 135.776 230.822V231.334C135.944 231.503 136.032 231.675 136.032 231.847C136.373 232.528 136.545 232.956 136.545 233.128C136.713 233.469 136.885 233.809 137.057 234.153C137.225 234.494 137.398 234.834 137.57 235.178C137.91 235.859 138.25 236.543 138.595 237.228C138.935 237.909 139.275 238.594 139.62 239.279C139.96 239.959 140.345 240.6 140.773 241.201C141.197 241.797 141.582 242.354 141.926 242.866C142.266 243.207 142.522 243.507 142.695 243.763C142.863 244.02 143.035 244.316 143.207 244.66C143.547 245.001 143.719 245.257 143.719 245.429L144.232 245.941C145.257 247.307 146.109 248.248 146.794 248.76C147.475 249.441 147.987 249.869 148.331 250.041C148.331 250.382 148.5 250.554 148.844 250.554C148.844 250.722 148.928 250.81 149.1 250.81C149.781 251.322 150.806 251.919 152.175 252.603C152.515 252.944 152.771 253.116 152.944 253.116L153.2 253.372C153.54 253.372 154.053 253.54 154.737 253.884C155.078 253.884 155.334 253.924 155.506 254.013C155.674 254.097 155.93 254.141 156.275 254.141C156.443 254.309 156.699 254.397 157.044 254.397H157.3H160.888H161.656L162.169 254.141C162.509 254.141 162.809 254.097 163.065 254.013C163.322 253.925 163.618 253.884 163.962 253.884C164.303 253.712 164.603 253.584 164.859 253.5C165.115 253.412 165.412 253.284 165.756 253.116C166.096 253.116 166.308 253.072 166.396 252.987C166.48 252.899 166.608 252.859 166.781 252.859C166.949 252.859 167.037 252.815 167.037 252.731C167.037 252.643 167.121 252.602 167.293 252.602C167.974 252.258 168.614 251.918 169.215 251.577C169.811 251.233 170.452 250.893 171.137 250.552L173.443 249.015C173.784 248.671 174.04 248.503 174.212 248.503L174.724 247.99H174.981C176.346 246.622 177.543 246.622 178.568 247.991Z"
    fill="white" />
  <path
    d="M176.772 149.076C177.112 150.613 176.516 151.638 174.979 152.151C173.441 152.663 171.776 153.176 169.982 153.688C168.188 154.201 166.351 154.545 164.472 154.713H162.935C162.763 155.057 162.679 155.27 162.679 155.354C162.679 155.442 162.591 155.654 162.423 155.994C161.566 157.364 160.669 158.645 159.732 159.838C158.791 161.035 157.81 162.233 156.785 163.426C155.76 164.283 154.607 165.092 153.326 165.86C152.045 166.629 150.719 167.186 149.354 167.526C147.472 167.87 145.851 167.614 144.485 166.757C143.12 165.904 142.179 164.539 141.667 162.657C141.154 160.78 141.114 158.941 141.539 157.148C141.967 155.354 142.524 153.604 143.204 151.894C144.914 147.967 146.875 144.635 149.098 141.9C150.123 140.535 151.316 139.254 152.685 138.056C154.051 136.863 155.672 136.095 157.554 135.75C159.26 135.75 160.285 136.351 160.629 137.544C160.969 139.254 160.373 140.279 158.835 140.619C157.466 140.791 156.401 141.304 155.632 142.157C154.863 143.014 154.051 143.866 153.198 144.719C152.341 145.744 151.532 146.857 150.764 148.05C149.995 149.248 149.266 150.445 148.586 151.638C148.073 152.836 147.601 154.073 147.176 155.354C146.748 156.635 146.448 157.96 146.28 159.326C146.28 159.67 146.32 160.139 146.408 160.735C146.492 161.336 146.704 161.804 147.049 162.145L147.561 162.657H147.817H148.329C150.379 162.317 152.173 161.248 153.71 159.454C155.248 157.66 156.529 155.91 157.554 154.201L158.066 153.432C156.184 152.751 155.16 151.47 154.991 149.588C154.648 147.882 155.12 146.429 156.401 145.232C157.683 144.039 159.004 143.526 160.373 143.694H161.142C161.822 144.038 162.423 144.379 162.936 144.719C163.448 144.891 163.788 145.232 163.96 145.744C163.96 145.916 164.044 146 164.217 146C164.557 147.025 164.729 147.71 164.729 148.05V149.332V149.588H165.241C167.972 149.076 170.79 148.307 173.698 147.282C175.234 146.941 176.26 147.538 176.772 149.076Z"
    fill="white" />
  <path
    d="M205.471 149.076C205.811 150.613 205.215 151.638 203.678 152.151C202.14 152.663 200.475 153.176 198.681 153.688C196.887 154.201 195.05 154.545 193.172 154.713H191.634C191.462 155.057 191.378 155.27 191.378 155.354C191.378 155.442 191.29 155.654 191.122 155.994C190.265 157.364 189.368 158.645 188.431 159.838C187.49 161.035 186.509 162.233 185.484 163.426C184.459 164.283 183.306 165.092 182.025 165.86C180.744 166.629 179.419 167.186 178.053 167.526C176.171 167.87 174.55 167.614 173.184 166.757C171.819 165.904 170.878 164.539 170.366 162.657C169.854 160.78 169.813 158.941 170.238 157.148C170.666 155.354 171.222 153.604 171.903 151.894C173.613 147.967 175.575 144.635 177.797 141.9C178.822 140.535 180.015 139.254 181.385 138.056C182.75 136.863 184.371 136.095 186.253 135.75C187.959 135.75 188.984 136.351 189.328 137.544C189.668 139.254 189.072 140.279 187.534 140.619C186.165 140.791 185.1 141.304 184.331 142.157C183.563 143.014 182.75 143.866 181.897 144.719C181.04 145.744 180.231 146.857 179.463 148.05C178.694 149.248 177.966 150.445 177.285 151.638C176.773 152.836 176.3 154.073 175.876 155.354C175.447 156.635 175.147 157.96 174.979 159.326C174.979 159.67 175.019 160.139 175.107 160.735C175.191 161.336 175.403 161.804 175.748 162.145L176.26 162.657H176.516H177.028C179.079 162.317 180.872 161.248 182.41 159.454C183.947 157.66 185.228 155.91 186.253 154.201L186.766 153.432C184.884 152.751 183.859 151.47 183.691 149.588C183.347 147.882 183.819 146.429 185.1 145.232C186.382 144.039 187.703 143.526 189.072 143.694H189.841C190.521 144.038 191.122 144.379 191.635 144.719C192.147 144.891 192.488 145.232 192.66 145.744C192.66 145.916 192.743 146 192.916 146C193.256 147.025 193.428 147.71 193.428 148.05V149.332V149.588H193.94C196.671 149.076 199.49 148.307 202.397 147.282C203.934 146.941 204.958 147.538 205.471 149.076Z"
    fill="white" />
  <path
    d="M235.195 118.837C229.045 119.35 222.895 119.95 216.746 120.631C214.351 127.126 212.089 133.66 209.955 140.235C207.817 146.813 205.639 153.348 203.421 159.838C200.858 168.039 198.256 176.07 195.605 183.927C192.959 191.786 190.352 199.726 187.79 207.758L180.102 231.847C178.909 235.774 177.756 239.746 176.643 243.763C175.534 247.774 174.297 251.747 172.928 255.679C172.415 257.216 171.35 257.769 169.725 257.344C168.103 256.916 167.547 255.935 168.059 254.397C169.769 249.272 171.39 244.103 172.928 238.894C174.465 233.68 176.003 228.515 177.54 223.39C179.078 218.265 180.703 213.139 182.409 208.014C184.119 202.889 185.828 197.764 187.534 192.639C195.221 168.895 203.165 145.063 211.365 121.143L173.185 124.987C171.479 124.987 170.622 124.134 170.622 122.424C170.622 121.059 171.479 120.206 173.185 119.862L213.158 116.018L220.077 96.7987C220.757 95.0931 221.782 94.4923 223.151 95.0049C224.689 95.349 225.285 96.3744 224.945 98.0799C223.748 100.987 222.639 103.89 221.614 106.793C220.589 109.7 219.564 112.603 218.539 115.505L252.876 112.174H253.901C254.413 112.174 254.965 112.302 255.566 112.558C256.163 112.815 256.463 113.372 256.463 114.224C256.631 115.249 256.463 115.934 255.95 116.274C255.438 116.618 254.925 116.875 254.413 117.043H253.644C247.495 117.728 241.345 118.325 235.195 118.837Z"
    fill="white" />
  <path
    d="M244.931 148.05C245.444 148.563 245.74 149.204 245.828 149.972C245.912 150.741 245.612 151.298 244.931 151.638C241 154.886 236.475 157.704 231.35 160.095C230.494 160.439 229.769 160.735 229.173 160.991C228.572 161.248 227.931 161.548 227.251 161.888C227.251 162.233 227.163 162.401 226.994 162.401C226.822 164.283 226.394 166.117 225.713 167.91C225.029 169.704 223.831 171.03 222.126 171.882C220.244 172.907 218.578 172.779 217.129 171.498C215.68 170.217 215.039 168.639 215.207 166.757C215.38 164.879 216.192 163.342 217.642 162.145C219.091 160.952 220.5 159.926 221.87 159.07C221.526 157.192 221.013 155.482 220.332 153.944C219.648 152.407 219.051 150.869 218.538 149.332C218.026 147.794 217.686 146.172 217.514 144.463C217.173 141.9 217.43 139.594 218.283 137.544C218.623 136.179 219.135 134.981 219.82 133.956C220.5 132.931 221.441 132.163 222.638 131.65C224.003 131.138 225.369 131.225 226.738 131.906C228.103 132.591 229.044 133.532 229.557 134.725C230.75 137.46 230.538 140.022 228.916 142.413C227.291 144.807 225.625 146.857 223.92 148.563L223.663 148.819C224.004 149.504 224.26 150.189 224.432 150.869C224.6 151.554 224.857 152.238 225.201 152.919C225.882 154.629 226.31 155.91 226.482 156.763C227.507 156.423 228.488 155.994 229.429 155.482C230.366 154.969 231.263 154.545 232.12 154.201C233.826 153.348 235.451 152.451 236.989 151.51C238.526 150.573 240.064 149.42 241.601 148.05C242.793 147.025 243.906 147.025 244.931 148.05ZM220.076 167.014C220.244 167.014 220.416 166.93 220.588 166.757L221.357 165.22C220.672 165.904 220.244 166.501 220.076 167.014ZM222.638 141.388C222.638 141.732 222.55 141.9 222.382 141.9V142.925C222.722 142.585 223.062 142.072 223.407 141.388C224.088 140.875 224.6 140.107 224.944 139.081C225.113 138.913 225.2 138.657 225.2 138.313L225.457 138.056V137.8V137.544C225.457 137.376 225.369 137.288 225.2 137.288C225.2 137.12 225.113 136.947 224.944 136.775C224.772 136.775 224.6 136.691 224.432 136.519C224.26 136.351 224.26 136.351 224.432 136.519C224.26 136.519 224.132 136.563 224.048 136.647C223.959 136.735 224.003 136.775 224.176 136.775C223.832 137.119 223.663 137.376 223.663 137.544L223.407 137.8V138.056C223.235 138.569 223.063 139.081 222.895 139.594C222.723 140.107 222.639 140.619 222.639 141.132V141.388H222.638Z"
    fill="white" />
  <path
    d="M96.78 279.717L96.903 280.24C97.7226 280.998 98.133 281.91 98.133 282.977V288.143C98.133 289.168 97.7743 290.039 97.0568 290.757C96.3389 291.474 95.4681 291.833 94.4431 291.833H75.9937V269.692H93.4899C94.5149 269.692 95.3857 270.051 96.1036 270.768C96.8207 271.486 97.1798 272.358 97.1798 273.382V278.088C97.1798 278.641 97.0462 279.184 96.78 279.717ZM93.4899 272.183H79.6835C79.3555 272.183 79.0733 272.301 78.8379 272.537C78.6018 272.773 78.4843 273.055 78.4843 273.382V278.088C78.4843 278.416 78.6022 278.698 78.8379 278.933C79.0733 279.169 79.3555 279.287 79.6835 279.287H93.4899C93.8175 279.287 94.0942 279.169 94.3201 278.933C94.5456 278.698 94.6584 278.416 94.6584 278.088V273.382C94.6584 273.055 94.5456 272.773 94.3201 272.537C94.0942 272.301 93.8175 272.183 93.4899 272.183ZM95.6423 288.143V282.977C95.6423 282.649 95.5241 282.367 95.2887 282.131C95.0526 281.895 94.7707 281.777 94.4431 281.777H79.6835C79.3555 281.777 79.0733 281.895 78.8379 282.131C78.6018 282.367 78.4843 282.649 78.4843 282.977V288.143C78.4843 288.471 78.6022 288.753 78.8379 288.989C79.0733 289.224 79.3555 289.342 79.6835 289.342H94.4431C94.7707 289.342 95.053 289.224 95.2887 288.989C95.5241 288.753 95.6423 288.471 95.6423 288.143Z"
    fill="#F4F4F5" />
  <path d="M108.741 269.692H130.88V272.183H121.071V291.833H118.58V272.183H108.741V269.692Z" fill="#F4F4F5" />
  <path
    d="M147.576 273.997C148.601 273.997 149.477 274.361 150.206 275.089C150.933 275.816 151.297 276.693 151.297 277.718V291.833H148.775V277.718C148.775 277.39 148.657 277.108 148.422 276.872C148.186 276.637 147.904 276.519 147.576 276.519H136.875C136.547 276.519 136.26 276.637 136.014 276.872C135.768 277.108 135.645 277.39 135.645 277.718V291.833H133.124V268.155H135.645V273.997H147.576Z"
    fill="#F4F4F5" />
  <path
    d="M167.994 273.997C169.039 273.997 169.925 274.361 170.654 275.089C171.381 275.816 171.745 276.693 171.745 277.718V284.176H156.093V288.112C156.093 288.44 156.211 288.722 156.447 288.958C156.683 289.194 156.965 289.312 157.293 289.312H171.745V291.833H157.293C156.268 291.833 155.392 291.47 154.664 290.741C153.936 290.014 153.573 289.138 153.573 288.112V277.719C153.573 276.693 153.936 275.817 154.664 275.089C155.391 274.362 156.268 273.998 157.293 273.998H167.994V273.997ZM156.093 281.654H169.193V277.718C169.193 277.39 169.075 277.108 168.839 276.872C168.603 276.637 168.321 276.519 167.993 276.519H157.293C156.965 276.519 156.682 276.637 156.447 276.872C156.211 277.108 156.093 277.39 156.093 277.718V281.654H156.093Z"
    fill="#F4F4F5" />
  <path
    d="M186.996 269.692H201.755C202.78 269.692 203.651 270.051 204.369 270.768C205.086 271.486 205.445 272.357 205.445 273.382V288.142C205.445 289.168 205.086 290.039 204.369 290.756C203.651 291.474 202.78 291.832 201.755 291.832H186.996C185.97 291.832 185.099 291.474 184.382 290.756C183.665 290.039 183.306 289.168 183.306 288.142V273.382C183.306 272.357 183.665 271.486 184.382 270.768C185.099 270.051 185.97 269.692 186.996 269.692ZM186.996 289.342H201.755C202.083 289.342 202.365 289.224 202.601 288.988C202.837 288.753 202.955 288.471 202.955 288.142V273.382C202.955 273.054 202.837 272.772 202.601 272.536C202.365 272.301 202.083 272.183 201.755 272.183H186.996C186.668 272.183 186.386 272.301 186.15 272.536C185.914 272.772 185.796 273.054 185.796 273.382V288.142C185.796 288.47 185.914 288.753 186.15 288.988C186.386 289.224 186.668 289.342 186.996 289.342Z"
    fill="#F4F4F5" />
  <path
    d="M223.218 273.997C224.243 273.997 225.119 274.361 225.847 275.089C226.574 275.816 226.938 276.693 226.938 277.718V291.833H224.417V277.718C224.417 277.39 224.299 277.108 224.063 276.872C223.827 276.637 223.545 276.519 223.217 276.519H212.517C212.189 276.519 211.902 276.637 211.656 276.872C211.41 277.108 211.287 277.39 211.287 277.718V291.833H208.765V273.997H223.218Z"
    fill="#F4F4F5" />
  <path
    d="M244.497 273.997C245.542 273.997 246.428 274.361 247.156 275.089C247.884 275.816 248.248 276.693 248.248 277.718V284.176H232.596V288.112C232.596 288.44 232.714 288.722 232.95 288.958C233.186 289.194 233.467 289.312 233.796 289.312H248.248V291.833H233.796C232.771 291.833 231.894 291.47 231.167 290.741C230.439 290.014 230.075 289.138 230.075 288.112V277.719C230.075 276.693 230.439 275.817 231.167 275.089C231.894 274.362 232.771 273.998 233.796 273.998H244.497V273.997ZM232.596 281.654H245.695V277.718C245.695 277.39 245.578 277.108 245.342 276.872C245.106 276.637 244.824 276.519 244.496 276.519H233.796C233.468 276.519 233.186 276.637 232.95 276.872C232.714 277.108 232.596 277.39 232.596 277.718V281.654Z"
    fill="#F4F4F5" />
</svg>
