<svg width="200" height="200" viewBox="0 0 200 200" xmlns="http://www.w3.org/2000/svg">
    <g clip-path="url(#clip0_531_909)">
        <path d="M146.181 143.23L157.258 132.153L172.972 147.868L161.896 158.944L146.181 143.23Z" data-stroke="white"
            stroke="white" fill="none" data-fill="#E6E2E6" />
        <path d="M146.181 143.23L157.258 132.153L172.972 147.868L161.896 158.944L146.181 143.23Z" data-stroke="white"
            stroke="white" fill="none" data-fill="#ECDAEC" />
        <path d="M146.182 143.229L151.454 137.957L167.169 153.672L161.896 158.944L146.182 143.229Z" data-stroke="white"
            stroke="white" fill="none" data-fill="#E2CBE2" />
        <path
            d="M3.125 8.98438C3.125 5.74844 5.74844 3.125 8.98438 3.125H107.596L143.899 39.4285V191.016C143.899 194.252 141.276 196.875 138.04 196.875H8.98438C5.74844 196.875 3.125 194.252 3.125 191.016V8.98438Z"
            data-stroke="white" stroke="white" fill="none" data-fill="#F9F6F6" />
        <path
            d="M138.04 189.844H8.98438C5.74844 189.844 3.125 187.22 3.125 183.984V191.016C3.125 194.252 5.74844 196.875 8.98438 196.875H138.04C141.276 196.875 143.899 194.252 143.899 191.016V183.984C143.899 187.22 141.276 189.844 138.04 189.844Z"
            data-stroke="white" stroke="white" fill="none" data-fill="#ECDAEC" />
        <path d="M113.455 39.4285H143.899L107.595 3.125V33.5691C107.595 36.8051 110.219 39.4285 113.455 39.4285Z"
            data-stroke="white" stroke="white" fill="none" data-fill="#E2CBE2" />
        <path d="M113.455 39.4285H143.899L107.595 3.125V33.5691C107.595 36.8051 110.219 39.4285 113.455 39.4285Z"
            data-stroke="white" stroke="white" fill="none" data-fill="#E2CBE2" />
        <path
            d="M122.631 157.196C149.487 157.196 171.258 135.425 171.258 108.569C171.258 81.7134 149.487 59.9426 122.631 59.9426C95.7757 59.9426 74.0049 81.7134 74.0049 108.569C74.0049 135.425 95.7757 157.196 122.631 157.196Z"
            data-stroke="white" stroke="white" fill="none" data-fill="#E2CBE2" />
        <path
            d="M157.016 135.922C138.026 154.912 107.238 154.912 88.2479 135.922C79.6479 127.322 74.9425 116.302 74.1323 105.054C73.1534 118.643 77.8585 132.564 88.2479 142.954C107.238 161.943 138.026 161.943 157.016 142.954C167.406 132.564 172.111 118.643 171.132 105.054C170.321 116.302 165.617 127.322 157.016 135.922Z"
            data-stroke="white" stroke="white" fill="none" data-fill="#DAB9D8" />
        <path
            d="M122.632 143.777C142.076 143.777 157.839 128.014 157.839 108.569C157.839 89.1244 142.076 73.3613 122.632 73.3613C103.187 73.3613 87.4238 89.1244 87.4238 108.569C87.4238 128.014 103.187 143.777 122.632 143.777Z"
            data-stroke="white" stroke="white" fill="none" data-fill="#FFE27A" />
        <path
            d="M147.527 126.434C133.778 140.183 111.486 140.183 97.7363 126.434C91.757 120.454 88.3812 112.859 87.6023 105.054C86.5902 115.196 89.9664 125.695 97.7363 133.465C111.486 147.214 133.778 147.214 147.527 133.465C155.297 125.695 158.673 115.196 157.661 105.054C156.883 112.859 153.507 120.454 147.527 126.434Z"
            data-stroke="white" stroke="white" fill="none" data-fill="#F9CF58" />
        <path
            d="M119.481 123.054C117.934 123.054 116.386 122.475 115.19 121.311L107.111 113.455C104.673 111.084 104.618 107.187 106.989 104.749C109.359 102.312 113.257 102.257 115.694 104.627L119.366 108.198L130.397 96.8863C132.771 94.4523 136.669 94.4039 139.103 96.7769C141.537 99.1508 141.586 103.049 139.213 105.483L123.889 121.196C122.683 122.433 121.083 123.054 119.481 123.054Z"
            data-stroke="white" stroke="white" fill="none" data-fill="#98DB7C" />
        <path
            d="M139.213 98.4516L123.889 114.164C122.683 115.401 121.083 116.023 119.481 116.023C117.934 116.023 116.386 115.443 115.19 114.28L107.111 106.423C106.825 106.145 106.575 105.845 106.354 105.529C104.661 107.959 104.918 111.323 107.111 113.455L115.19 121.311C116.387 122.475 117.934 123.054 119.481 123.054C121.083 123.054 122.683 122.433 123.889 121.196L139.213 105.483C141.31 103.332 141.513 100.041 139.854 97.6656C139.663 97.9395 139.454 98.2047 139.213 98.4516Z"
            data-stroke="white" stroke="white" fill="none" data-fill="#82D361" />
        <path
            d="M175.193 145.682L159.745 161.13L178.228 179.613C182.494 183.879 189.41 183.879 193.676 179.613C197.942 175.348 197.942 168.431 193.676 164.165L175.193 145.682Z"
            data-stroke="white" stroke="white" fill="none" data-fill="#FF4755" />
        <path
            d="M183.495 174.334L165.018 155.857L159.745 161.13L178.228 179.613C182.493 183.879 189.41 183.879 193.675 179.613C194.605 178.684 195.331 177.629 195.856 176.503C191.809 178.399 186.838 177.677 183.495 174.334Z"
            data-stroke="white" stroke="white" fill="none" data-fill="#FC2B3A" />
        <path
            d="M39.5989 77.1106H26.7821C24.781 77.1106 23.1587 75.4883 23.1587 73.4871V60.6699C23.1587 58.6688 24.781 57.0465 26.7821 57.0465H39.5993C41.6005 57.0465 43.2228 58.6688 43.2228 60.6699V73.4871C43.2224 75.4883 41.6001 77.1106 39.5989 77.1106Z"
            data-stroke="white" stroke="white" fill="none" data-fill="#98DB7C" />
        <path
            d="M39.5989 118.189H26.7821C24.781 118.189 23.1587 116.567 23.1587 114.566V101.749C23.1587 99.7477 24.781 98.1254 26.7821 98.1254H39.5993C41.6005 98.1254 43.2228 99.7477 43.2228 101.749V114.566C43.2224 116.567 41.6001 118.189 39.5989 118.189Z"
            data-stroke="white" stroke="white" fill="none" data-fill="#98DB7C" />
        <path
            d="M39.5989 160.102H26.7821C24.781 160.102 23.1587 158.48 23.1587 156.479V143.662C23.1587 141.661 24.781 140.038 26.7821 140.038H39.5993C41.6005 140.038 43.2228 141.661 43.2228 143.662V156.479C43.2224 158.48 41.6001 160.102 39.5989 160.102Z"
            data-stroke="white" stroke="white" fill="none" data-fill="#98DB7C" />
        <path
            d="M39.5989 70.0793H26.7821C24.781 70.0793 23.1587 68.457 23.1587 66.4562V73.4875C23.1587 75.4887 24.781 77.1109 26.7821 77.1109H39.5993C41.6005 77.1109 43.2224 75.4887 43.2224 73.4875V66.4562C43.2224 68.457 41.6001 70.0793 39.5989 70.0793Z"
            data-stroke="white" stroke="white" fill="none" data-fill="#82D361" />
        <path
            d="M39.5989 111.158H26.7821C24.781 111.158 23.1587 109.536 23.1587 107.535V114.566C23.1587 116.567 24.781 118.189 26.7821 118.189H39.5993C41.6005 118.189 43.2224 116.567 43.2224 114.566V107.535C43.2224 109.536 41.6001 111.158 39.5989 111.158Z"
            data-stroke="white" stroke="white" fill="none" data-fill="#82D361" />
        <path
            d="M39.5989 153.071H26.7821C24.781 153.071 23.1587 151.449 23.1587 149.448V156.479C23.1587 158.48 24.781 160.102 26.7821 160.102H39.5993C41.6005 160.102 43.2224 158.48 43.2224 156.479V149.448C43.2224 151.449 41.6001 153.071 39.5989 153.071Z"
            data-stroke="white" stroke="white" fill="none" data-fill="#82D361" />
        <path
            d="M107.596 33.5691V40.6004C107.596 43.8363 110.219 46.4597 113.455 46.4597H143.899V39.4285H113.455C110.219 39.4285 107.596 36.8051 107.596 33.5691Z"
            data-stroke="white" stroke="white" fill="none" data-fill="#ECDAEC" />
        <path
            d="M119.535 126.034C122.01 126.034 124.326 125.059 126.054 123.287L141.41 107.543C144.915 103.949 144.842 98.1742 141.248 94.6691C137.654 91.1648 131.878 91.2375 128.373 94.8309L119.365 104.066L117.787 102.532C114.187 99.0332 108.412 99.1133 104.911 102.712C101.412 106.311 101.493 112.086 105.092 115.586L113.188 123.457C114.897 125.119 117.151 126.034 119.535 126.034ZM109.121 106.805C110.365 105.526 112.417 105.5 113.694 106.741L117.373 110.319C118.534 111.448 120.391 111.423 121.522 110.264L132.576 98.9305C133.822 97.6535 135.873 97.6289 137.149 98.8726C138.425 100.118 138.451 102.168 137.207 103.445L121.851 119.188C120.664 120.457 118.502 120.484 117.282 119.249L109.185 111.377C107.908 110.134 107.878 108.083 109.121 106.805Z"
            data-stroke="white" stroke="white" fill="none" data-fill="black" />
        <path
            d="M96.8419 128.032C95.8653 126.738 94.0251 126.48 92.7298 127.457C91.4352 128.434 91.1782 130.274 92.1544 131.568C93.2235 132.985 94.4063 134.344 95.6688 135.606C102.887 142.824 112.484 146.798 122.693 146.798C132.901 146.798 142.498 142.824 149.716 135.606C156.935 128.389 160.91 118.793 160.91 108.586C160.91 98.3793 156.934 88.7836 149.716 81.5664C134.815 66.6676 110.57 66.668 95.6688 81.5664C85.5098 91.7239 81.9149 106.541 86.2872 120.237C86.7802 121.781 88.4333 122.633 89.9766 122.141C91.5212 121.648 92.3739 119.996 91.8805 118.452C88.1794 106.859 91.222 94.3156 99.8212 85.718C112.432 73.1082 132.953 73.1082 145.564 85.718C151.674 91.8266 155.038 99.9481 155.038 108.587C155.038 117.225 151.674 125.347 145.564 131.455C139.455 137.564 131.332 140.928 122.693 140.928C114.053 140.928 105.93 137.564 99.8208 131.455C98.7497 130.384 97.7473 129.232 96.8419 128.032Z"
            data-stroke="white" stroke="white" fill="none" data-fill="black" />
        <path
            d="M195.96 162.215L177.439 143.696C176.292 142.55 174.433 142.55 173.287 143.696L173.173 143.809L166.046 136.683C170.837 129.296 173.692 120.761 174.253 111.854C174.355 110.236 173.126 108.842 171.508 108.739C169.891 108.641 168.496 109.867 168.393 111.484C167.692 122.605 162.961 133.074 155.072 140.962C146.156 149.877 134.448 154.339 122.737 154.35C122.722 154.35 122.707 154.348 122.692 154.348H122.459C110.81 154.289 99.1799 149.829 90.3119 140.962C81.6627 132.314 76.8994 120.816 76.8994 108.586C76.8994 96.3559 81.6627 84.8578 90.3119 76.2102C108.166 58.3578 137.218 58.3578 155.072 76.2102C161.722 82.8594 166.11 91.2465 167.763 100.466C168.049 102.061 169.576 103.121 171.171 102.837C172.767 102.551 173.829 101.026 173.543 99.4297C171.677 89.0246 166.726 79.5598 159.224 72.0586C155.507 68.3418 151.358 65.3133 146.939 62.9684V39.3098C146.937 38.5371 146.625 37.7809 146.079 37.234L109.701 0.859766C109.153 0.315234 108.397 0.00195312 107.624 0H8.80684C3.95059 0 -0.000585937 3.95039 -0.000585937 8.80625V33.4793C-0.000585937 35.1004 1.31348 36.4148 2.93535 36.4148C4.55684 36.4148 5.87129 35.1008 5.87129 33.4793V8.80625C5.87129 7.1875 7.18809 5.8707 8.80723 5.8707H104.689V33.4391C104.689 38.2949 108.64 42.2453 113.497 42.2453H141.069V60.3098C135.34 58.1395 129.301 57.0246 123.253 56.9594C123.224 56.9555 123.196 56.9496 123.165 56.9496H57.6186C55.9971 56.9496 54.6826 58.2641 54.6826 59.8852C54.6826 61.5062 55.9971 62.8207 57.6186 62.8207H98.7225C94.5346 65.0105 90.5869 67.8137 87.0119 71.2289H57.6186C55.9971 71.2289 54.6826 72.5434 54.6826 74.1645C54.6826 75.7855 55.9971 77.1 57.6186 77.1H81.7279C76.9357 83.3074 73.6607 90.4566 72.0932 98.0883H57.6189C55.9975 98.0883 54.683 99.4027 54.683 101.024C54.683 102.645 55.9975 103.959 57.6189 103.959H71.2357C71.1006 105.489 71.0291 107.032 71.0291 108.587C71.0291 109.862 71.0756 111.13 71.1666 112.389H57.6193C55.9979 112.389 54.6834 113.703 54.6834 115.324C54.6834 116.945 55.9979 118.26 57.6193 118.26H71.9318C73.4291 126.205 76.7674 133.651 81.7369 140.084H57.6193C55.9979 140.084 54.6834 141.398 54.6834 143.02C54.6834 144.641 55.9979 145.955 57.6193 145.955H87.0236C90.5936 149.364 94.535 152.163 98.7154 154.35H57.6178C55.9963 154.35 54.6818 155.664 54.6818 157.285C54.6818 158.906 55.9963 160.221 57.6178 160.221H122.692C128.927 160.22 135.163 159.1 141.068 156.863V191.195C141.068 192.814 139.751 194.131 138.132 194.131H8.80684C7.18809 194.131 5.8709 192.814 5.8709 191.195V45.2227C5.8709 43.6016 4.55645 42.2871 2.93496 42.2871C1.31348 42.2871 -0.000976562 43.6012 -0.000976562 45.2227V191.195C-0.000585937 196.05 3.95059 200 8.80684 200H138.132C142.988 200 146.94 196.05 146.94 191.194V154.203C148.25 153.507 149.536 152.751 150.794 151.936L157.92 159.061C156.687 160.137 156.621 162.189 157.806 163.325L176.328 181.845C181.495 187.23 190.794 187.229 195.96 181.845C201.346 176.679 201.346 167.381 195.96 162.215ZM113.496 36.3746C111.878 36.3746 110.56 35.0578 110.56 33.4391V10.0223L136.916 36.3746H113.496ZM155.583 148.421C156.836 147.386 158.052 146.285 159.224 145.113C160.389 143.948 161.491 142.732 162.532 141.473L169.021 147.961L162.072 154.909L155.583 148.421ZM191.808 177.693C188.827 180.801 183.462 180.8 180.48 177.693L164.034 161.25L175.363 149.923L191.809 166.366C194.916 169.348 194.916 174.712 191.808 177.693Z"
            data-stroke="white" stroke="white" fill="none" data-fill="black" />
        <path
            d="M26.642 80.0012H39.4857C43.1068 80.0012 46.0529 77.0559 46.0529 73.4355V60.5934C46.0529 56.9727 43.1072 54.0273 39.4857 54.0273H26.642C23.0213 54.0273 20.0752 56.9727 20.0752 60.5934V73.4355C20.0752 77.0559 23.0213 80.0012 26.642 80.0012ZM25.9471 60.5934C25.9471 60.2102 26.2592 59.8984 26.642 59.8984H39.4857C39.8693 59.8984 40.1811 60.2102 40.1811 60.5934V73.4355C40.1811 73.8187 39.8689 74.1305 39.4857 74.1305H26.642C26.2588 74.1305 25.9471 73.8187 25.9471 73.4355V60.5934Z"
            data-stroke="white" stroke="white" fill="none" data-fill="black" />
        <path
            d="M20.0752 114.595C20.0752 118.215 23.0209 121.16 26.642 121.16H39.4857C43.1068 121.16 46.0529 118.215 46.0529 114.595V101.752C46.0529 98.132 43.1072 95.1867 39.4857 95.1867H26.642C23.0213 95.1867 20.0752 98.132 20.0752 101.752V114.595ZM25.9471 101.752C25.9471 101.369 26.2592 101.057 26.642 101.057H39.4857C39.8693 101.057 40.1811 101.369 40.1811 101.752V114.595C40.1811 114.978 39.8689 115.289 39.4857 115.289H26.642C26.2588 115.289 25.9471 114.978 25.9471 114.595V101.752Z"
            data-stroke="white" stroke="white" fill="none" data-fill="black" />
        <path
            d="M20.0752 156.59C20.0752 160.21 23.0209 163.155 26.642 163.155H39.4857C43.1068 163.155 46.0529 160.21 46.0529 156.59V143.748C46.0529 140.127 43.1072 137.182 39.4857 137.182H26.642C23.0213 137.182 20.0752 140.127 20.0752 143.748V156.59ZM25.9471 143.748C25.9471 143.364 26.2592 143.053 26.642 143.053H39.4857C39.8693 143.053 40.1811 143.364 40.1811 143.748V156.59C40.1811 156.973 39.8689 157.285 39.4857 157.285H26.642C26.2588 157.285 25.9471 156.973 25.9471 156.59V143.748Z"
            data-stroke="white" stroke="white" fill="none" data-fill="black" />
    </g>
    <defs>
        <clipPath id="clip0_531_909">
            <rect width="200" height="200" data-stroke="white" stroke="white" fill="none" data-fill="white" />
        </clipPath>
    </defs>
</svg>
