<svg viewBox="0 0 28 28" fill="none" xmlns="http://www.w3.org/2000/svg">
    <g clip-path="url(#clip0_530_653)">
        <path
            d="M16.7273 17.2275C16.5107 17.2275 16.294 17.1464 16.1265 16.9836L14.9954 15.8837C14.6542 15.5518 14.6465 15.0062 14.9783 14.6649C15.3102 14.3236 15.8559 14.316 16.1971 14.6478L16.7112 15.1477L18.2556 13.5641C18.5879 13.2233 19.1336 13.2165 19.4744 13.5488C19.8151 13.8811 19.822 14.4268 19.4897 14.7676L17.3443 16.9674C17.1755 17.1406 16.9515 17.2275 16.7273 17.2275Z"
            fill="currentColor" />
        <path
            d="M19.4898 13.7832L17.3445 15.983C17.1756 16.1562 16.9516 16.2432 16.7274 16.2432C16.5109 16.2432 16.2941 16.1621 16.1267 15.9992L14.9956 14.8993C14.9555 14.8603 14.9205 14.8182 14.8896 14.7741C14.6525 15.1142 14.6886 15.5852 14.9956 15.8837L16.1267 16.9836C16.2942 17.1465 16.5109 17.2275 16.7274 17.2275C16.9516 17.2275 17.1756 17.1406 17.3445 16.9674L19.4898 14.7676C19.7835 14.4665 19.8118 14.0057 19.5796 13.6732C19.5528 13.7115 19.5235 13.7487 19.4898 13.7832Z"
            fill="currentColor" />
        <path
            d="M24.527 20.3955L22.3643 22.5582L24.9519 25.1459C25.5491 25.743 26.5174 25.743 27.1146 25.1459C27.7118 24.5487 27.7118 23.5804 27.1146 22.9831L24.527 20.3955Z"
            fill="currentColor" />
        <path
            d="M25.6894 24.4068L23.1025 21.8199L22.3643 22.5582L24.9519 25.1459C25.5491 25.743 26.5174 25.743 27.1146 25.1459C27.2447 25.0158 27.3464 24.868 27.4198 24.7104C26.8532 24.9759 26.1574 24.8748 25.6894 24.4068Z"
            fill="currentColor" />
        <path
            d="M5.54382 10.7955H3.74947C3.4693 10.7955 3.24219 10.5684 3.24219 10.2882V8.49379C3.24219 8.21363 3.4693 7.98651 3.74947 7.98651H5.54388C5.82404 7.98651 6.05116 8.21363 6.05116 8.49379V10.2882C6.05111 10.5684 5.82399 10.7955 5.54382 10.7955Z"
            fill="currentColor" />
        <path
            d="M5.54382 16.5465H3.74947C3.4693 16.5465 3.24219 16.3194 3.24219 16.0392V14.2448C3.24219 13.9647 3.4693 13.7376 3.74947 13.7376H5.54388C5.82404 13.7376 6.05116 13.9647 6.05116 14.2448V16.0392C6.05111 16.3194 5.82399 16.5465 5.54382 16.5465Z"
            fill="currentColor" />
        <path
            d="M5.54382 22.4143H3.74947C3.4693 22.4143 3.24219 22.1872 3.24219 21.9071V20.1126C3.24219 19.8325 3.4693 19.6054 3.74947 19.6054H5.54388C5.82404 19.6054 6.05116 19.8325 6.05116 20.1126V21.9071C6.05111 22.1872 5.82399 22.4143 5.54382 22.4143Z"
            fill="currentColor" />
        <path
            d="M5.54382 9.81111H3.74947C3.4693 9.81111 3.24219 9.58399 3.24219 9.30388V10.2883C3.24219 10.5684 3.4693 10.7955 3.74947 10.7955H5.54387C5.82404 10.7955 6.0511 10.5684 6.0511 10.2883V9.30388C6.0511 9.58399 5.82398 9.81111 5.54382 9.81111Z"
            fill="currentColor" />
        <path
            d="M5.54382 15.5622H3.74947C3.4693 15.5622 3.24219 15.335 3.24219 15.0549V16.0392C3.24219 16.3194 3.4693 16.5465 3.74947 16.5465H5.54387C5.82404 16.5465 6.0511 16.3194 6.0511 16.0392V15.0549C6.0511 15.335 5.82398 15.5622 5.54382 15.5622Z"
            fill="currentColor" />
        <path
            d="M5.54382 21.43H3.74947C3.4693 21.43 3.24219 21.2028 3.24219 20.9227V21.907C3.24219 22.1872 3.4693 22.4143 3.74947 22.4143H5.54387C5.82404 22.4143 6.0511 22.1872 6.0511 21.907V20.9227C6.0511 21.2028 5.82398 21.43 5.54382 21.43Z"
            fill="currentColor" />
        <path
            d="M16.7349 17.6448C17.0814 17.6448 17.4055 17.5082 17.6475 17.2601L19.7974 15.056C20.288 14.5529 20.2778 13.7444 19.7747 13.2537C19.2715 12.7631 18.4628 12.7733 17.9722 13.2763L16.711 14.5692L16.4901 14.3544C15.9862 13.8646 15.1776 13.8759 14.6875 14.3797C14.1976 14.8835 14.209 15.692 14.7128 16.182L15.8463 17.284C16.0856 17.5167 16.4012 17.6448 16.7349 17.6448ZM15.2769 14.9527C15.4511 14.7737 15.7383 14.7699 15.9171 14.9438L16.4322 15.4447C16.5948 15.6028 16.8546 15.5992 17.013 15.437L18.5607 13.8503C18.735 13.6715 19.0222 13.668 19.2008 13.8422C19.3795 14.0165 19.383 14.3036 19.2089 14.4822L17.059 16.6863C16.8929 16.864 16.5903 16.8678 16.4194 16.6948L15.2859 15.5928C15.107 15.4188 15.1029 15.1316 15.2769 14.9527Z"
            fill="currentColor" />
        <path
            d="M13.5578 17.9245C13.4211 17.7434 13.1634 17.7073 12.9821 17.844C12.8009 17.9807 12.7649 18.2384 12.9015 18.4196C13.0512 18.6179 13.2168 18.8081 13.3936 18.9849C14.4041 19.9953 15.7477 20.5518 17.1769 20.5518C18.606 20.5518 19.9496 19.9953 20.9602 18.9849C21.9708 17.9745 22.5273 16.631 22.5273 15.2021C22.5273 13.7731 21.9707 12.4297 20.9602 11.4193C18.874 9.33346 15.4797 9.33352 13.3936 11.4193C11.9713 12.8413 11.468 14.9158 12.0801 16.8331C12.1491 17.0494 12.3806 17.1686 12.5967 17.0997C12.8129 17.0307 12.9323 16.7994 12.8632 16.5832C12.345 14.9602 12.771 13.2042 13.9749 12.0005C15.7404 10.2352 18.6134 10.2352 20.3789 12.0005C21.2342 12.8557 21.7053 13.9927 21.7053 15.2021C21.7053 16.4116 21.2342 17.5486 20.3789 18.4038C19.5236 19.2589 18.3865 19.7299 17.1769 19.7299C15.9674 19.7299 14.8301 19.259 13.9748 18.4038C13.8249 18.2537 13.6845 18.0925 13.5578 17.9245Z"
            fill="currentColor" />
        <path
            d="M27.4336 22.7101L24.8406 20.1175C24.68 19.957 24.4198 19.9569 24.2593 20.1175L24.2434 20.1333L23.2455 19.1356C23.9163 18.1015 24.316 16.9066 24.3946 15.6595C24.4089 15.433 24.2368 15.2379 24.0103 15.2235C23.7839 15.2097 23.5886 15.3814 23.5742 15.6078C23.476 17.1647 22.8137 18.6303 21.7092 19.7346C20.4611 20.9827 18.8219 21.6075 17.1823 21.6091C17.1802 21.609 17.1782 21.6087 17.176 21.6087H17.1434C15.5126 21.6005 13.8843 20.976 12.6428 19.7346C11.4319 18.524 10.7651 16.9142 10.7651 15.202C10.7651 13.4898 11.4319 11.8801 12.6428 10.6694C15.1424 8.17009 19.2096 8.17009 21.7092 10.6694C22.6402 11.6003 23.2546 12.7745 23.486 14.0652C23.5261 14.2886 23.7398 14.437 23.9631 14.3972C24.1865 14.3572 24.3352 14.1436 24.2951 13.9202C24.034 12.4634 23.3408 11.1384 22.2905 10.0882C21.7701 9.56785 21.1893 9.14386 20.5707 8.81557V5.50337C20.5703 5.3952 20.5266 5.28932 20.4503 5.21276L15.3572 0.120367C15.2806 0.0441328 15.1748 0.000273438 15.0665 0H1.23212C0.552242 0 -0.000921875 0.553055 -0.000921875 1.23287V4.6871C-0.000921875 4.91405 0.183047 5.09808 0.410109 5.09808C0.637117 5.09808 0.821141 4.91411 0.821141 4.6871V1.23287C0.821141 1.00625 1.00549 0.821898 1.23217 0.821898H14.6557V4.68147C14.6557 5.36129 15.2088 5.91434 15.8887 5.91434H19.7488V8.44337C18.9468 8.13952 18.1014 7.98345 17.2545 7.97431C17.2505 7.97377 17.2465 7.97295 17.2423 7.97295H8.06576C7.83875 7.97295 7.65473 8.15697 7.65473 8.38392C7.65473 8.61088 7.83875 8.7949 8.06576 8.7949H13.8203C13.234 9.10148 12.6813 9.49391 12.1808 9.97205H8.06576C7.83875 9.97205 7.65473 10.1561 7.65473 10.383C7.65473 10.61 7.83875 10.794 8.06576 10.794H11.4411C10.7702 11.663 10.3117 12.6639 10.0922 13.7324H8.06581C7.8388 13.7324 7.65478 13.9164 7.65478 14.1433C7.65478 14.3703 7.8388 14.5543 8.06581 14.5543H9.97217C9.95324 14.7685 9.94323 14.9845 9.94323 15.2021C9.94323 15.3806 9.94974 15.5582 9.96249 15.7344H8.06587C7.83886 15.7344 7.65484 15.9184 7.65484 16.1454C7.65484 16.3723 7.83886 16.5564 8.06587 16.5564H10.0696C10.2792 17.6688 10.7466 18.7111 11.4423 19.6118H8.06587C7.83886 19.6118 7.65484 19.7957 7.65484 20.0227C7.65484 20.2497 7.83886 20.4337 8.06587 20.4337H12.1825C12.6823 20.911 13.2341 21.3027 13.8193 21.6089H8.06565C7.83864 21.6089 7.65462 21.793 7.65462 22.0199C7.65462 22.2469 7.83864 22.4309 8.06565 22.4309H17.176C18.049 22.4308 18.9219 22.274 19.7486 21.9608V26.7673C19.7486 26.9939 19.5643 27.1783 19.3376 27.1783H1.23212C1.00549 27.1783 0.821086 26.994 0.821086 26.7673V6.33117C0.821086 6.10422 0.637062 5.9202 0.410055 5.9202C0.183047 5.9202 -0.000976562 6.10416 -0.000976562 6.33117V26.7673C-0.000921875 27.4469 0.552242 28 1.23212 28H19.3377C20.0175 28 20.5707 27.4469 20.5707 26.7671V21.5884C20.7541 21.491 20.9342 21.3852 21.1103 21.271L22.108 22.2685C21.9353 22.4192 21.9261 22.7064 22.0921 22.8656L24.6851 25.4583C25.4085 26.2122 26.7103 26.2121 27.4336 25.4583C28.1876 24.735 28.1875 23.4334 27.4336 22.7101ZM15.8886 5.09245C15.662 5.09245 15.4776 4.90809 15.4776 4.68147V1.40312L19.1674 5.09245H15.8886ZM21.7808 20.779C21.9562 20.634 22.1265 20.4799 22.2905 20.3159C22.4536 20.1528 22.6079 19.9825 22.7536 19.8062L23.6621 20.7145L22.6892 21.6872L21.7808 20.779ZM26.8523 24.8771C26.435 25.3121 25.6838 25.312 25.2664 24.8771L22.9639 22.5749L24.5499 20.9892L26.8524 23.2913C27.2874 23.7087 27.2874 24.4597 26.8523 24.8771Z"
            fill="currentColor" />
        <path
            d="M3.7299 11.2002H5.52802C6.03498 11.2002 6.44743 10.7878 6.44743 10.281V8.48307C6.44743 7.97617 6.03503 7.56383 5.52802 7.56383H3.7299C3.223 7.56383 2.81055 7.97617 2.81055 8.48307V10.281C2.81055 10.7878 3.223 11.2002 3.7299 11.2002ZM3.63261 8.48307C3.63261 8.42942 3.6763 8.38578 3.7299 8.38578H5.52802C5.58173 8.38578 5.62537 8.42942 5.62537 8.48307V10.281C5.62537 10.3346 5.58167 10.3783 5.52802 10.3783H3.7299C3.67625 10.3783 3.63261 10.3346 3.63261 10.281V8.48307Z"
            fill="currentColor" />
        <path
            d="M2.81055 16.0432C2.81055 16.5501 3.22295 16.9624 3.7299 16.9624H5.52802C6.03498 16.9624 6.44743 16.5501 6.44743 16.0432V14.2453C6.44743 13.7385 6.03503 13.3261 5.52802 13.3261H3.7299C3.223 13.3261 2.81055 13.7385 2.81055 14.2453V16.0432ZM3.63261 14.2453C3.63261 14.1917 3.6763 14.148 3.7299 14.148H5.52802C5.58173 14.148 5.62537 14.1917 5.62537 14.2453V16.0432C5.62537 16.0969 5.58167 16.1405 5.52802 16.1405H3.7299C3.67625 16.1405 3.63261 16.0969 3.63261 16.0432V14.2453Z"
            fill="currentColor" />
        <path
            d="M2.81055 21.9226C2.81055 22.4294 3.22295 22.8418 3.7299 22.8418H5.52802C6.03498 22.8418 6.44743 22.4294 6.44743 21.9226V20.1247C6.44743 19.6178 6.03503 19.2054 5.52802 19.2054H3.7299C3.223 19.2054 2.81055 19.6178 2.81055 20.1247V21.9226ZM3.63261 20.1247C3.63261 20.071 3.6763 20.0274 3.7299 20.0274H5.52802C5.58173 20.0274 5.62537 20.071 5.62537 20.1247V21.9226C5.62537 21.9762 5.58167 22.0199 5.52802 22.0199H3.7299C3.67625 22.0199 3.63261 21.9762 3.63261 21.9226V20.1247Z"
            fill="currentColor" />
    </g>
    <defs>
        <clipPath id="clip0_530_653">
            <rect width="28" height="28" fill="currentColor" />
        </clipPath>
    </defs>
</svg>
