<svg viewBox="0 0 28 28" fill="none" xmlns="http://www.w3.org/2000/svg">
    <path
        d="M27.5888 20.4569L19.541 12.4091L26.2275 5.72263C26.4873 5.46338 26.6935 5.15546 26.8343 4.81646C26.9751 4.47747 27.0476 4.11406 27.0478 3.747C27.048 3.37995 26.9759 3.01645 26.8355 2.6773C26.6951 2.33815 26.4893 2.02998 26.2298 1.77044C25.9702 1.51089 25.6621 1.30505 25.3229 1.16468C24.9837 1.02431 24.6202 0.95217 24.2532 0.952379C23.8861 0.952588 23.5227 1.02514 23.1837 1.1659C22.8447 1.30666 22.5368 1.51285 22.2776 1.77269L15.5911 8.45916L7.54333 0.411415C7.51379 0.381856 7.47873 0.358408 7.44013 0.342409C7.40153 0.326411 7.36015 0.318176 7.31837 0.318176C7.27659 0.318176 7.23521 0.326411 7.19661 0.342409C7.15802 0.358408 7.12295 0.381856 7.09342 0.411415L0.411598 7.09323C0.382039 7.12276 0.358591 7.15783 0.342592 7.19643C0.326594 7.23503 0.318359 7.2764 0.318359 7.31819C0.318359 7.35997 0.326594 7.40134 0.342592 7.43994C0.358591 7.47854 0.382039 7.51361 0.411598 7.54314L8.45934 15.5909L2.63887 21.4114C2.60577 21.4454 2.58086 21.4865 2.56604 21.5316C2.56473 21.5353 2.56127 21.5377 2.56009 21.5415L0.96918 26.6324C0.951843 26.6878 0.950011 26.7469 0.963882 26.8033C0.977753 26.8597 1.0068 26.9113 1.04787 26.9523C1.08894 26.9934 1.14047 27.0224 1.19687 27.0363C1.25327 27.0502 1.31239 27.0484 1.36783 27.031L6.45874 25.4401C6.46246 25.4389 6.46491 25.4355 6.46857 25.4342C6.51366 25.4193 6.55477 25.3944 6.58878 25.3613L12.4093 19.5409L20.4571 27.5886C20.4866 27.6182 20.5217 27.6416 20.5603 27.6576C20.5989 27.6736 20.6402 27.6818 20.682 27.6818C20.7238 27.6818 20.7652 27.6736 20.8038 27.6576C20.8424 27.6416 20.8774 27.6182 20.907 27.5886L27.5888 20.9068C27.6183 20.8772 27.6418 20.8422 27.6578 20.8036C27.6738 20.765 27.682 20.7236 27.682 20.6818C27.682 20.64 27.6738 20.5987 27.6578 20.5601C27.6418 20.5215 27.6183 20.4864 27.5888 20.4569ZM7.47746 23.5728L6.1774 22.2727L22.1138 6.33631L23.4139 7.63637L7.47746 23.5728ZM6.36383 24.6864L3.31377 21.6364L3.97746 20.9727L7.02752 24.0227L6.36383 24.6864ZM20.3638 4.58631L21.6639 5.88637L5.72746 21.8228L4.4274 20.5227L20.3638 4.58631ZM21.4775 3.47267L24.5275 6.52273L23.8638 7.18643L20.8138 4.13637L21.4775 3.47267ZM22.7275 2.22263C22.9275 2.02116 23.1653 1.86116 23.4273 1.7518C23.6893 1.64245 23.9703 1.58589 24.2542 1.58537C24.5381 1.58485 24.8193 1.64039 25.0816 1.74879C25.344 1.85719 25.5824 2.01632 25.7831 2.21706C25.9839 2.4178 26.143 2.65619 26.2514 2.91857C26.3598 3.18095 26.4153 3.46215 26.4148 3.74603C26.4143 4.02992 26.3577 4.31091 26.2484 4.57289C26.139 4.83487 25.979 5.07269 25.7776 5.27269L24.9775 6.07279L21.9274 3.02273L22.7275 2.22263ZM7.31837 1.08631L15.1412 8.9091L14.3184 9.73188L6.49558 1.9091L7.31837 1.08631ZM7.60922 13.8409L8.65696 12.7931C8.71492 12.7331 8.74699 12.6528 8.74627 12.5693C8.74554 12.4859 8.71208 12.4061 8.65309 12.3471C8.59409 12.2881 8.51429 12.2547 8.43086 12.2539C8.34744 12.2532 8.26706 12.2853 8.20705 12.3432L7.15928 13.391L6.01831 12.25L7.06605 11.2022C7.12401 11.1422 7.15608 11.0618 7.15536 10.9784C7.15463 10.895 7.12117 10.8152 7.06218 10.7562C7.00318 10.6972 6.92338 10.6637 6.83995 10.663C6.75653 10.6623 6.67615 10.6944 6.61614 10.7523L5.56837 11.8001L4.4274 10.6591L5.47514 9.61132C5.5331 9.55131 5.56517 9.47094 5.56445 9.38751C5.56372 9.30409 5.53026 9.22428 5.47127 9.16529C5.41227 9.1063 5.33247 9.07283 5.24904 9.07211C5.16562 9.07138 5.08524 9.10345 5.02523 9.16141L3.97746 10.2092L2.83649 9.06819L3.88423 8.02041C3.94219 7.9604 3.97426 7.88003 3.97354 7.79661C3.97281 7.71318 3.93935 7.63337 3.88036 7.57438C3.82137 7.51539 3.74156 7.48192 3.65813 7.4812C3.57471 7.48047 3.49434 7.51255 3.43433 7.57051L2.38655 8.61825L1.08649 7.31819L6.04564 2.35904L13.8684 10.1818L8.90928 15.141L7.60922 13.8409ZM3.01063 22.2331L5.76708 24.9896L1.75779 26.2424L3.01063 22.2331ZM20.682 26.9137L19.3819 25.6136L20.4297 24.5659C20.4601 24.5365 20.4843 24.5014 20.501 24.4626C20.5177 24.4238 20.5264 24.382 20.5268 24.3398C20.5272 24.2975 20.5191 24.2556 20.5031 24.2165C20.4871 24.1774 20.4635 24.1419 20.4336 24.112C20.4038 24.0821 20.3682 24.0585 20.3291 24.0425C20.29 24.0265 20.2481 24.0185 20.2059 24.0188C20.1636 24.0192 20.1219 24.028 20.0831 24.0447C20.0442 24.0613 20.0091 24.0856 19.9798 24.116L18.932 25.1637L17.791 24.0227L18.8388 22.975C18.8692 22.9456 18.8934 22.9105 18.9101 22.8717C18.9268 22.8329 18.9355 22.7911 18.9359 22.7489C18.9363 22.7066 18.9282 22.6647 18.9122 22.6256C18.8962 22.5865 18.8726 22.551 18.8427 22.5211C18.8128 22.4912 18.7773 22.4676 18.7382 22.4516C18.6991 22.4356 18.6572 22.4276 18.615 22.4279C18.5727 22.4283 18.531 22.4371 18.4922 22.4537C18.4533 22.4704 18.4182 22.4947 18.3889 22.5251L17.3411 23.5728L16.2001 22.4318L17.2479 21.3841C17.2783 21.3547 17.3025 21.3196 17.3192 21.2808C17.3359 21.242 17.3446 21.2002 17.345 21.158C17.3454 21.1157 17.3373 21.0738 17.3213 21.0347C17.3053 20.9956 17.2817 20.9601 17.2518 20.9302C17.2219 20.9003 17.1864 20.8767 17.1473 20.8607C17.1082 20.8447 17.0663 20.8366 17.0241 20.837C16.9818 20.8374 16.9401 20.8462 16.9012 20.8628C16.8624 20.8795 16.8273 20.9038 16.798 20.9341L15.7502 21.9819L14.6092 20.8409L15.657 19.7931C15.7149 19.7331 15.747 19.6528 15.7463 19.5693C15.7455 19.4859 15.7121 19.4061 15.6531 19.3471C15.5941 19.2881 15.5143 19.2547 15.4309 19.2539C15.3474 19.2532 15.2671 19.2853 15.2071 19.3432L14.1593 20.391L12.8592 19.0909L17.8184 14.1318L25.6412 21.9546L20.682 26.9137ZM26.0911 21.5046L18.2683 13.6818L19.0911 12.859L26.9139 20.6818L26.0911 21.5046Z"
        fill="currentColor" />
</svg>
