<svg width="200" height="200" viewBox="0 0 200 200" stroke="white" data-stroke="white" fill="none" data-fill="none"
    xmlns="http://www.w3.org/2000/svg">
    <path
        d="M111.363 63.6364L63.6358 111.364C63.6358 111.364 63.6131 111.364 63.5904 111.318L4.54492 52.2727L52.2722 4.54547L111.363 63.6364Z"
        stroke="white" data-stroke="white" fill="none" data-fill="#FFBA00" />
    <path
        d="M111.364 63.6364L63.6365 111.364C63.6365 111.364 63.6138 111.364 63.5911 111.318L58.8184 106.545L106.546 58.8182L111.364 63.6364Z"
        stroke="white" data-stroke="white" fill="none" data-fill="#FF8E00" />
    <path
        d="M195.454 147.727L147.727 195.455C147.727 195.455 147.704 195.455 147.681 195.409L88.6357 136.364L136.363 88.6364L195.454 147.727Z"
        stroke="white" data-stroke="white" fill="none" data-fill="#FFBA00" />
    <path d="M88.6152 136.36L136.336 88.6392L141.153 93.4564L93.4325 141.177L88.6152 136.36Z" stroke="white"
        data-stroke="white" fill="none" data-fill="#FF8E00" />
    <path d="M43.1758 13.6437L52.2655 4.55391L111.348 63.6366L102.258 72.7264L43.1758 13.6437Z" stroke="white"
        data-stroke="white" fill="none" data-fill="#FF8E00" />
    <path d="M127.248 97.7346L136.338 88.6448L195.421 147.728L186.331 156.817L127.248 97.7346Z" stroke="white"
        data-stroke="white" fill="none" data-fill="#FF8E00" />
    <path d="M97.4385 67.9127L106.53 58.8216L111.348 63.6395L102.256 72.7307L97.4385 67.9127Z" stroke="white"
        data-stroke="white" fill="none" data-fill="#E26100" />
    <path d="M127.249 97.731L136.34 88.6398L141.158 93.4578L132.067 102.549L127.249 97.731Z" stroke="white"
        data-stroke="white" fill="none" data-fill="#E26100" />
    <path
        d="M20.4545 154.545L160.731 14.2688C162.371 12.6204 164.32 11.3118 166.467 10.4178C168.613 9.52385 170.915 9.06216 173.24 9.05919C175.566 9.05622 177.869 9.51202 180.018 10.4005C182.166 11.289 184.119 12.5926 185.763 14.2369C187.407 15.8811 188.711 17.8335 189.599 19.9824C190.488 22.1312 190.944 24.4342 190.941 26.7595C190.938 29.0848 190.476 31.3866 189.582 33.5332C188.688 35.6797 187.379 37.6288 185.731 39.2688L45.4545 179.545L9.09082 190.909L20.4545 154.545Z"
        stroke="white" data-stroke="white" fill="none" data-fill="#C4EAFF" />
    <path d="M9.07031 190.905L20.4544 154.545L45.4544 179.545L9.09304 190.9L9.09077 190.909L9.07031 190.905Z"
        stroke="white" data-stroke="white" fill="none" data-fill="#3D72C1" />
    <path
        d="M152.272 22.7273L160.723 14.2623C164.041 10.9456 168.54 9.0827 173.231 9.08334C177.922 9.08398 182.421 10.9481 185.737 14.2657C189.054 17.5832 190.917 22.0825 190.916 26.7735C190.916 31.4646 189.052 35.9633 185.734 39.28L177.272 47.7273L152.272 22.7273Z"
        stroke="white" data-stroke="white" fill="none" data-fill="#3D72C1" />
    <path
        d="M134.568 164.114L123.863 174.818L120.636 171.591L131.34 160.886C131.552 160.673 131.804 160.504 132.081 160.388C132.358 160.272 132.655 160.212 132.956 160.211C133.256 160.211 133.554 160.269 133.832 160.384C134.109 160.499 134.362 160.667 134.574 160.88C134.787 161.092 134.955 161.345 135.07 161.622C135.184 161.9 135.243 162.198 135.243 162.498C135.242 162.799 135.182 163.096 135.066 163.373C134.95 163.65 134.781 163.902 134.568 164.114Z"
        stroke="white" data-stroke="white" fill="none" data-fill="#FF8E00" />
    <path d="M145.443 29.5454L153.409 21.5977L178.421 46.6114L170.455 54.5591L145.443 29.5454Z" stroke="white"
        data-stroke="white" fill="none" data-fill="#6499F3" />
    <path d="M20.4482 154.521L28.3923 146.555L53.4314 171.523L45.4873 179.489L20.4482 154.521Z" stroke="white"
        data-stroke="white" fill="none" data-fill="#6499F3" />
    <path
        d="M197.061 146.12L139.577 88.6364L187.338 40.8759C189.194 39.0241 190.667 36.8247 191.672 34.4033C192.677 31.9819 193.196 29.3861 193.197 26.7643C193.199 24.1424 192.683 21.5461 191.681 19.1235C190.678 16.701 189.208 14.4999 187.354 12.6459C185.5 10.792 183.299 9.32174 180.876 8.3191C178.454 7.31647 175.857 6.80117 173.236 6.80266C170.614 6.80416 168.018 7.32242 165.597 8.32782C163.175 9.33321 160.976 10.806 159.124 12.662L111.363 60.4225L53.8794 2.93863C53.6684 2.7275 53.4179 2.56001 53.1422 2.44574C52.8665 2.33146 52.571 2.27264 52.2725 2.27264C51.9741 2.27264 51.6786 2.33146 51.4029 2.44574C51.1272 2.56001 50.8767 2.7275 50.6657 2.93863L2.93845 50.6659C2.72732 50.8769 2.55983 51.1273 2.44555 51.403C2.33128 51.6787 2.27246 51.9743 2.27246 52.2727C2.27246 52.5712 2.33128 52.8667 2.44555 53.1424C2.55983 53.4181 2.72732 53.6686 2.93845 53.8795L60.4223 111.364L18.8475 152.939C18.6111 153.182 18.4332 153.475 18.3273 153.797C18.318 153.823 18.2932 153.841 18.2848 153.868L6.92118 190.231C6.79734 190.627 6.78426 191.049 6.88333 191.452C6.98241 191.855 7.18988 192.223 7.48324 192.517C7.7766 192.81 8.14467 193.017 8.54754 193.117C8.95041 193.216 9.37271 193.202 9.76868 193.079L46.1323 181.715C46.1589 181.707 46.1764 181.682 46.2025 181.673C46.5246 181.567 46.8182 181.389 47.0612 181.152L88.6362 139.578L146.12 197.061C146.331 197.272 146.582 197.44 146.857 197.554C147.133 197.668 147.429 197.727 147.727 197.727C148.026 197.727 148.321 197.668 148.597 197.554C148.872 197.44 149.123 197.272 149.334 197.061L197.061 149.334C197.272 149.123 197.44 148.873 197.554 148.597C197.668 148.321 197.727 148.026 197.727 147.727C197.727 147.429 197.668 147.133 197.554 146.858C197.44 146.582 197.272 146.331 197.061 146.12ZM53.4089 168.377L44.1228 159.091L157.954 45.2593L167.241 54.5455L53.4089 168.377ZM45.4544 176.332L23.6682 154.545L28.4089 149.805L50.195 171.591L45.4544 176.332ZM145.454 32.7593L154.741 42.0455L40.9089 155.877L31.6228 146.591L145.454 32.7593ZM153.409 24.8048L175.195 46.5909L170.454 51.3316L148.668 29.5455L153.409 24.8048ZM162.338 15.8759C163.766 14.4368 165.465 13.294 167.336 12.5128C169.208 11.7317 171.215 11.3277 173.242 11.324C175.27 11.3203 177.279 11.717 179.153 12.4913C181.027 13.2656 182.73 14.4022 184.164 15.8361C185.598 17.2699 186.734 18.9728 187.509 20.8469C188.283 22.721 188.68 24.7296 188.676 26.7573C188.672 28.7851 188.268 30.7922 187.487 32.6635C186.706 34.5348 185.563 36.2334 184.124 37.662L178.409 43.377L156.623 21.5909L162.338 15.8759ZM52.2725 7.75932L108.15 63.6364L102.273 69.5134L46.3955 13.6364L52.2725 7.75932ZM54.35 98.8636L61.8339 91.3795C62.2479 90.9509 62.477 90.3768 62.4718 89.7809C62.4666 89.185 62.2276 88.615 61.8062 88.1936C61.3848 87.7722 60.8148 87.5332 60.2189 87.528C59.623 87.5228 59.0489 87.7519 58.6203 88.1659L51.1362 95.6498L42.9864 87.5L50.4703 80.0159C50.8843 79.5873 51.1133 79.0132 51.1082 78.4173C51.103 77.8214 50.864 77.2513 50.4426 76.83C50.0212 76.4086 49.4512 76.1696 48.8553 76.1644C48.2594 76.1592 47.6853 76.3883 47.2566 76.8023L39.7725 84.2861L31.6228 76.1364L39.1066 68.6523C39.5206 68.2236 39.7497 67.6495 39.7445 67.0536C39.7394 66.4577 39.5003 65.8877 39.0789 65.4663C38.6576 65.0449 38.0875 64.8059 37.4916 64.8007C36.8957 64.7956 36.3216 65.0246 35.893 65.4386L28.4089 72.9225L20.2591 64.7727L27.743 57.2886C28.157 56.86 28.3861 56.2859 28.3809 55.69C28.3757 55.0941 28.1367 54.5241 27.7153 54.1027C27.2939 53.6813 26.7239 53.4423 26.128 53.4371C25.5321 53.4319 24.958 53.661 24.5294 54.075L17.0453 61.5589L7.75913 52.2727L43.1816 16.8502L99.0587 72.7273L63.6362 108.15L54.35 98.8636ZM21.503 158.808L41.1919 178.497L12.5541 187.446L21.503 158.808ZM147.727 192.241L138.441 182.955L145.925 175.47C146.142 175.261 146.315 175.01 146.434 174.733C146.553 174.455 146.616 174.157 146.619 173.855C146.621 173.554 146.564 173.254 146.449 172.975C146.335 172.696 146.166 172.442 145.953 172.229C145.74 172.015 145.486 171.847 145.207 171.732C144.927 171.618 144.628 171.56 144.326 171.563C144.024 171.566 143.726 171.628 143.449 171.748C143.172 171.867 142.921 172.04 142.711 172.257L135.227 179.741L127.077 171.591L134.561 164.107C134.778 163.897 134.951 163.646 135.071 163.369C135.19 163.092 135.252 162.794 135.255 162.492C135.258 162.19 135.2 161.891 135.086 161.611C134.972 161.332 134.803 161.078 134.589 160.865C134.376 160.652 134.122 160.483 133.843 160.369C133.564 160.254 133.264 160.197 132.963 160.199C132.661 160.202 132.363 160.265 132.085 160.384C131.808 160.503 131.557 160.676 131.348 160.893L123.863 168.377L115.714 160.227L123.198 152.743C123.415 152.534 123.588 152.283 123.707 152.005C123.826 151.728 123.889 151.43 123.891 151.128C123.894 150.826 123.836 150.527 123.722 150.248C123.608 149.969 123.439 149.715 123.226 149.501C123.012 149.288 122.759 149.119 122.479 149.005C122.2 148.891 121.901 148.833 121.599 148.836C121.297 148.838 120.999 148.901 120.722 149.02C120.444 149.139 120.194 149.312 119.984 149.53L112.5 157.013L104.35 148.864L111.834 141.38C112.248 140.951 112.477 140.377 112.472 139.781C112.467 139.185 112.228 138.615 111.806 138.194C111.385 137.772 110.815 137.533 110.219 137.528C109.623 137.523 109.049 137.752 108.62 138.166L101.136 145.65L91.8501 136.364L127.273 100.941L183.15 156.818L147.727 192.241ZM186.363 153.604L130.486 97.7273L136.363 91.8502L192.241 147.727L186.363 153.604Z"
        stroke="white" data-stroke="white" fill="none" data-fill="#32233F" />
</svg>
